<?xml version="1.0" standalone="no"?>
<!DOCTYPE svg PUBLIC "-//W3C//DTD SVG 1.1//EN" "http://www.w3.org/Graphics/SVG/1.1/DTD/svg11.dtd" >
<svg>
<metadata>
Created by FontForge 20090914 at Sat Jun 20 02:21:54 2020
 By www-data
Dmitry Rastvortsev exclusively for Pari-Match N.V. parimatch.com
</metadata>
<defs>
<font id="PariMatchRegular" horiz-adv-x="440" >
  <font-face 
    font-family="PariMatchRegular"
    font-weight="400"
    font-style="italic"
    font-stretch="normal"
    units-per-em="1000"
    panose-1="0 0 5 0 0 0 0 0 0 0"
    ascent="800"
    descent="-200"
    x-height="550"
    cap-height="700"
    bbox="-358 -155.003 2400 897"
    underline-thickness="50"
    underline-position="-150"
    slope="-16"
    unicode-range="U+0020-U+2265"
  />
<missing-glyph horiz-adv-x="430" 
d="M353 -155h-273v860h273v-860zM144 647v-28h56v-32h-56v-28h142v28h-56v32h56v28h-142zM144 536v-89h142v29h-56v60h-86zM200 476h-28v31h28v-31zM144 424v-29h56v-31h-56v-29h86v60h56v29h-142zM258 372v-57h-114v-29h142v86h-28zM200 267v-48h30v20h28v-41h-86v69h-28
v-97h142v97h-86zM144 118v-97h142v97h-142zM258 50h-86v40h86v-40zM144 2v-29h60l-60 -40v-29h142v29h-87l60 40h27v29h-142z" />
    <glyph glyph-name="uni04070407.liga" unicode="&#x407;&#x407;" horiz-adv-x="470" 
d="M243 855l-34 -120h-108l34 120h108zM385 855l-34 -120h-108l34 120h108zM526 855l-34 -120h-108l34 120h108zM668 855l-34 -120h-108l34 120h108zM302 700l-200 -700h-125l200 700h125zM537 700l-200 -700h-125l200 700h125z" />
    <glyph glyph-name="uni04570457.liga" unicode="&#x457;&#x457;" 
d="M184 705l-34 -120h-108l34 120h108zM326 705l-34 -120h-108l34 120h108zM468 705l-34 -120h-108l34 120h108zM610 705l-34 -120h-108l34 120h108zM249 550l-157 -550h-120l157 550h120zM469 550l-157 -550h-120l157 550h120z" />
    <glyph glyph-name=".notdef" horiz-adv-x="430" 
d="M353 -155h-273v860h273v-860zM144 647v-28h56v-32h-56v-28h142v28h-56v32h56v28h-142zM144 536v-89h142v29h-56v60h-86zM200 476h-28v31h28v-31zM144 424v-29h56v-31h-56v-29h86v60h56v29h-142zM258 372v-57h-114v-29h142v86h-28zM200 267v-48h30v20h28v-41h-86v69h-28
v-97h142v97h-86zM144 118v-97h142v97h-142zM258 50h-86v40h86v-40zM144 2v-29h60l-60 -40v-29h142v29h-87l60 40h27v29h-142z" />
    <glyph glyph-name="space" unicode=" " horiz-adv-x="140" 
 />
    <glyph glyph-name="exclam" unicode="!" horiz-adv-x="270" 
d="M344 700l-187 -490h-95l140 490h142zM122 0h-130l40 140h130z" />
    <glyph glyph-name="quotedbl" unicode="&#x22;" horiz-adv-x="420" 
d="M223 475h-100l50 230h130zM413 475h-100l50 230h130z" />
    <glyph glyph-name="numbersign" unicode="#" 
d="M399 444l-54 -188h55l-30 -106h-55l-43 -150h-100l43 150h-60l-43 -150h-100l43 150h-55l30 106h55l54 188h-55l30 106h55l43 150h100l-43 -150h60l43 150h100l-43 -150h55l-30 -106h-55zM299 444h-60l-54 -188h60z" />
    <glyph glyph-name="dollar" unicode="$" 
d="M365 704c44.667 -4.66699 75.167 -22.834 91.5 -54.501s17.833 -70.5 4.5 -116.5l-22 -78h-124l29 97c6.66699 24.667 -2.33301 37 -27 37h-28c-11.333 0 -19.833 -3.16699 -25.5 -9.5s-10.5 -16.166 -14.5 -29.499l-9 -30c-6.66699 -16.667 -9.66699 -31.334 -9 -44.001
s6.66699 -25.667 18 -39l90 -112c37.333 -46.667 47.666 -96 30.999 -148l-8 -27c-16 -55.333 -38 -95 -66 -119s-65 -36 -111 -36h-8l-19 -65h-64l19 66c-46 4 -77.333 21.833 -94 53.5s-18.334 70.834 -5.00098 117.501l22 77h124l-28 -96
c-6.66699 -24.667 2.33301 -37 27 -37h38c11.333 0 19.833 3.16699 25.5 9.5s10.5 16.166 14.5 29.499l8 30c0.666992 2 1.66699 5.66699 3 11s2.16602 9 2.49902 11s1 5.33301 2 10s1.33301 8 1 10s-0.666016 5 -0.999023 9s-1.16602 7.33301 -2.49902 10
s-3 5.83398 -5 9.50098s-4.33301 7.16699 -7 10.5l-92 111c-35.333 42 -46 89 -32 141l10 37c14.667 54 36.334 93.333 65.001 118s66 37 112 37h1l18 65h64z" />
    <glyph glyph-name="percent" unicode="%" horiz-adv-x="550" 
d="M129 619c16.667 57.333 50.0029 86 100.003 86h46c27.333 0 47.166 -8.66699 59.499 -26s14.166 -40.333 5.49902 -69l-33 -117c-16.667 -57.333 -50.334 -86 -101.001 -86h-47c-27.333 0 -46.833 8.83301 -58.5 26.5s-13.5 40.5 -5.5 68.5zM618.003 700l-575 -700h-81
l575 700h81zM171.003 494c-4 -12 0.333008 -18 13 -18h26c10 0 16.333 6.33301 19 19l35 122c4 12.667 0 19 -12 19h-25c-10 0 -17 -6.66699 -21 -20zM273.003 207c16.667 57.333 50.333 86 101 86h46c27.333 0 47 -8.66699 59 -26s14 -40.333 6 -69l-34 -117
c-16.667 -57.333 -50 -86 -100 -86h-47c-27.333 0 -46.833 8.83301 -58.5 26.5s-13.5 40.5 -5.5 68.5zM315.002 82c-2.66699 -12 1.66602 -18 12.999 -18h26c9.33301 0 16 6.33301 20 19l35 122c2.66699 12.667 -1.66602 19 -12.999 19h-25c-10 0 -17 -6.66699 -21 -20z" />
    <glyph glyph-name="ampersand" unicode="&#x26;" horiz-adv-x="415" 
d="M76 -5c-41.333 0 -70.499 16 -87.499 48s-19.167 70.333 -6.5 115l44 154c12.667 44 30.667 76.833 54 98.5s53.666 33.167 90.999 34.5l-21 159l27 96h302l-33 -116h-182l28 -219l42 80h107l-127 -236l28 -209h-111l-9 69c-36 -49.333 -75.667 -74 -119 -74h-27z
M113.001 109h8c15.333 0 29 10 41 30l41 65l-18 135h-12c-15.333 0 -26 -10 -32 -30l-49 -171c-4.66699 -19.333 2.33301 -29 21 -29z" />
    <glyph glyph-name="quotesingle" unicode="'" horiz-adv-x="230" 
d="M223 475h-100l50 230h130z" />
    <glyph glyph-name="parenleft" unicode="(" horiz-adv-x="280" 
d="M318 710c-15.333 0 -25.999 -10 -31.999 -30l-204 -716c-6 -19.333 0.666992 -29 20 -29h42l-25 -90h-31c-42 0 -72 13.333 -90 40s-21 62 -9 106l194 676c13.333 46 32.166 79.667 56.499 101s56.5 32 96.5 32h55l-25 -90h-48z" />
    <glyph glyph-name="parenright" unicode=")" horiz-adv-x="280" 
d="M-19 -65c15.333 0 25.999 10 31.999 30l204 716c6 19.333 -0.666992 29 -20 29h-42l25 90h31c42 0 72 -13.333 90 -40s21 -62 9 -106l-194 -676c-13.333 -46 -32.166 -79.667 -56.499 -101s-56.5 -32 -96.5 -32h-55l25 90h48z" />
    <glyph glyph-name="asterisk" unicode="*" horiz-adv-x="289" 
d="M116 573l77 19l-60 38l42 51l48 -47l14 71h62l-29 -72l68 33l18 -53l-79 -22l62 -35l-42 -51l-51 45l-12 -70h-61l27 72l-67 -34z" />
    <glyph glyph-name="plus" unicode="+" 
d="M386 260h-118l-34 -120h-104l34 120h-118l29 100h118l34 120h104l-34 -120h118z" />
    <glyph glyph-name="comma" unicode="," horiz-adv-x="230" 
d="M46 -90h-100l66 230h130z" />
    <glyph glyph-name="hyphen" unicode="-" horiz-adv-x="300" 
d="M255 255h-220l31 110h220z" />
    <glyph glyph-name="period" unicode="." horiz-adv-x="230" 
d="M102 0h-130l40 140h130z" />
    <glyph glyph-name="slash" unicode="/" horiz-adv-x="280" 
d="M-99 -155l412 955h94l-412 -955h-94z" />
    <glyph glyph-name="zero" unicode="0" 
d="M360 150c-16 -55.333 -38 -95 -66 -119s-65 -36 -111 -36h-52c-52.667 0 -88.667 16.333 -108 49s-22 73.667 -8 123l109 383c16 55.333 38 95 66 119s65 36 111 36h52c52.667 0 88.667 -16.333 108 -49s22 -73.667 8 -123zM352 552c6.66699 24.667 -2.33301 37 -27 37
h-38c-11.333 0 -19.833 -3.16699 -25.5 -9.5s-10.5 -16.166 -14.5 -29.499l-115 -402c-6.66699 -24.667 2.33301 -37 27 -37h38c11.333 0 19.833 3.16699 25.5 9.5s10.5 16.166 14.5 29.499z" />
    <glyph glyph-name="one" unicode="1" horiz-adv-x="288" 
d="M145 0h-123l169 590h-85l31 110h208z" />
    <glyph glyph-name="two" unicode="2" horiz-adv-x="401" 
d="M-15 111c15.333 52 42.333 96.6641 81 133.997l225 218c14.667 14.667 24 29 28 43l13 46c6.66699 24.667 -2.33301 37 -27 37h-32c-11.333 0 -19.833 -3.16699 -25.5 -9.5s-10.5 -16.166 -14.5 -29.499l-17 -60h-123l17 60c16 55.333 38 95 66 119s65 36 111 36h46
c52.667 0 88.667 -16.333 108 -49s22 -73.667 8 -123l-7 -25c-11.333 -39.333 -33 -74.666 -65 -105.999l-236 -227c-13.333 -13.333 -22.333 -27.666 -27 -42.999l-4 -12h221l-34 -120h-344z" />
    <glyph glyph-name="three" unicode="3" horiz-adv-x="420" 
d="M330 705c52 0 87.833 -16.332 107.5 -48.999s22.5 -73.667 8.5 -123l-22 -82c-8 -31.333 -18.167 -54.833 -30.5 -70.5s-28.5 -27.5 -48.5 -35.5c27.333 -25.333 35 -60 23 -104l-26 -91c-16 -55.333 -38 -95 -66 -119s-65 -36 -111 -36h-45
c-52.667 0 -88.667 16.333 -108 49s-22 73.667 -8 123l22 78h119l-28 -97c-6.66699 -24.667 2.33301 -37 27 -37h35c11.333 0 19.833 3.16699 25.5 9.5s10.5 16.166 14.5 29.499l30 105c6.66699 24.667 -2.33301 37 -27 37h-61l34 116h64c11.333 0 19.833 3.16699 25.5 9.5
s10.5 16.166 14.5 29.499l30 105c6.66699 24.667 -2.33301 37 -27 37h-30c-11.333 0 -19.833 -3.16699 -25.5 -9.5s-10.5 -16.166 -14.5 -29.499l-22 -79h-119l22 79c16 55.333 38 95 66 119s65 36 111 36h40z" />
    <glyph glyph-name="four" unicode="4" horiz-adv-x="422" 
d="M333 248h66l-32 -113h-66l-39 -135h-117l38 135h-215l29 103l327 462h77l-2 -3l3 3h60zM216 248l34 121l43 122h-5l-167 -243h95z" />
    <glyph glyph-name="five" unicode="5" horiz-adv-x="421" 
d="M247 580l-43 -131.999c34 30.667 67 46 99 46h13c36.667 0 63.334 -13.5 80.001 -40.5s18.667 -62.167 6 -105.5l-56 -198c-16 -55.333 -38 -95 -66 -119s-65 -36 -111 -36h-48c-52.667 0 -88.667 16.333 -108 49s-22 73.667 -8 123l22 78h119l-28 -97
c-6.66699 -24.667 2.33301 -37 27 -37h38c11.333 0 19.833 3.16699 25.5 9.5s10.5 16.166 14.5 29.499l58 202c6.66699 24.667 -2.33301 37 -27 37h-33c-7.33301 0 -13.833 -1.83301 -19.5 -5.5s-9.83398 -7.5 -12.501 -11.5s-6.66699 -11.333 -12 -22h-116l113 350h308
l-34 -120h-201z" />
    <glyph glyph-name="six" unicode="6" horiz-adv-x="428" 
d="M347 705c52.667 0 88.666 -16.334 107.999 -49.001s22 -73.667 8 -123l-9 -32h-120l15 51c6.66699 24.667 -2.33301 37 -27 37h-34c-11.333 0 -19.833 -3.16699 -25.5 -9.5s-10.5 -16.166 -14.5 -29.499l-40 -141c28.667 25.333 57.334 38 86.001 38h21
c37.333 0 63.833 -13.5 79.5 -40.5s17.167 -62.167 4.5 -105.5l-43 -151c-16 -55.333 -38 -95 -66 -119s-65 -36 -111 -36h-45c-52.667 0 -88.667 16.333 -108 49s-22 73.667 -8 123l109 383c16 55.333 38 95 66 119s65 36 111 36h43zM217.999 342.999
c-11.333 0 -19.833 -3.16699 -25.5 -9.5s-10.5 -16.166 -14.5 -29.499l-45 -156c-6.66699 -24.667 2.33301 -37 27 -37h34c11.333 0 19.833 3.16699 25.5 9.5s10.5 16.166 14.5 29.499l44 156c8 24.667 -1 37 -27 37h-33z" />
    <glyph glyph-name="seven" unicode="7" horiz-adv-x="381" 
d="M472 700l-25 -90l-348 -610h-127l343 580h-207l34 120h330z" />
    <glyph glyph-name="eight" unicode="8" 
d="M348 705c52.667 0 88.667 -16.3359 108 -49.0029s22 -73.667 8 -123l-22 -78c-8 -30.667 -18 -54 -30 -70s-28 -28 -48 -36c28 -26 35.667 -60.667 23 -104l-27 -95c-16 -55.333 -38 -95 -66 -119s-65 -36 -111 -36h-52c-52.667 0 -88.667 16.167 -108 48.5
s-22 73.5 -8 123.5l22 78c8.66699 32.667 19.5 56.834 32.5 72.501s30.5 27.834 52.5 36.501c-25.333 24.667 -32 58.334 -20 101.001l27 95c16 56 38 95.833 66 119.5s65 35.5 111 35.5h42zM280 400.997c11.333 0 19.833 3.16699 25.5 9.5s10.5 16.166 14.5 29.499l35 122
c6.66699 24.667 -2.33301 37 -27 37h-38c-11.333 0 -19.833 -3.16699 -25.5 -9.5s-10.5 -16.166 -14.5 -29.499l-35 -122c-6.66699 -24.667 2.33301 -37 27 -37h38zM269 261.997c6.66699 24.667 -2.33301 37 -27 37h-38c-11.333 0 -19.833 -3.16699 -25.5 -9.5
s-10.5 -16.166 -14.5 -29.499l-32 -112c-6.66699 -24.667 2.33301 -37 27 -37h38c11.333 0 19.833 3.16699 25.5 9.5s10.5 16.166 14.5 29.499z" />
    <glyph glyph-name="nine" unicode="9" horiz-adv-x="428" 
d="M338 705c52.667 0 88.668 -16.332 108.001 -48.999s22 -73.667 8 -123l-109 -383c-16 -55.333 -38 -95 -66 -119s-65 -36 -111 -36h-43c-52.667 0 -88.667 16.333 -108 49s-22 73.667 -8 123l9 32h120l-15 -51c-6.66699 -24.667 2.33301 -37 27 -37h34
c11.333 0 19.833 3.16699 25.5 9.5s10.5 16.166 14.5 29.499l40 141c-28.667 -25.333 -57.334 -38 -86.001 -38h-21c-37.333 0 -63.833 13.5 -79.5 40.5s-17.167 62.167 -4.5 105.5l43 151c16 55.333 38 95 66 119s65 36 111 36h45zM339.001 552.001
c6.66699 24.667 -2.33301 37 -27 37h-34c-11.333 0 -19.833 -3.16699 -25.5 -9.5s-10.5 -16.166 -14.5 -29.499l-44 -156c-8 -24.667 1 -37 27 -37h33c11.333 0 19.833 3.16699 25.5 9.5s10.5 16.166 14.5 29.499z" />
    <glyph glyph-name="colon" unicode=":" horiz-adv-x="230" 
d="M219 410h-130l40 140h130zM102 0h-130l40 140h130z" />
    <glyph glyph-name="semicolon" unicode=";" horiz-adv-x="230" 
d="M219 410h-130l40 140h130zM46 -90h-100l66 230h130z" />
    <glyph glyph-name="less" unicode="&#x3c;" 
d="M399 374l-200 -71l160 -71l-29 -101l-283 130l28 100l358 130z" />
    <glyph glyph-name="equal" unicode="=" 
d="M412 350h-340l29 100h340zM361 170h-340l28 100h340z" />
    <glyph glyph-name="greater" unicode="&#x3e;" 
d="M415 361l-28 -100l-358 -130l34 117l200 71l-160 71l29 101z" />
    <glyph glyph-name="question" unicode="?" horiz-adv-x="400" 
d="M113 247c8 29.333 17.167 53.332 27.5 71.999s25.833 36.667 46.5 54l89 82c13.333 12.667 22.333 27 27 43l17 57c6.66699 24.667 -2.33301 37 -27 37h-25c-11.333 0 -19.833 -3.16699 -25.5 -9.5s-10.5 -16.166 -14.5 -29.499l-18 -63h-118l17 60
c16 56.667 37.5 96.667 64.5 120s64.5 35 112.5 35h34c52.667 0 88.667 -16.333 108 -49s22 -73.667 8 -123l-7 -25c-12 -42 -33.667 -77.333 -65 -106l-100 -91c-20 -14 -36 -38.667 -48 -74l-9 -27h-105zM168 -0.000976562h-130l40 140h130z" />
    <glyph glyph-name="at" unicode="@" horiz-adv-x="650" 
d="M113 -85c-52.667 0 -88.665 16.332 -107.998 48.999s-22 73.667 -8 123l109 383c16 55.333 38 95 66 119s65 36 111 36h252c52.667 0 88.667 -16.333 108 -49s22 -73.667 8 -123l-77 -269c-16 -55.333 -38 -95 -66 -119s-65 -36 -111 -36h-92v49
c-28 -35.333 -57 -53 -87 -53h-8c-32.667 0 -54.667 11.5 -66 34.5s-11.333 53.833 0 92.5l7 23c10.667 38 24.167 64.833 40.5 80.5s40.833 29.167 73.5 40.5l82 30c11.333 4 18.666 11.667 21.999 23l15 51c4.66699 16.667 -1 25 -17 25h-26
c-12.667 0 -21.667 -8.66699 -27 -26l-14 -49h-93l13 46c11.333 40 27.833 69.333 49.5 88s49.834 28 84.501 28h41c37.333 0 63.666 -11.5 78.999 -34.5s17.666 -53.833 6.99902 -92.5l-83 -291h18c18 0 34.5 8.33301 49.5 25s26.167 38.334 33.5 65.001l77 269
c10 34.667 10 61.167 0 79.5s-29.667 27.5 -59 27.5h-252c-38 0 -66 -30 -84 -90l-109 -383c-10 -34.667 -10 -61.167 0 -79.5s29.667 -27.5 59 -27.5h235l-18 -65h-235zM259.002 117.999l25 -0.000976562c12.667 0 21.667 8.66699 27 26l29 102l-58 -26
c-14.667 -5.33301 -24.667 -17.666 -30 -36.999l-11 -40c-4.66699 -16.667 1.33301 -25 18 -25z" />
    <glyph glyph-name="A" unicode="A" horiz-adv-x="426" 
d="M441 700l-118 -700h-124l25 132h-100l-49 -132h-128l278 700h216zM246 248l64 337h-20l-124 -337h80z" />
    <glyph glyph-name="B" unicode="B" horiz-adv-x="444" 
d="M351 700c52.667 0 88.833 -16.168 108.5 -48.501s22.5 -73.5 8.5 -123.5l-20 -69c-16 -56.667 -43 -94 -81 -112c31.333 -27.333 39.333 -66.666 24 -117.999l-21 -74c-16 -55.333 -38 -95 -66 -119s-65 -36 -111 -36h-211l200 700h169zM272.999 589.999l-54 -187h59
c22 0 36.667 13 44 39l33 111c6.66699 24.667 -2.33301 37 -27 37h-55zM274.999 259.999c6.66699 24.667 -3 37.001 -29 37.001h-57l-53 -186h68c11.333 0 19.833 3.16699 25.5 9.5s10.5 16.166 14.5 29.499z" />
    <glyph glyph-name="C" unicode="C" horiz-adv-x="449" 
d="M136 -5c-52.667 0 -88.667 16.333 -108 49s-22 73.667 -8 123l109 383c16 55.333 38 95 66 119s65 36 111 36h55c52.667 0 88.667 -16.333 108 -49s22 -73.667 8 -123l-35 -123h-122l41 142c6.66699 24.667 -2.33301 37 -27 37h-40
c-11.333 0 -19.833 -3.16699 -25.5 -9.5s-10.5 -16.166 -14.5 -29.499l-115 -402c-6.66699 -24.667 2.33301 -37 27 -37h40c11.333 0 19.833 3.16699 25.5 9.5s10.5 16.166 14.5 29.499l37 130h123l-37 -130c-16 -55.333 -38 -95 -66 -119s-65 -36 -111 -36h-56z" />
    <glyph glyph-name="D" unicode="D" horiz-adv-x="469" 
d="M376 700c52.667 0 88.667 -16.333 108 -49s22 -73.667 8 -123l-107 -373c-16 -55.333 -38 -95 -66 -119s-65 -36 -111 -36h-231l200 700h199zM373 547c6.66699 24.667 -2.33301 37.001 -27 37.001h-77l-134 -468h85c11.333 0 19.833 3.16699 25.5 9.5
s10.5 16.166 14.5 29.499z" />
    <glyph glyph-name="E" unicode="E" horiz-adv-x="370" 
d="M267 584l-50 -176h137l-34 -116h-137l-50 -176h147l-33 -116h-270l200 700h270l-33 -116h-147z" />
    <glyph glyph-name="F" unicode="F" horiz-adv-x="355" 
d="M269 584l-50 -176h120l-34 -116h-120l-83 -292h-125l200 700h275l-33 -116h-150z" />
    <glyph glyph-name="G" unicode="G" horiz-adv-x="465" 
d="M361 705c52.667 0 88.668 -16.334 108.001 -49.001s22 -73.667 8 -123l-24 -85h-120l31 104c6.66699 24.667 -2.33301 37 -27 37h-43c-11.333 0 -19.833 -3.16699 -25.5 -9.5s-10.5 -16.166 -14.5 -29.499l-115 -402c-6.66699 -24.667 2.33301 -37 27 -37h43
c25.333 0 41.666 13 48.999 39l28 97h-58l32 113h175l-103 -360h-80l1 67c-32.667 -48 -71 -72 -115 -72h-2c-52.667 0 -88.667 16.333 -108 49s-22 73.667 -8 123l109 383c16 55.333 38 95 66 119s65 36 111 36h55z" />
    <glyph glyph-name="H" unicode="H" horiz-adv-x="470" 
d="M537 700l-200 -700h-125l83 292h-110l-83 -292h-125l200 700h125l-83 -292h110l83 292h125z" />
    <glyph glyph-name="I" unicode="I" horiz-adv-x="235" 
d="M302 700l-200 -700h-125l200 700h125z" />
    <glyph glyph-name="J" unicode="J" horiz-adv-x="400" 
d="M102 -5c-50.667 0 -85.498 16.333 -104.498 49s-21.5 73.667 -7.5 123l38 133h117l-44 -152c-6.66699 -24.667 2.66602 -37 27.999 -37h17c11.333 0 19.666 3 24.999 9s10 16 14 30l157 550h125l-157 -550c-15.333 -55.333 -37 -95 -65 -119s-65 -36 -111 -36h-32z" />
    <glyph glyph-name="K" unicode="K" horiz-adv-x="448" 
d="M339 360l10 -360h-125l-1 292h-38l-83 -292h-125l200 700h125l-83 -292h23l170 292h128z" />
    <glyph glyph-name="L" unicode="L" horiz-adv-x="355" 
d="M-23 0l200 700h125l-167 -584h155l-33 -116h-280z" />
    <glyph glyph-name="M" unicode="M" horiz-adv-x="600" 
d="M662 700l-200 -700h-119l60 210l60 187h-5l-172 -281h-56l-18 281h-5l-46 -187l-60 -210h-119l200 700h112l23 -355l215 355h130z" />
    <glyph glyph-name="N" unicode="N" horiz-adv-x="485" 
d="M182 700h115l20 -397h5l46 187l60 210h119l-200 -700h-115l-20 397h-5l-46 -187l-60 -210h-119z" />
    <glyph glyph-name="O" unicode="O" horiz-adv-x="466" 
d="M381 150c-16 -55.333 -38 -95 -66 -119s-65 -36 -111 -36h-68c-52.667 0 -88.667 16.333 -108 49s-22 73.667 -8 123l109 383c16 55.333 38 95 66 119s65 36 111 36h68c52.667 0 88.667 -16.333 108 -49s22 -73.667 8 -123zM371 552c6.66699 24.667 -2.33301 37 -27 37
h-50c-11.333 0 -19.833 -3.16699 -25.5 -9.5s-10.5 -16.166 -14.5 -29.499l-115 -402c-6.66699 -24.667 2.33301 -37 27 -37h50c11.333 0 19.833 3.16699 25.5 9.5s10.5 16.166 14.5 29.499z" />
    <glyph glyph-name="P" unicode="P" horiz-adv-x="445" 
d="M362 700c52 0 87.833 -16.5 107.5 -49.5s22.5 -73.833 8.5 -122.5l-29 -101c-16 -55.333 -38 -95 -66 -119s-65 -36 -111 -36h-92l-78 -272h-125l200 700h185zM359 547c6.66699 24.667 -2.33301 37.001 -27 37.001h-63l-56 -196h71c11.333 0 19.833 3.16699 25.5 9.5
s10.5 16.166 14.5 29.499z" />
    <glyph glyph-name="Q" unicode="Q" horiz-adv-x="466" 
d="M374 705c52.667 0 88.666 -16.333 107.999 -49s22 -73.667 8 -123l-109 -383c-14 -49.333 -32.667 -86 -56 -110s-53.666 -38.333 -90.999 -43v-97h-114v96c-46 3.33301 -77.5 21 -94.5 53s-18.833 71.333 -5.5 118l109 383c16 55.333 38 95 66 119s65 36 111 36h68z
M370.999 552c6.66699 24.667 -2.33301 37 -27 37h-50c-11.333 0 -19.833 -3.16699 -25.5 -9.5s-10.5 -16.166 -14.5 -29.499l-115 -402c-6.66699 -24.667 2.33301 -37 27 -37h50c11.333 0 19.833 3.16699 25.5 9.5s10.5 16.166 14.5 29.499z" />
    <glyph glyph-name="R" unicode="R" horiz-adv-x="445" 
d="M-23 0l200 700h181c52 0 87.833 -16.5 107.5 -49.5s22.5 -73.833 8.5 -122.5l-28 -97c-22 -75.333 -58.667 -123 -110 -143l6 -288h-122l-2 276h-37l-79 -276h-125zM213 388l67 0.000976562c11.333 0 19.833 3.16699 25.5 9.5s10.5 16.166 14.5 29.499l36 124
c6.66699 24.667 -2.33301 37 -27 37h-59z" />
    <glyph glyph-name="S" unicode="S" horiz-adv-x="423" 
d="M121 -5c-52.667 0 -88.668 16.333 -108.001 49s-22 73.667 -8 123l22 77h124l-28 -96c-6.66699 -24.667 2.33301 -37 27 -37h38c11.333 0 19.833 3.16699 25.5 9.5s10.5 16.166 14.5 29.499l8 30c0.666992 2 1.66699 5.66699 3 11s2.16602 9 2.49902 11s1 5.33301 2 10
s1.33301 8 1 10s-0.666016 5 -0.999023 9s-1.16602 7.33301 -2.49902 10s-3 5.83398 -5 9.50098s-4.33301 7.16699 -7 10.5l-92 111c-35.333 42 -46 89 -32 141l10 37c14.667 54 36.334 93.333 65.001 118s66 37 112 37h44c52.667 0 88.667 -16.333 108 -49
s22 -73.667 8 -123l-22 -78h-124l29 97c6.66699 24.667 -2.33301 37 -27 37h-28c-11.333 0 -19.833 -3.16699 -25.5 -9.5s-10.5 -16.166 -14.5 -29.499l-9 -30c-6.66699 -16.667 -9.66699 -31.334 -9 -44.001s6.66699 -25.667 18 -39l90 -112
c37.333 -46.667 47.666 -96 30.999 -148l-8 -27c-16 -55.333 -38 -95 -66 -119s-65 -36 -111 -36h-55z" />
    <glyph glyph-name="T" unicode="T" horiz-adv-x="395" 
d="M464 584h-115l-167 -584h-125l167 584h-115l33 116h355z" />
    <glyph glyph-name="U" unicode="U" horiz-adv-x="472" 
d="M382 150c-16 -56 -37.8301 -95.833 -65.4971 -119.5s-64.5 -35.5 -110.5 -35.5h-64c-52.667 0 -88.834 16.333 -108.501 49s-22.167 73.667 -7.5 123l151 533h125l-158 -552c-6.66699 -24.667 2.66602 -37 27.999 -37h46c11.333 0 19.666 3 24.999 9s10 16 14 30l158 550
h124z" />
    <glyph glyph-name="V" unicode="V" horiz-adv-x="442" 
d="M231 0h-175l91 700h126l-54 -355l-36 -190h4l221 545h131z" />
    <glyph glyph-name="W" unicode="W" horiz-adv-x="650" 
d="M274 700l-46 -292l-33 -173h4l175 373h78l-28 -373h4l69 181l117 284h128l-303 -700h-123l24 330h-4l-149 -330h-132l97 700h122z" />
    <glyph glyph-name="X" unicode="X" horiz-adv-x="446" 
d="M314 346l39 -346h-121l-18 218h-4l-133 -218h-140l244 379l-40 321h122l15 -219h4l126 219h134z" />
    <glyph glyph-name="Y" unicode="Y" horiz-adv-x="422" 
d="M265 242l-69 -242h-125l67 237l-6 463h124l-7 -156l-13 -165h5l159 321h134z" />
    <glyph glyph-name="Z" unicode="Z" horiz-adv-x="405" 
d="M455 604l-329 -488h199l-33 -116h-340l27 96l329 488h-181l33 116h322z" />
    <glyph glyph-name="bracketleft" unicode="[" horiz-adv-x="280" 
d="M294 710l-220 -775h69l-25 -90h-170l272 955h170l-25 -90h-71z" />
    <glyph glyph-name="backslash" unicode="\" horiz-adv-x="280" 
d="M177 800h88l-132 -955h-88z" />
    <glyph glyph-name="bracketright" unicode="]" horiz-adv-x="280" 
d="M78 -155h-170l25 90h71l220 775h-69l25 90h170z" />
    <glyph glyph-name="asciicircum" unicode="^" 
d="M326 380l-19 181l-121 -181h-115l221 320h100l39 -320h-105z" />
    <glyph glyph-name="underscore" unicode="_" horiz-adv-x="320" 
d="M198 -155h-320l31 110h320z" />
    <glyph glyph-name="grave" unicode="`" horiz-adv-x="420" 
d="M-43 705l58 -120h-97l-76 120h115z" />
    <glyph glyph-name="a" unicode="a" horiz-adv-x="398" 
d="M70 -5c-36.667 0 -61.6689 13.333 -75.002 40s-13.666 62 -0.999023 106l8 27c12.667 44 28.5 75 47.5 93s47.167 33.333 84.5 46l93 34c13.333 4.66699 22 13.667 26 27l17 58c4.66699 19.333 -1.66602 29 -18.999 29h-30c-15.333 0 -26 -10 -32 -30l-16 -56h-107l16 53
c12.667 46 31.5 79.667 56.5 101s57.5 32 97.5 32h47c42.667 0 73 -13.333 91 -40s20.667 -62 8 -106l-117 -409h-86v56c-33.333 -40.667 -66.333 -61 -99 -61h-10zM125.998 102h29c14.667 0 25 10 31 30l33 117l-66 -29c-16 -6.66699 -27.333 -21 -34 -43l-14 -46
c-4.66699 -19.333 2.33301 -29 21 -29z" />
    <glyph glyph-name="b" unicode="b" horiz-adv-x="426" 
d="M343 555c34.667 0 59 -13.5 73 -40.5s15 -62.167 3 -105.5l-79 -281c-25.333 -88.667 -73.333 -133 -144 -133h-4c-42.667 0 -74.667 21.667 -96 65l-37 -60h-87l202 705h120l-59 -207c34 38 66 57 96 57h12zM301 416c6 19.333 -1 29 -21 29h-39
c-15.333 0 -25.666 -10 -30.999 -30l-80 -281c-6 -19.333 1 -29 21 -29h40c15.333 0 25.666 10 30.999 30z" />
    <glyph glyph-name="c" unicode="c" horiz-adv-x="410" 
d="M324 128c-13.333 -46 -32.334 -79.667 -57.001 -101s-57 -32 -97 -32h-64c-42.667 0 -73 13.5 -91 40.5s-20.667 62.167 -8 105.5l81 281c12.667 46 31.5 79.667 56.5 101s57.5 32 97.5 32h63c42.667 0 73 -13.5 91 -40.5s20.667 -62.167 8 -105.5l-27 -94h-118l30 105
c6 19.333 -1 29 -21 29h-30c-15.333 0 -25.666 -10 -30.999 -30l-83 -289c-6 -19.333 1 -29 21 -29h31c14.667 0 24.667 10 30 30l27 94h118z" />
    <glyph glyph-name="d" unicode="d" horiz-adv-x="428" 
d="M499 705l-201 -705h-88v60c-37.333 -43.333 -74.666 -65 -111.999 -65h-14c-34.667 0 -59.334 13.5 -74.001 40.5s-15.667 62.167 -3 105.5l82 281c24.667 88.667 72.667 133 144 133h4c37.333 0 65.333 -18 84 -54l58 204h120zM297 416c6 19.333 -1 29 -21 29h-39
c-14.667 0 -24.667 -10 -30 -30l-81 -281c-4.66699 -19.333 2.33301 -29 21 -29h38c15.333 0 26 10 32 30z" />
    <glyph glyph-name="e" unicode="e" horiz-adv-x="410" 
d="M305 555c42.667 0 73 -13.5 91 -40.5s20.667 -62.167 8 -105.5l-49 -170h-203l-31 -109c-6 -19.333 1 -29 21 -29h31c14.667 0 24.667 10 30 30l16 54h118l-16 -57c-13.333 -46 -32.333 -79.667 -57 -101s-57 -32 -97 -32h-61c-42.667 0 -73 13.5 -91 40.5
s-20.667 62.167 -8 105.5l81 281c12.667 46 31.5 79.667 56.5 101s57.5 32 97.5 32h63zM179 332h84.999l25 88c6 19.333 -1 29 -21 29h-33c-15.333 0 -25.666 -10 -30.999 -30z" />
    <glyph glyph-name="f" unicode="f" horiz-adv-x="311" 
d="M2 0l125 440h-69l31 110h70l6 22c12.667 46 31.5 79.667 56.5 101s57.5 32 97.5 32h105l-28 -100h-79c-14.667 0 -25 -10 -31 -30l-7 -25h101l-31 -110h-102l-125 -440h-120z" />
    <glyph glyph-name="g" unicode="g" horiz-adv-x="427" 
d="M455 550l-162.998 -572c-13.333 -46 -32.333 -79.667 -57 -101s-57 -32 -97 -32h-68c-42 0 -72 13.333 -90 40s-21 62 -9 106l5 16h114l-8 -27c-4.66699 -19.333 2.33301 -29 21 -29h39c14.667 0 25 10 31 30l35 123c-33.333 -39.333 -66 -59 -98 -59h-12
c-34.667 0 -58.834 13.5 -72.501 40.5s-14.834 62.167 -3.50098 105.5l66 231c10.667 41.333 28 73.833 52 97.5s54.333 35.5 91 35.5h4c42.667 0 74.667 -21.667 96 -65l37 60h87zM297.002 416c6 19.333 -1.00098 29 -21.001 29h-39c-15.333 0 -25.666 -10 -30.999 -30
l-66 -231c-6 -19.333 0.666992 -29 20 -29h40c14.667 0 25 10 31 30z" />
    <glyph glyph-name="h" unicode="h" horiz-adv-x="425" 
d="M342 555c34.667 0 59.167 -13.5 73.5 -40.5s15.166 -62.167 2.49902 -105.5l-116 -409h-120l118 416c6 19.333 -1 29 -21 29h-39c-15.333 0 -25.666 -10 -30.999 -30l-117 -415h-120l201 705h120l-60 -207c34 38 66 57 96 57h13z" />
    <glyph glyph-name="i" unicode="i" horiz-adv-x="211" 
d="M293 705l-34 -120h-120l34 120h120zM249 550l-157 -550h-120l157 550h120z" />
    <glyph glyph-name="j" unicode="j" horiz-adv-x="226" 
d="M303 705l-34 -120h-120l34 120h120zM259 550l-163 -572c-13.333 -46 -32.333 -79.667 -57 -101s-57 -32 -97 -32h-69l31 110h43c14.667 0 25 10 31 30l161 565h120z" />
    <glyph glyph-name="k" unicode="k" horiz-adv-x="408" 
d="M298 276l7 -276h-118v220h-32l-63 -220h-120l202 705h120l-107 -375h24l131 220h118z" />
    <glyph glyph-name="l" unicode="l" horiz-adv-x="221" 
d="M293 705l-201 -705h-120l201 705h120z" />
    <glyph glyph-name="m" unicode="m" horiz-adv-x="616" 
d="M533 555c34.667 0 59.167 -13.5 73.5 -40.5s15.166 -62.167 2.49902 -105.5l-116 -409h-120l118 416c6 19.333 -1 29 -21 29h-29c-15.333 0 -25.666 -10 -30.999 -30l-117 -415h-120l118 416c6 19.333 -1 29 -21 29h-29c-15.333 0 -25.666 -10 -30.999 -30l-117 -415
h-120l156 550h87v-60c38 43.333 75.667 65 113 65h4c40.667 0 64.667 -21.667 72 -65c41.333 43.333 82.666 65 123.999 65h4z" />
    <glyph glyph-name="n" unicode="n" horiz-adv-x="425" 
d="M342 555c34.667 0 59.332 -13.5 73.999 -40.5s15.667 -62.167 3 -105.5l-117 -409h-120l119 416c6 19.333 -1 29 -21 29h-38c-15.333 0 -25.666 -10 -30.999 -30l-119 -415h-120l157 550h86v-60c38 43.333 75.667 65 113 65h14z" />
    <glyph glyph-name="o" unicode="o" horiz-adv-x="415" 
d="M106 -5c-42.667 0 -73 13.5 -91 40.5s-20.667 62.167 -8 105.5l81 281c12.667 46 31.5 79.667 56.5 101s57.5 32 97.5 32h73c42.667 0 73 -13.5 91 -40.5s20.667 -62.167 8 -105.5l-80 -281c-13.333 -46 -32.333 -79.667 -57 -101s-57 -32 -97 -32h-74zM184 101
c14.667 0 24.666 10 29.999 30l83 289c6 19.333 -1 29 -21 29h-38c-15.333 0 -25.666 -10 -30.999 -30l-83 -289c-6 -19.333 1 -29 21 -29h39z" />
    <glyph glyph-name="p" unicode="p" horiz-adv-x="426" 
d="M344 555c34.667 0 59.168 -13.5 73.501 -40.5s15.166 -62.167 2.49902 -105.5l-81 -281c-25.333 -88.667 -73.333 -133 -144 -133h-4c-38 0 -66.333 18.333 -85 55l-58 -205h-120l201 705h88v-60c38 43.333 75.667 65 113 65h14zM301.001 416
c6 19.333 -1.00098 29 -21.001 29h-38c-15.333 0 -25.666 -10 -30.999 -30l-81 -281c-4.66699 -19.333 2.33301 -29 21 -29h39c14.667 0 25 10 31 30z" />
    <glyph glyph-name="q" unicode="q" horiz-adv-x="420" 
d="M455 550l-201.999 -705h-120l59 207c-32.667 -38 -64.334 -57 -95.001 -57h-12c-34.667 0 -59.167 13.5 -73.5 40.5s-15.5 62.167 -3.5 105.5l80 281c24.667 88.667 72.667 133 144 133h4c43.333 0 75 -21.667 95 -65l37 60h87zM297.001 416
c6.66699 19.333 -0.333008 29 -21 29h-40c-16 0 -26 -10 -30 -30l-80 -281c-4.66699 -19.333 2.33301 -29 21 -29h39c15.333 0 26 10 32 30z" />
    <glyph glyph-name="r" unicode="r" horiz-adv-x="378" 
d="M332 555c32.667 0 55 -12.167 67 -36.5s11.333 -60.833 -2 -109.5l-30 -106h-116l32 113c6 19.333 -1 29 -21 29h-21c-14.667 0 -24.667 -10 -30 -30l-119 -415h-120l157 550h87v-60c37.333 43.333 74 65 110 65h6z" />
    <glyph glyph-name="s" unicode="s" horiz-adv-x="366" 
d="M86 -5c-41.333 0 -70.835 13.4971 -88.502 40.4971s-20.167 62.167 -7.5 105.5l17 59h113l-21 -74c-6 -19.333 1 -29 21 -29h24c14.667 0 24.667 10 30 30l6 19c4.66699 11.333 6.83398 22.833 6.50098 34.5s-4.83301 21.834 -13.5 30.501l-77 82
c-31.333 33.333 -40 74 -26 122l4 15c11.333 39.333 29.833 70 55.5 92s56.5 33 92.5 33h50c41.333 0 70.833 -13.5 88.5 -40.5s20.167 -62.167 7.5 -105.5l-17 -59h-113l21 75c6 19.333 -0.666992 29 -20 29h-21c-17.333 0 -28.666 -10 -33.999 -30l-7 -24
c-4 -13.333 -5 -23.666 -3 -30.999s8 -16.666 18 -27.999l75 -81c18.667 -20.667 29.667 -42.167 33 -64.5s0.333008 -48.5 -9 -78.5l-2 -9c-9.33301 -33.333 -26.833 -60.5 -52.5 -81.5s-57.5 -31.5 -95.5 -31.5h-55z" />
    <glyph glyph-name="t" unicode="t" horiz-adv-x="301" 
d="M162 139c-6 -19.333 1 -29 21 -29h56l-31 -110h-65c-42.667 0 -73 13.5 -91 40.5s-20.667 62.167 -8 105.5l84 294h-70l31 110h70l62 96h86l-27 -96h85l-31 -110h-86z" />
    <glyph glyph-name="u" unicode="u" horiz-adv-x="425" 
d="M454 550l-157.001 -550h-86v60c-37.333 -43.333 -74.666 -65 -111.999 -65h-14c-34.667 0 -59.5 13.5 -74.5 40.5s-16.167 62.167 -3.5 105.5l117 409h120l-119 -416c-4.66699 -19.333 2.33301 -29 21 -29h38c15.333 0 26 10 32 30l118 415h120z" />
    <glyph glyph-name="v" unicode="v" horiz-adv-x="380" 
d="M198 0h-174l70 550h115l-35 -229l-33 -200h4l180 429h119z" />
    <glyph glyph-name="w" unicode="w" horiz-adv-x="572" 
d="M213 550l-35 -229l-25 -136h5l148 293h71l-17 -293h5l50 129l100 236h116l-239 -550h-121l6 237h-5l-117 -237h-119l63 550h114z" />
    <glyph glyph-name="x" unicode="x" horiz-adv-x="385" 
d="M260 276l32 -276h-109l-16 171h-5l-101 -171h-124l197 296l-37 254h112l14 -164h4l99 164h120z" />
    <glyph glyph-name="y" unicode="y" horiz-adv-x="380" 
d="M446 550l-263 -572c-42 -88.667 -100.333 -133 -175 -133h-83l31 110h45c19.333 0 33 5.66699 41 17l54 578h115l-30 -231l-39 -209h4l175 440h125z" />
    <glyph glyph-name="z" unicode="z" horiz-adv-x="347" 
d="M371 458l-266 -348h175l-31 -110h-306l25 91l267 349h-159l31 110h290z" />
    <glyph glyph-name="braceleft" unicode="{" horiz-adv-x="280" 
d="M403 800l-24.999 -90h-41c-15.333 0 -26 -10 -32 -30l-69 -244c-14.667 -51.333 -38 -88 -70 -110c18.667 -24.667 22 -57 10 -97l-75 -265c-6 -19.333 0.666992 -29 20 -29h35l-25 -90h-24c-42 0 -72 13.333 -90 40s-21 62 -9 106l76 265c6 19.333 -1.33301 29 -22 29
h-18l26 90h26c14.667 0 25 10 31 30l75 262c13.333 46 32.166 79.667 56.499 101s56.5 32 96.5 32h48z" />
    <glyph glyph-name="bar" unicode="|" horiz-adv-x="280" 
d="M197 800v-955h-85v955h85z" />
    <glyph glyph-name="braceright" unicode="}" horiz-adv-x="280" 
d="M228 404c-4.66699 -19.333 2.66895 -29 22.002 -29h18l-26 -90h-26c-14.667 0 -24.667 -10 -30 -30l-79 -277c-13.333 -46 -32.333 -79.667 -57 -101s-57 -32 -97 -32h-48l25 90h41c16 0 26.667 10 32 30l74 259c15.333 53.333 38.666 90 69.999 110
c-18.667 24.667 -22.334 57 -11.001 97l72 250c4.66699 19.333 -2.33301 29 -21 29h-35l25 90h24c42.667 0 73 -13.5 91 -40.5s20.667 -62.167 8 -105.5z" />
    <glyph glyph-name="asciitilde" unicode="~" 
d="M66 330c10.667 34.667 22.9971 60.167 36.9971 76.5s34.333 24.5 61 24.5c16 0 28.833 -2.5 38.5 -7.5s20.834 -13.833 33.501 -26.5l36 -36l10.5 -10.5c5 -5 8.66699 -8.33301 11 -10s4.83301 -2.5 7.5 -2.5c5.33301 0 9.33301 4.33301 12 13l23 80h99l-29 -101
c-10 -34.667 -22.167 -60.167 -36.5 -76.5s-34.833 -24.5 -61.5 -24.5c-16 0 -28.667 2.33301 -38 7s-20.666 13.667 -33.999 27l-36 36c-15.333 15.333 -24.666 23 -27.999 23c-6 0 -10.333 -4.33301 -13 -13l-23 -80h-99z" />
    <glyph glyph-name="exclamdown" unicode="&#xa1;" horiz-adv-x="270" 
d="M149 550h130l-40 -140h-130zM-73 -150l187 490h95l-140 -490h-142z" />
    <glyph glyph-name="cent" unicode="&#xa2;" 
d="M115 -5l18.001 64.999c-40 1.33301 -68.167 15.333 -84.5 42s-18.5 61.334 -6.5 104.001l80 281c12.667 46 31.5 79.667 56.5 101s57.5 32 97.5 32h7l24 85h64l-24 -85c39.333 -2 67.333 -16.333 84 -43s19 -61 7 -103l-26 -94h-118l30 105
c4.66699 19.333 -2.33301 29 -21 29h-30c-15.333 0 -26 -10 -32 -30l-82 -289c-6 -19.333 0.666992 -29 20 -29h31c15.333 0 25.666 10 30.999 30l27 94h118l-28 -97c-12.667 -46 -31.5 -79.667 -56.5 -101s-57.5 -32 -97.5 -32h-7l-18 -65h-64z" />
    <glyph glyph-name="sterling" unicode="&#xa3;" 
d="M365 705c50 0 84.168 -16.3359 102.501 -49.0029s20.5 -73.667 6.5 -123l-21 -73h-112l28 92c6.66699 24.667 -2.33301 37 -27 37h-19c-11.333 0 -19.833 -3.16699 -25.5 -9.5s-10.5 -16.166 -14.5 -29.499l-47 -165h137l-20 -70h-137l-32 -111
c-12.667 -42 -30.334 -73.333 -53.001 -94h122l61 90h75l-25 -90l-31 -110h-365l31 110c19.333 2.66699 32.833 10.334 40.5 23.001s16.5 36.334 26.5 71.001l32 111h-69l20 70h69l47 165c16 55.333 38 95 66 119s65 36 111 36h23z" />
    <glyph glyph-name="yen" unicode="&#xa5;" 
d="M309 302h87l-20 -70h-105l-14 -50h105l-20 -70h-105l-32 -112h-125l32 112h-105l20 70h105l14 50h-105l20 70h86l-6 398h124l-7 -156l-13 -165h5l159 321h134z" />
    <glyph glyph-name="brokenbar" unicode="&#xa6;" horiz-adv-x="280" 
d="M112 800h85v-432h-85v432zM197 -155h-85v407h85v-407z" />
    <glyph glyph-name="section" unicode="&#xa7;" 
d="M362 705c41.333 0 71.002 -13.5 89.002 -40.5s20.667 -62.167 8 -105.5l-9 -29h-113l13 45c6 19.333 -0.666992 29 -20 29h-41c-17.333 0 -28.666 -10 -33.999 -30l-5 -19c-5.33301 -16.667 1.33398 -29.667 20.001 -39l118 -56c24.667 -12 38.167 -29.833 40.5 -53.5
s-2.16699 -50.167 -13.5 -79.5l-5 -19c-14 -44.667 -42 -72.667 -84 -84c25.333 -20 32.666 -49.667 21.999 -89l-5 -15c-11.333 -39.333 -29.666 -70 -54.999 -92s-56 -33 -92 -33h-82c-41.333 0 -71 13.5 -89 40.5s-20.667 62.167 -8 105.5l9 29h113l-13 -45
c-6 -19.333 0.666992 -29 20 -29h53c17.333 0 28.666 10 33.999 30l5 19c5.33301 16.667 -1.33398 29.667 -20.001 39l-122 56c-24.667 11.333 -38.167 29 -40.5 53s2.16699 50.667 13.5 80l5 19c13.333 44 45.666 69.667 96.999 77
c-15.333 8.66699 -25.833 21.5 -31.5 38.5s-5.5 36.167 0.5 57.5l5 15c11.333 39.333 29.666 70 54.999 92s56 33 92 33h70zM223.002 415c-15.333 0 -25.6699 -10.0029 -31.0029 -30.0029l-9 -30c-6 -18.667 -8.83301 -33.167 -8.5 -43.5s5.5 -17.5 15.5 -21.5l9 -4h63
c14.667 0 24.667 10 30 30l9 29c0.666992 3.33301 1.83398 7.83301 3.50098 13.5s2.66699 9.5 3 11.5s1 5 2 9s1.33301 6.83301 1 8.5s-0.666016 3.83398 -0.999023 6.50098s-1.16602 4.83398 -2.49902 6.50098s-3 3.33398 -5 5.00098s-4.66699 3.16699 -8 4.5l-10 5h-61z
" />
    <glyph glyph-name="dieresis" unicode="&#xa8;" horiz-adv-x="420" 
d="M316 705l-34 -120h-108l34 120h108zM458 705l-34 -120h-108l34 120h108z" />
    <glyph glyph-name="copyright" unicode="&#xa9;" horiz-adv-x="650" 
d="M136 -5c-52.667 0 -88.667 16.333 -108 49s-22 73.667 -8 123l109 383c16 55.333 38 95 66 119s65 36 111 36h252c52.667 0 88.667 -16.333 108 -49s22 -73.667 8 -123l-109 -383c-16 -55.333 -38 -95 -66 -119s-65 -36 -111 -36h-252zM406 60
c18 0 34.5 8.33203 49.5 24.999s26.5 38.334 34.5 65.001l109 383c10 34.667 10 61.167 0 79.5s-29.667 27.5 -59 27.5h-252c-38 0 -66 -30 -84 -90l-109 -383c-10 -34.667 -10 -61.167 0 -79.5s29.667 -27.5 59 -27.5h252zM452 219.999
c-11.333 -40 -27.8311 -69.167 -49.498 -87.5s-49.834 -27.5 -84.501 -27.5h-56c-36.667 0 -62.834 11.667 -78.501 35s-18.167 54 -7.5 92l70 244c22 77.333 66.667 116 134 116h55c36.667 0 63 -11.667 79 -35s18.333 -54 7 -92l-23 -82h-103l27 92
c4 16.667 -2.33301 25 -19 25h-26c-12.667 0 -21.667 -8.66699 -27 -26l-72 -252c-4.66699 -16.667 1.33301 -25 18 -25h27c12.667 0 21.667 8.66699 27 26l23 82h103z" />
    <glyph glyph-name="guillemotleft" unicode="&#xab;" horiz-adv-x="400" 
d="M145 305l32 -149h-90l-34 127l17 60l94 121h101zM295 305l32 -149h-90l-34 127l17 60l94 121h101z" />
    <glyph glyph-name="logicalnot" unicode="&#xac;" 
d="M345 116h-111l41 144h-229l29 100h340z" />
    <glyph glyph-name="registered" unicode="&#xae;" horiz-adv-x="386" 
d="M147 327c-29.333 0 -49.332 9 -59.999 27s-12 41 -4 69l56 196c8.66699 31.333 20.667 53.5 36 66.5s36 19.5 62 19.5h117c29.333 0 49.5 -9 60.5 -27s12.5 -41 4.5 -69l-56 -196c-8.66699 -30.667 -20.834 -52.667 -36.501 -66s-36.5 -20 -62.5 -20h-117zM158.001 363
h117.001c21.333 0 36.666 16.667 45.999 50l56 196c11.333 40 0.333008 60 -33 60h-117c-20.667 0 -36 -16.667 -46 -50l-56 -196c-11.333 -40 -0.333008 -60 33 -60zM160.002 398l68.002 238h67c18 0 30.167 -5.5 36.5 -16.5s7.16602 -24.833 2.49902 -41.5l-11 -38
c-6.66699 -25.333 -18.334 -41.333 -35.001 -48l2 -94h-45l-1 89h-14l-25 -89h-45zM243.004 530h22c7.33301 0 12 4.33301 14 13l11 38c2 8 -1.33301 12 -10 12h-19z" />
    <glyph glyph-name="macron" unicode="&#xaf;" horiz-adv-x="420" 
d="M434 690l-26 -90h-210l26 90h210z" />
    <glyph glyph-name="degree" unicode="&#xb0;" horiz-adv-x="310" 
d="M248 445c-37.333 0 -68.5 12.5 -93.5 37.5s-37.5 56.167 -37.5 93.5c0 36.667 12.5 67.334 37.5 92.001s56.167 37 93.5 37c36.667 0 67.334 -12.333 92.001 -37s37 -55.334 37 -92.001c0 -37.333 -12.333 -68.5 -37 -93.5s-55.334 -37.5 -92.001 -37.5zM248 520
c15.333 0 28.167 5.16602 38.5 15.499s15.5 23.833 15.5 40.5c0 16 -5 29 -15 39s-23 15 -39 15c-16.667 0 -30.167 -5.16699 -40.5 -15.5s-15.5 -23.166 -15.5 -38.499c0 -16.667 5.16699 -30.167 15.5 -40.5s23.833 -15.5 40.5 -15.5z" />
    <glyph glyph-name="plusminus" unicode="&#xb1;" 
d="M441 450l-29 -100h-119l-26 -90h-102l26 90h-119l29 100h118l26 90h102l-26 -90h120zM29 200h340l-28 -100h-340z" />
    <glyph glyph-name="acute" unicode="&#xb4;" horiz-adv-x="420" 
d="M325 705h120l-105 -120h-91z" />
    <glyph glyph-name="paragraph" unicode="&#xb6;" horiz-adv-x="470" 
d="M337 0h-105.001l167 584h-60l-167 -584h-105l84 293c-35.333 4.66699 -60.166 20 -74.499 46s-15.833 59 -4.5 99l37 129c12.667 46 31.5 79.667 56.5 101s57.5 32 97.5 32h274z" />
    <glyph glyph-name="periodcentered" unicode="&#xb7;" horiz-adv-x="230" 
d="M171 240h-130l40 140h130z" />
    <glyph glyph-name="cedilla" unicode="&#xb8;" horiz-adv-x="420" 
d="M86 -35h68v-120h-104z" />
    <glyph glyph-name="guillemotright" unicode="&#xbb;" horiz-adv-x="410" 
d="M211 277l-93 -121h-101l119 159l-31 149h90l33 -127zM378 337l-17 -60l-93 -121h-101l119 159l-31 149h90z" />
    <glyph glyph-name="questiondown" unicode="&#xbf;" horiz-adv-x="400" 
d="M225 550h130l-40 -140h-130zM280 303c-8 -29.333 -17.167 -53.332 -27.5 -71.999s-25.833 -36.667 -46.5 -54l-89 -82c-13.333 -12.667 -22.333 -27 -27 -43l-17 -57c-6.66699 -24.667 2.33301 -37 27 -37h25c11.333 0 19.833 3.16699 25.5 9.5s10.5 16.166 14.5 29.499
l18 63h118l-17 -60c-16 -56.667 -37.5 -96.667 -64.5 -120s-64.5 -35 -112.5 -35h-34c-52.667 0 -88.667 16.333 -108 49s-22 73.667 -8 123l7 25c12 42 33.667 77.333 65 106l100 91c20 14 36 38.667 48 74l9 27h105z" />
    <glyph glyph-name="Agrave" unicode="&#xc0;" horiz-adv-x="426" 
d="M278 735l-76 120h115l58 -120h-97zM441 700l-118 -700h-124l25 132h-100l-49 -132h-128l278 700h216zM246 248l64 337h-20l-124 -337h80z" />
    <glyph glyph-name="Aacute" unicode="&#xc1;" horiz-adv-x="426" 
d="M386 735h-91l76 120h120zM225 700h216l-118 -700h-124l25 132h-100l-49 -132h-128zM290 585l-124 -337h80l64 337h-20z" />
    <glyph glyph-name="Acircumflex" unicode="&#xc2;" horiz-adv-x="426" 
d="M309 735h-105l133 120h85l65 -120h-94l-25 61zM225 700h216l-118 -700h-124l25 132h-100l-49 -132h-128zM290 585l-124 -337h80l64 337h-20z" />
    <glyph glyph-name="Atilde" unicode="&#xc3;" horiz-adv-x="426" 
d="M493 870l-16.999 -60c-6.66699 -20.667 -14.334 -35.834 -23.001 -45.501s-21.334 -14.5 -38.001 -14.5c-11.333 0 -28 6 -50 18l-28 15c-6.66699 4 -11 6 -13 6c-5.33301 0 -8 -2.33301 -8 -7l-10 -32h-78l18 60c6 20.667 13.333 35.834 22 45.501
s21.334 14.5 38.001 14.5c11.333 0 28 -6 50 -18l28 -15c8 -4 12.667 -6 14 -6c4.66699 0 7 2.33301 7 7l10 32h78zM225.001 700h216l-118 -700h-124l25 132h-100l-49 -132h-128zM290.001 585l-124 -337h80l64 337h-20z" />
    <glyph glyph-name="Adieresis" unicode="&#xc4;" horiz-adv-x="426" 
d="M328 735h-108l34 120h108zM504 855l-34 -120h-108l34 120h108zM225 700h216l-118 -700h-124l25 132h-100l-49 -132h-128zM290 585l-124 -337h80l64 337h-20z" />
    <glyph glyph-name="Aring" unicode="&#xc5;" horiz-adv-x="426" 
d="M342 726c-24.667 0 -45.167 8.16699 -61.5 24.5s-24.5 36.833 -24.5 61.5c0 24 8.16699 44.167 24.5 60.5s36.833 24.5 61.5 24.5c23.333 0 43.166 -8.16699 59.499 -24.5s24.5 -36.5 24.5 -60.5c0 -24.667 -8.16699 -45.167 -24.5 -61.5s-36.166 -24.5 -59.499 -24.5z
M342 848c-10.667 0 -19.5 -3.5 -26.5 -10.5s-10.5 -15.5 -10.5 -25.5s3.5 -18.5 10.5 -25.5s15.833 -10.5 26.5 -10.5c10 0 18.333 3.5 25 10.5s10 15.5 10 25.5s-3.33301 18.5 -10 25.5s-15 10.5 -25 10.5zM441 700l-118 -700h-124l25 132h-100l-49 -132h-128l278 700h216z
M246 248l64 337h-20l-124 -337h80z" />
    <glyph glyph-name="AE" unicode="&#xc6;" horiz-adv-x="547" 
d="M454 584l-50 -176h127l-34 -116h-127l-50 -176h137l-33 -116h-260l38 132h-78l-49 -132h-128l278 700h399l-33 -116h-137zM235 248l96 337h-41l-124 -337h69z" />
    <glyph glyph-name="Ccedilla" unicode="&#xc7;" horiz-adv-x="449" 
d="M136 -5c-52.667 0 -88.667 16.333 -108 49s-22 73.667 -8 123l109 383c16 55.333 38 95 66 119s65 36 111 36h55c52.667 0 88.667 -16.333 108 -49s22 -73.667 8 -123l-35 -123h-122l41 142c6.66699 24.667 -2.33301 37 -27 37h-40
c-11.333 0 -19.833 -3.16699 -25.5 -9.5s-10.5 -16.166 -14.5 -29.499l-115 -402c-6.66699 -24.667 2.33301 -37 27 -37h40c11.333 0 19.833 3.16699 25.5 9.5s10.5 16.166 14.5 29.499l37 130h123l-37 -130c-16 -55.333 -38 -95 -66 -119s-65 -36 -111 -36h-56zM111 -35h68
v-120h-104z" />
    <glyph glyph-name="Egrave" unicode="&#xc8;" horiz-adv-x="370" 
d="M251 735l-76 120h115l58 -120h-97zM267 584l-50 -176h137l-34 -116h-137l-50 -176h147l-33 -116h-270l200 700h270l-33 -116h-147z" />
    <glyph glyph-name="Eacute" unicode="&#xc9;" horiz-adv-x="370" 
d="M359 735h-91l76 120h120zM414 584h-147l-50 -176h137l-34 -116h-137l-50 -176h147l-33 -116h-270l200 700h270z" />
    <glyph glyph-name="Ecircumflex" unicode="&#xca;" horiz-adv-x="370" 
d="M282 735h-105l133 120h85l65 -120h-94l-25 61zM414 584h-147l-50 -176h137l-34 -116h-137l-50 -176h147l-33 -116h-270l200 700h270z" />
    <glyph glyph-name="Edieresis" unicode="&#xcb;" horiz-adv-x="370" 
d="M301 735h-108l34 120h108zM335 735l34 120h108l-34 -120h-108zM414 584h-147l-50 -176h137l-34 -116h-137l-50 -176h147l-33 -116h-270l200 700h270z" />
    <glyph glyph-name="Igrave" unicode="&#xcc;" horiz-adv-x="235" 
d="M222 855l58 -120h-97l-76 120h115zM302 700l-200 -700h-125l200 700h125z" />
    <glyph glyph-name="Iacute" unicode="&#xcd;" horiz-adv-x="235" 
d="M276 855h120l-105 -120h-91zM302 700l-200 -700h-125l200 700h125z" />
    <glyph glyph-name="Icircumflex" unicode="&#xce;" horiz-adv-x="235" 
d="M214 735h-105l133 120h85l65 -120h-94l-25 61zM177 700h125l-200 -700h-125z" />
    <glyph glyph-name="Idieresis" unicode="&#xcf;" horiz-adv-x="235" 
d="M267 855l-34 -120h-108l34 120h108zM409 855l-34 -120h-108l34 120h108zM302 700l-200 -700h-125l200 700h125z" />
    <glyph glyph-name="Eth" unicode="&#xd0;" horiz-adv-x="479" 
d="M386 700c52.667 0 88.667 -16.333 108 -49s22 -73.667 8 -123l-107 -373c-16 -55.333 -38 -95 -66 -119s-65 -36 -111 -36h-231l88 308h-55l24 84h55l88 308h199zM383 547c6.66699 24.667 -2.33301 37.001 -27 37.001h-77l-55 -192h59l-24 -84h-59l-55 -192h85
c11.333 0 19.833 3.16699 25.5 9.5s10.5 16.166 14.5 29.499z" />
    <glyph glyph-name="Ntilde" unicode="&#xd1;" horiz-adv-x="485" 
d="M328 870c11.333 0 28.001 -6 50.001 -18l28 -15c8 -4 12.667 -6 14 -6c4.66699 0 7 2.33301 7 7l10 32h78l-17 -60c-6.66699 -20.667 -14.334 -35.834 -23.001 -45.501s-21.334 -14.5 -38.001 -14.5c-11.333 0 -28 6 -50 18l-28 15c-6.66699 4 -11 6 -13 6
c-5.33301 0 -8 -2.33301 -8 -7l-10 -32h-78l18 60c6 20.667 13.333 35.834 22 45.501s21.334 14.5 38.001 14.5zM182.001 700h115l20 -397h5l46 187l60 210h119l-200 -700h-115l-20 397h-5l-46 -187l-60 -210h-119z" />
    <glyph glyph-name="Ograve" unicode="&#xd2;" horiz-adv-x="466" 
d="M337 855l58 -120h-97l-76 120h115zM381 150c-16 -55.333 -38 -95 -66 -119s-65 -36 -111 -36h-68c-52.667 0 -88.667 16.333 -108 49s-22 73.667 -8 123l109 383c16 55.333 38 95 66 119s65 36 111 36h68c52.667 0 88.667 -16.333 108 -49s22 -73.667 8 -123zM371 552
c6.66699 24.667 -2.33301 37 -27 37h-50c-11.333 0 -19.833 -3.16699 -25.5 -9.5s-10.5 -16.166 -14.5 -29.499l-115 -402c-6.66699 -24.667 2.33301 -37 27 -37h50c11.333 0 19.833 3.16699 25.5 9.5s10.5 16.166 14.5 29.499z" />
    <glyph glyph-name="Oacute" unicode="&#xd3;" horiz-adv-x="466" 
d="M391 855h120l-105 -120h-91zM381 150c-16 -55.333 -38 -95 -66 -119s-65 -36 -111 -36h-68c-52.667 0 -88.667 16.333 -108 49s-22 73.667 -8 123l109 383c16 55.333 38 95 66 119s65 36 111 36h68c52.667 0 88.667 -16.333 108 -49s22 -73.667 8 -123zM371 552
c6.66699 24.667 -2.33301 37 -27 37h-50c-11.333 0 -19.833 -3.16699 -25.5 -9.5s-10.5 -16.166 -14.5 -29.499l-115 -402c-6.66699 -24.667 2.33301 -37 27 -37h50c11.333 0 19.833 3.16699 25.5 9.5s10.5 16.166 14.5 29.499z" />
    <glyph glyph-name="Ocircumflex" unicode="&#xd4;" horiz-adv-x="466" 
d="M329 735h-105l133 120h85l65 -120h-94l-25 61zM374 705c52.667 0 88.667 -16.333 108 -49s22 -73.667 8 -123l-109 -383c-16 -55.333 -38 -95 -66 -119s-65 -36 -111 -36h-68c-52.667 0 -88.667 16.333 -108 49s-22 73.667 -8 123l109 383c16 55.333 38 95 66 119
s65 36 111 36h68zM371 552c6.66699 24.667 -2.33301 37 -27 37h-50c-11.333 0 -19.833 -3.16699 -25.5 -9.5s-10.5 -16.166 -14.5 -29.499l-115 -402c-6.66699 -24.667 2.33301 -37 27 -37h50c11.333 0 19.833 3.16699 25.5 9.5s10.5 16.166 14.5 29.499z" />
    <glyph glyph-name="Otilde" unicode="&#xd5;" horiz-adv-x="466" 
d="M326 870c11.333 0 28.001 -6 50.001 -18l28 -15c8 -4 12.667 -6 14 -6c4.66699 0 7 2.33301 7 7l10 32h78l-17 -60c-6.66699 -20.667 -14.334 -35.834 -23.001 -45.501s-21.334 -14.5 -38.001 -14.5c-11.333 0 -28 6 -50 18l-28 15c-6.66699 4 -11 6 -13 6
c-5.33301 0 -8 -2.33301 -8 -7l-10 -32h-78l18 60c6 20.667 13.333 35.834 22 45.501s21.334 14.5 38.001 14.5zM381.001 150c-16 -55.333 -38 -95 -66 -119s-65 -36 -111 -36h-68c-52.667 0 -88.667 16.333 -108 49s-22 73.667 -8 123l109 383c16 55.333 38 95 66 119
s65 36 111 36h68c52.667 0 88.667 -16.333 108 -49s22 -73.667 8 -123zM371.001 552c6.66699 24.667 -2.33301 37 -27 37h-50c-11.333 0 -19.833 -3.16699 -25.5 -9.5s-10.5 -16.166 -14.5 -29.499l-115 -402c-6.66699 -24.667 2.33301 -37 27 -37h50
c11.333 0 19.833 3.16699 25.5 9.5s10.5 16.166 14.5 29.499z" />
    <glyph glyph-name="Odieresis" unicode="&#xd6;" horiz-adv-x="466" 
d="M382 855l-34 -120h-108l34 120h108zM524 855l-34 -120h-108l34 120h108zM381 150c-16 -55.333 -38 -95 -66 -119s-65 -36 -111 -36h-68c-52.667 0 -88.667 16.333 -108 49s-22 73.667 -8 123l109 383c16 55.333 38 95 66 119s65 36 111 36h68
c52.667 0 88.667 -16.333 108 -49s22 -73.667 8 -123zM371 552c6.66699 24.667 -2.33301 37 -27 37h-50c-11.333 0 -19.833 -3.16699 -25.5 -9.5s-10.5 -16.166 -14.5 -29.499l-115 -402c-6.66699 -24.667 2.33301 -37 27 -37h50c11.333 0 19.833 3.16699 25.5 9.5
s10.5 16.166 14.5 29.499z" />
    <glyph glyph-name="multiply" unicode="&#xd7;" 
d="M298 304l69 -97l-81 -63l-69 97l-123 -96l-54 76l123 95l-69 97l81 63l69 -97l123 96l54 -76z" />
    <glyph glyph-name="Oslash" unicode="&#xd8;" horiz-adv-x="466" 
d="M136 -5c-34 0 -62.001 7.66797 -84.001 23.001l-14 -18h-106l79 103c0 19.333 3 40.666 9 63.999l109 383c16 55.333 38 95 66 119s65 36 111 36h68c34.667 0 62.334 -7.66699 83.001 -23l15 20h106l-79 -103c0.666992 -20.667 -2.33301 -42.667 -9 -66l-109 -383
c-16 -55.333 -38 -95 -66 -119s-65 -36 -111 -36h-68zM193.999 341.001l179.001 231.999c-2.66699 10.667 -12.334 16 -29.001 16h-50c-11.333 0 -19.833 -3.16699 -25.5 -9.5s-10.5 -16.166 -14.5 -29.499zM166 111l50.001 0.000976562c11.333 0 19.833 3.16699 25.5 9.5
s10.5 16.166 14.5 29.499l61 212l-180 -233l1 -4c3.33301 -9.33301 12.666 -14 27.999 -14z" />
    <glyph glyph-name="Ugrave" unicode="&#xd9;" horiz-adv-x="472" 
d="M340 855l58 -120h-97l-76 120h115zM382 150c-16 -56 -37.8301 -95.833 -65.4971 -119.5s-64.5 -35.5 -110.5 -35.5h-64c-52.667 0 -88.834 16.333 -108.501 49s-22.167 73.667 -7.5 123l151 533h125l-158 -552c-6.66699 -24.667 2.66602 -37 27.999 -37h46
c11.333 0 19.666 3 24.999 9s10 16 14 30l158 550h124z" />
    <glyph glyph-name="Uacute" unicode="&#xda;" horiz-adv-x="472" 
d="M394 855h120l-105 -120h-91zM382 150c-16 -56 -37.8301 -95.833 -65.4971 -119.5s-64.5 -35.5 -110.5 -35.5h-64c-52.667 0 -88.834 16.333 -108.501 49s-22.167 73.667 -7.5 123l151 533h125l-158 -552c-6.66699 -24.667 2.66602 -37 27.999 -37h46
c11.333 0 19.666 3 24.999 9s10 16 14 30l158 550h124z" />
    <glyph glyph-name="Ucircumflex" unicode="&#xdb;" horiz-adv-x="472" 
d="M332 735h-105l133 120h85l65 -120h-94l-25 61zM539 700l-156.997 -550c-16 -56 -37.833 -95.833 -65.5 -119.5s-64.5 -35.5 -110.5 -35.5h-64c-52.667 0 -88.834 16.333 -108.501 49s-22.167 73.667 -7.5 123l151 533h125l-158 -552
c-6.66699 -24.667 2.66602 -37 27.999 -37h46c11.333 0 19.666 3 24.999 9s10 16 14 30l158 550h124z" />
    <glyph glyph-name="Udieresis" unicode="&#xdc;" horiz-adv-x="472" 
d="M385 855l-34 -120h-108l34 120h108zM527 855l-34 -120h-108l34 120h108zM382 150c-16 -56 -37.8301 -95.833 -65.4971 -119.5s-64.5 -35.5 -110.5 -35.5h-64c-52.667 0 -88.834 16.333 -108.501 49s-22.167 73.667 -7.5 123l151 533h125l-158 -552
c-6.66699 -24.667 2.66602 -37 27.999 -37h46c11.333 0 19.666 3 24.999 9s10 16 14 30l158 550h124z" />
    <glyph glyph-name="Yacute" unicode="&#xdd;" horiz-adv-x="422" 
d="M384 735h-91l76 120h120zM265 242l-69 -242h-125l67 237l-6 463h124l-7 -156l-13 -165h5l159 321h134z" />
    <glyph glyph-name="Thorn" unicode="&#xde;" horiz-adv-x="445" 
d="M323 564c52.667 0 88.833 -16.5 108.5 -49.5s22.167 -73.833 7.5 -122.5l-29 -101c-16 -55.333 -38 -95 -66 -119s-65 -36 -111 -36h-92l-39 -136h-125l200 700h125l-39 -136h60zM319.999 411c8 24.667 -1 37.001 -27 37.001h-63l-56 -196h71
c11.333 0 19.833 3.16699 25.5 9.5s10.5 16.166 14.5 29.499z" />
    <glyph glyph-name="germandbls" unicode="&#xdf;" horiz-adv-x="470" 
d="M246 -5c-39.333 0 -67.6689 11.501 -85.002 34.501s-20.333 53.833 -9 92.5l16 58h87l-15 -54c-5.33301 -19.333 2.33398 -29 23.001 -29h4c14.667 0 24.667 10 30 30l7 23c4 12 5.5 21.5 4.5 28.5s-5.83301 15.5 -14.5 25.5l-43 49
c-31.333 35.333 -41.333 72.666 -30 111.999l7 25c11.333 39.333 28.333 70 51 92s49.334 33 80.001 33h10c10 0 16 4.66699 18 14l14 50c2.66699 9.33301 3 15 1 17s-7.66699 3 -17 3h-108c-14.667 0 -24.667 -10 -30 -30l-163 -569h-112l163 572
c13.333 46 32.333 79.667 57 101s57 32 97 32h143c77.333 0 105 -39.333 83 -118l-17 -60c-21.333 -75.333 -63.333 -113 -126 -113h-8c-18 0 -29.667 -10 -35 -30l-4 -13c-6 -19.333 -0.666992 -38 16 -56l51 -57c27.333 -31.333 34 -72.333 20 -123l-8 -27
c-21.333 -75.333 -70.333 -113 -147 -113h-11z" />
    <glyph glyph-name="agrave" unicode="&#xe0;" horiz-adv-x="398" 
d="M209 585l-76 120h115l58 -120h-97zM70 -5c-36.667 0 -61.6689 13.333 -75.002 40s-13.666 62 -0.999023 106l8 27c12.667 44 28.5 75 47.5 93s47.167 33.333 84.5 46l93 34c13.333 4.66699 22 13.667 26 27l17 58c4.66699 19.333 -1.66602 29 -18.999 29h-30
c-15.333 0 -26 -10 -32 -30l-16 -56h-107l16 53c12.667 46 31.5 79.667 56.5 101s57.5 32 97.5 32h47c42.667 0 73 -13.333 91 -40s20.667 -62 8 -106l-117 -409h-86v56c-33.333 -40.667 -66.333 -61 -99 -61h-10zM125.998 102h29c14.667 0 25 10 31 30l33 117l-66 -29
c-16 -6.66699 -27.333 -21 -34 -43l-14 -46c-4.66699 -19.333 2.33301 -29 21 -29z" />
    <glyph glyph-name="aacute" unicode="&#xe1;" horiz-adv-x="398" 
d="M226 585l76 120h120l-105 -120h-91zM70 -5c-36.667 0 -61.6689 13.333 -75.002 40s-13.666 62 -0.999023 106l8 27c12.667 44 28.5 75 47.5 93s47.167 33.333 84.5 46l93 34c13.333 4.66699 22 13.667 26 27l17 58c4.66699 19.333 -1.66602 29 -18.999 29h-30
c-15.333 0 -26 -10 -32 -30l-16 -56h-107l16 53c12.667 46 31.5 79.667 56.5 101s57.5 32 97.5 32h47c42.667 0 73 -13.333 91 -40s20.667 -62 8 -106l-117 -409h-86v56c-33.333 -40.667 -66.333 -61 -99 -61h-10zM125.998 102h29c14.667 0 25 10 31 30l33 117l-66 -29
c-16 -6.66699 -27.333 -21 -34 -43l-14 -46c-4.66699 -19.333 2.33301 -29 21 -29z" />
    <glyph glyph-name="acircumflex" unicode="&#xe2;" horiz-adv-x="398" 
d="M135 585l133 120h85l65 -120h-94l-25 61l-59 -61h-105zM70 -5c-36.667 0 -61.6689 13.333 -75.002 40s-13.666 62 -0.999023 106l8 27c12.667 44 28.5 75 47.5 93s47.167 33.333 84.5 46l93 34c13.333 4.66699 22 13.667 26 27l17 58
c4.66699 19.333 -1.66602 29 -18.999 29h-30c-15.333 0 -26 -10 -32 -30l-16 -56h-107l16 53c12.667 46 31.5 79.667 56.5 101s57.5 32 97.5 32h47c42.667 0 73 -13.333 91 -40s20.667 -62 8 -106l-117 -409h-86v56c-33.333 -40.667 -66.333 -61 -99 -61h-10zM125.998 102
h29c14.667 0 25 10 31 30l33 117l-66 -29c-16 -6.66699 -27.333 -21 -34 -43l-14 -46c-4.66699 -19.333 2.33301 -29 21 -29z" />
    <glyph glyph-name="atilde" unicode="&#xe3;" horiz-adv-x="398" 
d="M159 600l18.001 60c6 20.667 13.333 35.834 22 45.501s21.334 14.5 38.001 14.5c11.333 0 28 -6 50 -18l28 -15c8 -4 12.667 -6 14 -6c4.66699 0 7 2.33301 7 7l10 32h78l-17 -60c-6.66699 -20.667 -14.334 -35.834 -23.001 -45.501s-21.334 -14.5 -38.001 -14.5
c-11.333 0 -28 6 -50 18l-28 15c-6.66699 4 -11 6 -13 6c-5.33301 0 -8 -2.33301 -8 -7l-10 -32h-78zM70.001 -5c-36.667 0 -61.6689 13.333 -75.002 40s-13.666 62 -0.999023 106l8 27c12.667 44 28.5 75 47.5 93s47.167 33.333 84.5 46l93 34
c13.333 4.66699 22 13.667 26 27l17 58c4.66699 19.333 -1.66602 29 -18.999 29h-30c-15.333 0 -26 -10 -32 -30l-16 -56h-107l16 53c12.667 46 31.5 79.667 56.5 101s57.5 32 97.5 32h47c42.667 0 73 -13.333 91 -40s20.667 -62 8 -106l-117 -409h-86v56
c-33.333 -40.667 -66.333 -61 -99 -61h-10zM125.999 102h29c14.667 0 25 10 31 30l33 117l-66 -29c-16 -6.66699 -27.333 -21 -34 -43l-14 -46c-4.66699 -19.333 2.33301 -29 21 -29z" />
    <glyph glyph-name="adieresis" unicode="&#xe4;" horiz-adv-x="398" 
d="M151 585l34 120h108l-34 -120h-108zM293 585l34 120h108l-34 -120h-108zM70 -5c-36.667 0 -61.6689 13.333 -75.002 40s-13.666 62 -0.999023 106l8 27c12.667 44 28.5 75 47.5 93s47.167 33.333 84.5 46l93 34c13.333 4.66699 22 13.667 26 27l17 58
c4.66699 19.333 -1.66602 29 -18.999 29h-30c-15.333 0 -26 -10 -32 -30l-16 -56h-107l16 53c12.667 46 31.5 79.667 56.5 101s57.5 32 97.5 32h47c42.667 0 73 -13.333 91 -40s20.667 -62 8 -106l-117 -409h-86v56c-33.333 -40.667 -66.333 -61 -99 -61h-10zM125.998 102
h29c14.667 0 25 10 31 30l33 117l-66 -29c-16 -6.66699 -27.333 -21 -34 -43l-14 -46c-4.66699 -19.333 2.33301 -29 21 -29z" />
    <glyph glyph-name="aring" unicode="&#xe5;" horiz-adv-x="398" 
d="M273 576c-24.667 0 -45.167 8.16699 -61.5 24.5s-24.5 36.833 -24.5 61.5c0 24 8.16699 44.167 24.5 60.5s36.833 24.5 61.5 24.5c23.333 0 43.166 -8.16699 59.499 -24.5s24.5 -36.5 24.5 -60.5c0 -24.667 -8.16699 -45.167 -24.5 -61.5s-36.166 -24.5 -59.499 -24.5z
M273 626c10 0 18.333 3.5 25 10.5s10 15.5 10 25.5s-3.33301 18.5 -10 25.5s-15 10.5 -25 10.5c-10.667 0 -19.5 -3.5 -26.5 -10.5s-10.5 -15.5 -10.5 -25.5s3.5 -18.5 10.5 -25.5s15.833 -10.5 26.5 -10.5zM70 -5c-36.667 0 -61.6689 13.333 -75.002 40
s-13.666 62 -0.999023 106l8 27c12.667 44 28.5 75 47.5 93s47.167 33.333 84.5 46l93 34c13.333 4.66699 22 13.667 26 27l17 58c4.66699 19.333 -1.66602 29 -18.999 29h-30c-15.333 0 -26 -10 -32 -30l-16 -56h-107l16 53c12.667 46 31.5 79.667 56.5 101
s57.5 32 97.5 32h47c42.667 0 73 -13.333 91 -40s20.667 -62 8 -106l-117 -409h-86v56c-33.333 -40.667 -66.333 -61 -99 -61h-10zM125.998 102h29c14.667 0 25 10 31 30l33 117l-66 -29c-16 -6.66699 -27.333 -21 -34 -43l-14 -46c-4.66699 -19.333 2.33301 -29 21 -29z
" />
    <glyph glyph-name="ae" unicode="&#xe6;" horiz-adv-x="591" 
d="M70 -5c-36.667 0 -61.6689 13.333 -75.002 40s-13.666 62 -0.999023 106l8 27c12.667 44 28.5 75 47.5 93s47.167 33.333 84.5 46l93 34c13.333 4.66699 22 13.667 26 27l17 58c4.66699 19.333 -1.66602 29 -18.999 29h-30c-15.333 0 -26 -10 -32 -30l-16 -56h-107l16 53
c12.667 46 31.5 79.667 56.5 101s57.5 32 97.5 32h37c39.333 0 62.666 -16.333 69.999 -49c27.333 32.667 57.333 49 90 49h53c42.667 0 73 -13.5 91 -40.5s20.667 -62.167 8 -105.5l-49 -170h-203l-31 -109c-6 -19.333 1 -29 21 -29h31c14.667 0 24.667 10 30 30l16 54h118
l-16 -57c-13.333 -46 -32.333 -79.667 -57 -101s-57 -32 -97 -32h-31c-30 0 -54.167 7 -72.5 21s-29.166 33 -32.499 57c-38 -52 -75.333 -78 -112 -78h-30zM359.998 332h84.999l25 88c6 19.333 -1 29 -21 29h-33c-15.333 0 -25.666 -10 -30.999 -30zM125.997 102h29
c14.667 0 25 10 31 30l33 117l-66 -29c-16 -6.66699 -27.333 -21 -34 -43l-14 -46c-4.66699 -19.333 2.33301 -29 21 -29z" />
    <glyph glyph-name="ccedilla" unicode="&#xe7;" horiz-adv-x="410" 
d="M324 128c-13.333 -46 -32.334 -79.667 -57.001 -101s-57 -32 -97 -32h-64c-42.667 0 -73 13.5 -91 40.5s-20.667 62.167 -8 105.5l81 281c12.667 46 31.5 79.667 56.5 101s57.5 32 97.5 32h63c42.667 0 73 -13.5 91 -40.5s20.667 -62.167 8 -105.5l-27 -94h-118l30 105
c6 19.333 -1 29 -21 29h-30c-15.333 0 -25.666 -10 -30.999 -30l-83 -289c-6 -19.333 1 -29 21 -29h31c14.667 0 24.667 10 30 30l27 94h118zM102.999 -35h68v-120h-104z" />
    <glyph glyph-name="egrave" unicode="&#xe8;" horiz-adv-x="410" 
d="M214 585l-76 120h115l58 -120h-97zM305 555c42.667 0 73 -13.5 91 -40.5s20.667 -62.167 8 -105.5l-49 -170h-203l-31 -109c-6 -19.333 1 -29 21 -29h31c14.667 0 24.667 10 30 30l16 54h118l-16 -57c-13.333 -46 -32.333 -79.667 -57 -101s-57 -32 -97 -32h-61
c-42.667 0 -73 13.5 -91 40.5s-20.667 62.167 -8 105.5l81 281c12.667 46 31.5 79.667 56.5 101s57.5 32 97.5 32h63zM179 332h84.999l25 88c6 19.333 -1 29 -21 29h-33c-15.333 0 -25.666 -10 -30.999 -30z" />
    <glyph glyph-name="eacute" unicode="&#xe9;" horiz-adv-x="410" 
d="M322 585h-91l76 120h120zM305 555c42.667 0 73 -13.5 91 -40.5s20.667 -62.167 8 -105.5l-49 -170h-203l-31 -109c-6 -19.333 1 -29 21 -29h31c14.667 0 24.667 10 30 30l16 54h118l-16 -57c-13.333 -46 -32.333 -79.667 -57 -101s-57 -32 -97 -32h-61
c-42.667 0 -73 13.5 -91 40.5s-20.667 62.167 -8 105.5l81 281c12.667 46 31.5 79.667 56.5 101s57.5 32 97.5 32h63zM179 332h84.999l25 88c6 19.333 -1 29 -21 29h-33c-15.333 0 -25.666 -10 -30.999 -30z" />
    <glyph glyph-name="ecircumflex" unicode="&#xea;" horiz-adv-x="410" 
d="M245 585h-105l133 120h85l65 -120h-94l-25 61zM305 555c42.667 0 73 -13.5 91 -40.5s20.667 -62.167 8 -105.5l-49 -170h-203l-31 -109c-6 -19.333 1 -29 21 -29h31c14.667 0 24.667 10 30 30l16 54h118l-16 -57c-13.333 -46 -32.333 -79.667 -57 -101s-57 -32 -97 -32
h-61c-42.667 0 -73 13.5 -91 40.5s-20.667 62.167 -8 105.5l81 281c12.667 46 31.5 79.667 56.5 101s57.5 32 97.5 32h63zM179 332h84.999l25 88c6 19.333 -1 29 -21 29h-33c-15.333 0 -25.666 -10 -30.999 -30z" />
    <glyph glyph-name="edieresis" unicode="&#xeb;" horiz-adv-x="410" 
d="M264 585h-108l34 120h108zM298 585l34 120h108l-34 -120h-108zM305 555c42.667 0 73 -13.5 91 -40.5s20.667 -62.167 8 -105.5l-49 -170h-203l-31 -109c-6 -19.333 1 -29 21 -29h31c14.667 0 24.667 10 30 30l16 54h118l-16 -57c-13.333 -46 -32.333 -79.667 -57 -101
s-57 -32 -97 -32h-61c-42.667 0 -73 13.5 -91 40.5s-20.667 62.167 -8 105.5l81 281c12.667 46 31.5 79.667 56.5 101s57.5 32 97.5 32h63zM179 332h84.999l25 88c6 19.333 -1 29 -21 29h-33c-15.333 0 -25.666 -10 -30.999 -30z" />
    <glyph glyph-name="igrave" unicode="&#xec;" horiz-adv-x="220" 
d="M171 705l58 -120h-97l-76 120h115zM249 550l-157 -550h-120l157 550h120z" />
    <glyph glyph-name="iacute" unicode="&#xed;" horiz-adv-x="220" 
d="M225 705h120l-105 -120h-91zM249 550l-157 -550h-120l157 550h120z" />
    <glyph glyph-name="icircumflex" unicode="&#xee;" horiz-adv-x="220" 
d="M163 585h-105l133 120h85l65 -120h-94l-25 61zM129 550h120l-157 -550h-120z" />
    <glyph glyph-name="idieresis" unicode="&#xef;" horiz-adv-x="220" 
d="M216 705l-34 -120h-108l34 120h108zM358 705l-34 -120h-108l34 120h108zM249 550l-157 -550h-120l157 550h120z" />
    <glyph glyph-name="eth" unicode="&#xf0;" horiz-adv-x="420" 
d="M446 634l-67.999 -24l28 -85c15.333 -46 15 -96.667 -1 -152l-71 -245c-13.333 -46 -32.333 -79.667 -57 -101s-57 -32 -97 -32h-74c-42.667 0 -73 13.5 -91 40.5s-20.667 62.167 -8 105.5l70 243c25.333 88.667 73.333 133 144 133h4
c35.333 0 64.666 -17.667 87.999 -53l5 4l-38 107l-113 -41l24 86l65 23l-22 62h113l9 -26l115 41zM285.001 378c6 19.333 -0.333984 29 -19.001 29h-40c-15.333 0 -25.666 -10 -30.999 -30l-71 -247c-6 -19.333 1 -29 21 -29h39c14.667 0 24.667 10 30 30z" />
    <glyph glyph-name="ntilde" unicode="&#xf1;" horiz-adv-x="425" 
d="M252 600h-77.999l18 60c6 20.667 13.333 35.834 22 45.501s21.334 14.5 38.001 14.5c11.333 0 28 -6 50 -18l28 -15c8 -4 12.667 -6 14 -6c4.66699 0 7 2.33301 7 7l10 32h78l-17 -60c-6.66699 -20.667 -14.334 -35.834 -23.001 -45.501s-21.334 -14.5 -38.001 -14.5
c-11.333 0 -28 6 -50 18l-28 15c-6.66699 4 -11 6 -13 6c-5.33301 0 -8 -2.33301 -8 -7zM342.001 555c34.667 0 59.332 -13.5 73.999 -40.5s15.667 -62.167 3 -105.5l-117 -409h-120l119 416c6 19.333 -1 29 -21 29h-38c-15.333 0 -25.666 -10 -30.999 -30l-119 -415h-120
l157 550h86v-60c38 43.333 75.667 65 113 65h14z" />
    <glyph glyph-name="ograve" unicode="&#xf2;" horiz-adv-x="415" 
d="M271 705l58 -120h-97l-76 120h115zM106 -5c-42.667 0 -73 13.5 -91 40.5s-20.667 62.167 -8 105.5l81 281c12.667 46 31.5 79.667 56.5 101s57.5 32 97.5 32h73c42.667 0 73 -13.5 91 -40.5s20.667 -62.167 8 -105.5l-80 -281c-13.333 -46 -32.333 -79.667 -57 -101
s-57 -32 -97 -32h-74zM184 101c14.667 0 24.666 10 29.999 30l83 289c6 19.333 -1 29 -21 29h-38c-15.333 0 -25.666 -10 -30.999 -30l-83 -289c-6 -19.333 1 -29 21 -29h39z" />
    <glyph glyph-name="oacute" unicode="&#xf3;" horiz-adv-x="415" 
d="M325 705h120l-105 -120h-91zM106 -5c-42.667 0 -73 13.5 -91 40.5s-20.667 62.167 -8 105.5l81 281c12.667 46 31.5 79.667 56.5 101s57.5 32 97.5 32h73c42.667 0 73 -13.5 91 -40.5s20.667 -62.167 8 -105.5l-80 -281c-13.333 -46 -32.333 -79.667 -57 -101
s-57 -32 -97 -32h-74zM184 101c14.667 0 24.666 10 29.999 30l83 289c6 19.333 -1 29 -21 29h-38c-15.333 0 -25.666 -10 -30.999 -30l-83 -289c-6 -19.333 1 -29 21 -29h39z" />
    <glyph glyph-name="ocircumflex" unicode="&#xf4;" horiz-adv-x="415" 
d="M263 585h-105l133 120h85l65 -120h-94l-25 61zM315 555c42.667 0 73 -13.5 91 -40.5s20.667 -62.167 8 -105.5l-80 -281c-13.333 -46 -32.333 -79.667 -57 -101s-57 -32 -97 -32h-74c-42.667 0 -73 13.5 -91 40.5s-20.667 62.167 -8 105.5l81 281
c12.667 46 31.5 79.667 56.5 101s57.5 32 97.5 32h73zM297 420c6 19.333 -1.00098 29 -21.001 29h-38c-15.333 0 -25.666 -10 -30.999 -30l-83 -289c-6 -19.333 1 -29 21 -29h39c14.667 0 24.667 10 30 30z" />
    <glyph glyph-name="otilde" unicode="&#xf5;" horiz-adv-x="415" 
d="M260 720c11.333 0 28.001 -6 50.001 -18l28 -15c8 -4 12.667 -6 14 -6c4.66699 0 7 2.33301 7 7l10 32h78l-17 -60c-6.66699 -20.667 -14.334 -35.834 -23.001 -45.501s-21.334 -14.5 -38.001 -14.5c-11.333 0 -28 6 -50 18l-28 15c-6.66699 4 -11 6 -13 6
c-5.33301 0 -8 -2.33301 -8 -7l-10 -32h-78l18 60c6 20.667 13.333 35.834 22 45.501s21.334 14.5 38.001 14.5zM106.001 -5c-42.667 0 -73 13.5 -91 40.5s-20.667 62.167 -8 105.5l81 281c12.667 46 31.5 79.667 56.5 101s57.5 32 97.5 32h73c42.667 0 73 -13.5 91 -40.5
s20.667 -62.167 8 -105.5l-80 -281c-13.333 -46 -32.333 -79.667 -57 -101s-57 -32 -97 -32h-74zM184.001 101c14.667 0 24.666 10 29.999 30l83 289c6 19.333 -1 29 -21 29h-38c-15.333 0 -25.666 -10 -30.999 -30l-83 -289c-6 -19.333 1 -29 21 -29h39z" />
    <glyph glyph-name="odieresis" unicode="&#xf6;" horiz-adv-x="415" 
d="M316 705l-34 -120h-108l34 120h108zM458 705l-34 -120h-108l34 120h108zM106 -5c-42.667 0 -73 13.5 -91 40.5s-20.667 62.167 -8 105.5l81 281c12.667 46 31.5 79.667 56.5 101s57.5 32 97.5 32h73c42.667 0 73 -13.5 91 -40.5s20.667 -62.167 8 -105.5l-80 -281
c-13.333 -46 -32.333 -79.667 -57 -101s-57 -32 -97 -32h-74zM184 101c14.667 0 24.666 10 29.999 30l83 289c6 19.333 -1 29 -21 29h-38c-15.333 0 -25.666 -10 -30.999 -30l-83 -289c-6 -19.333 1 -29 21 -29h39z" />
    <glyph glyph-name="divide" unicode="&#xf7;" 
d="M319 414h-118l36 126h118zM391 260h-350l29 100h350zM224 80h-118l36 126h118z" />
    <glyph glyph-name="oslash" unicode="&#xf8;" horiz-adv-x="420" 
d="M421 460c0.666992 -14 -1.66602 -31 -6.99902 -51l-80 -281c-13.333 -46 -32.333 -79.667 -57 -101s-57 -32 -97 -32h-74c-29.333 0 -52.666 6.66699 -69.999 20l-13 -15h-101l78 90c-0.666992 14 1.66602 31 6.99902 51l81 281c12.667 46 31.5 79.667 56.5 101
s57.5 32 97.5 32h73c29.333 0 52.666 -6.66699 69.999 -20l13 15h101zM168 285l130.999 150c-2 9.33301 -9.66699 14 -23 14h-38c-15.333 0 -25.666 -10 -30.999 -30zM252.999 265l-131 -150c2 -9.33301 9.66699 -14 23 -14h39c14.667 0 24.667 10 30 30z" />
    <glyph glyph-name="ugrave" unicode="&#xf9;" horiz-adv-x="425" 
d="M231 585l-76 120h115l58 -120h-97zM454 550l-157.001 -550h-86v60c-37.333 -43.333 -74.666 -65 -111.999 -65h-14c-34.667 0 -59.5 13.5 -74.5 40.5s-16.167 62.167 -3.5 105.5l117 409h120l-119 -416c-4.66699 -19.333 2.33301 -29 21 -29h38c15.333 0 26 10 32 30
l118 415h120z" />
    <glyph glyph-name="uacute" unicode="&#xfa;" horiz-adv-x="425" 
d="M339 585h-91l76 120h120zM454 550l-157.001 -550h-86v60c-37.333 -43.333 -74.666 -65 -111.999 -65h-14c-34.667 0 -59.5 13.5 -74.5 40.5s-16.167 62.167 -3.5 105.5l117 409h120l-119 -416c-4.66699 -19.333 2.33301 -29 21 -29h38c15.333 0 26 10 32 30l118 415h120z
" />
    <glyph glyph-name="ucircumflex" unicode="&#xfb;" horiz-adv-x="425" 
d="M262 585h-105l133 120h85l65 -120h-94l-25 61zM454 550l-157.001 -550h-86v60c-37.333 -43.333 -74.666 -65 -111.999 -65h-14c-34.667 0 -59.5 13.5 -74.5 40.5s-16.167 62.167 -3.5 105.5l117 409h120l-119 -416c-4.66699 -19.333 2.33301 -29 21 -29h38
c15.333 0 26 10 32 30l118 415h120z" />
    <glyph glyph-name="udieresis" unicode="&#xfc;" horiz-adv-x="425" 
d="M281 585h-108l34 120h108zM315 585l34 120h108l-34 -120h-108zM334 550h119.999l-157 -550h-86v60c-37.333 -43.333 -74.666 -65 -111.999 -65h-14c-34.667 0 -59.5 13.5 -74.5 40.5s-16.167 62.167 -3.5 105.5l117 409h120l-119 -416
c-4.66699 -19.333 2.33301 -29 21 -29h38c15.333 0 26 10 32 30z" />
    <glyph glyph-name="yacute" unicode="&#xfd;" horiz-adv-x="380" 
d="M323 585h-91l76 120h120zM446 550l-263 -572c-42 -88.667 -100.333 -133 -175 -133h-83l31 110h45c19.333 0 33 5.66699 41 17l54 578h115l-30 -231l-39 -209h4l175 440h125z" />
    <glyph glyph-name="thorn" unicode="&#xfe;" horiz-adv-x="427" 
d="M343 555c34.667 0 59.167 -13.5 73.5 -40.5s15.5 -62.167 3.5 -105.5l-79 -281c-25.333 -88.667 -73.333 -133 -144 -133h-4c-39.333 0 -68 18.333 -86 55l-59 -205h-120l247 860h120l-60 -207c34 38 66 57 96 57h12zM302 416c6 19.333 -1 29 -21 29h-39
c-15.333 0 -25.666 -10 -30.999 -30l-80 -281c-6 -19.333 1 -29 21 -29h40c15.333 0 25.666 10 30.999 30z" />
    <glyph glyph-name="ydieresis" unicode="&#xff;" horiz-adv-x="380" 
d="M265 585h-108l34 120h108zM299 585l34 120h108l-34 -120h-108zM446 550l-263 -572c-42 -88.667 -100.333 -133 -175 -133h-83l31 110h45c19.333 0 33 5.66699 41 17l54 578h115l-30 -231l-39 -209h4l175 440h125z" />
    <glyph glyph-name="Amacron" unicode="&#x100;" horiz-adv-x="426" 
d="M480 840l-26 -90h-210l26 90h210zM225 700h216l-118 -700h-124l25 132h-100l-49 -132h-128zM290 585l-124 -337h80l64 337h-20z" />
    <glyph glyph-name="amacron" unicode="&#x101;" horiz-adv-x="398" 
d="M175 600l26 90h210l-26 -90h-210zM70 -5c-36.667 0 -61.6689 13.333 -75.002 40s-13.666 62 -0.999023 106l8 27c12.667 44 28.5 75 47.5 93s47.167 33.333 84.5 46l93 34c13.333 4.66699 22 13.667 26 27l17 58c4.66699 19.333 -1.66602 29 -18.999 29h-30
c-15.333 0 -26 -10 -32 -30l-16 -56h-107l16 53c12.667 46 31.5 79.667 56.5 101s57.5 32 97.5 32h47c42.667 0 73 -13.333 91 -40s20.667 -62 8 -106l-117 -409h-86v56c-33.333 -40.667 -66.333 -61 -99 -61h-10zM125.998 102h29c14.667 0 25 10 31 30l33 117l-66 -29
c-16 -6.66699 -27.333 -21 -34 -43l-14 -46c-4.66699 -19.333 2.33301 -29 21 -29z" />
    <glyph glyph-name="Abreve" unicode="&#x102;" horiz-adv-x="426" 
d="M494 855l-5 -19c-15.333 -60.667 -50 -91 -104 -91h-55c-30.667 0 -51.667 9.5 -63 28.5s-12.666 43.167 -3.99902 72.5l2 9h83l-5 -20c-2.66699 -8 -2.83398 -13.667 -0.500977 -17s7.5 -5 15.5 -5h25c11.333 0 19 7.66699 23 23l5 19h83zM225 700h216l-118 -700h-124
l25 132h-100l-49 -132h-128zM290 585l-124 -337h80l64 337h-20z" />
    <glyph glyph-name="abreve" unicode="&#x103;" horiz-adv-x="398" 
d="M261 595c-30.667 0 -51.667 9.5 -63 28.5s-12.666 43.167 -3.99902 72.5l2 9h83l-5 -20c-2.66699 -8 -2.83398 -13.667 -0.500977 -17s7.5 -5 15.5 -5h25c11.333 0 19 7.66699 23 23l5 19h83l-5 -19c-15.333 -60.667 -50 -91 -104 -91h-55zM70 -5
c-36.667 0 -61.6689 13.333 -75.002 40s-13.666 62 -0.999023 106l8 27c12.667 44 28.5 75 47.5 93s47.167 33.333 84.5 46l93 34c13.333 4.66699 22 13.667 26 27l17 58c4.66699 19.333 -1.66602 29 -18.999 29h-30c-15.333 0 -26 -10 -32 -30l-16 -56h-107l16 53
c12.667 46 31.5 79.667 56.5 101s57.5 32 97.5 32h47c42.667 0 73 -13.333 91 -40s20.667 -62 8 -106l-117 -409h-86v56c-33.333 -40.667 -66.333 -61 -99 -61h-10zM125.998 102h29c14.667 0 25 10 31 30l33 117l-66 -29c-16 -6.66699 -27.333 -21 -34 -43l-14 -46
c-4.66699 -19.333 2.33301 -29 21 -29z" />
    <glyph glyph-name="Aogonek" unicode="&#x104;" horiz-adv-x="426" 
d="M441 700l-118 -700h-124l25 132h-100l-49 -132h-128l278 700h216zM246 248l64 337h-20l-124 -337h80zM271 -35l36 -120h-104v120h68z" />
    <glyph glyph-name="aogonek" unicode="&#x105;" horiz-adv-x="398" 
d="M70 -5c-36.667 0 -61.6689 13.333 -75.002 40s-13.666 62 -0.999023 106l8 27c12.667 44 28.5 75 47.5 93s47.167 33.333 84.5 46l93 34c13.333 4.66699 22 13.667 26 27l17 58c4.66699 19.333 -1.66602 29 -18.999 29h-30c-15.333 0 -26 -10 -32 -30l-16 -56h-107l16 53
c12.667 46 31.5 79.667 56.5 101s57.5 32 97.5 32h47c42.667 0 73 -13.333 91 -40s20.667 -62 8 -106l-117 -409h-86v56c-33.333 -40.667 -66.333 -61 -99 -61h-10zM125.998 102h29c14.667 0 25 10 31 30l33 117l-66 -29c-16 -6.66699 -27.333 -21 -34 -43l-14 -46
c-4.66699 -19.333 2.33301 -29 21 -29zM180.998 -155v120h68l36 -120h-104z" />
    <glyph glyph-name="Cacute" unicode="&#x106;" horiz-adv-x="449" 
d="M382 855h120l-105 -120h-91zM136 -5c-52.667 0 -88.667 16.333 -108 49s-22 73.667 -8 123l109 383c16 55.333 38 95 66 119s65 36 111 36h55c52.667 0 88.667 -16.333 108 -49s22 -73.667 8 -123l-35 -123h-122l41 142c6.66699 24.667 -2.33301 37 -27 37h-40
c-11.333 0 -19.833 -3.16699 -25.5 -9.5s-10.5 -16.166 -14.5 -29.499l-115 -402c-6.66699 -24.667 2.33301 -37 27 -37h40c11.333 0 19.833 3.16699 25.5 9.5s10.5 16.166 14.5 29.499l37 130h123l-37 -130c-16 -55.333 -38 -95 -66 -119s-65 -36 -111 -36h-56z" />
    <glyph glyph-name="cacute" unicode="&#x107;" horiz-adv-x="410" 
d="M307 705h120l-105 -120h-91zM324 128c-13.333 -46 -32.334 -79.667 -57.001 -101s-57 -32 -97 -32h-64c-42.667 0 -73 13.5 -91 40.5s-20.667 62.167 -8 105.5l81 281c12.667 46 31.5 79.667 56.5 101s57.5 32 97.5 32h63c42.667 0 73 -13.5 91 -40.5
s20.667 -62.167 8 -105.5l-27 -94h-118l30 105c6 19.333 -1 29 -21 29h-30c-15.333 0 -25.666 -10 -30.999 -30l-83 -289c-6 -19.333 1 -29 21 -29h31c14.667 0 24.667 10 30 30l27 94h118z" />
    <glyph glyph-name="Cdotaccent" unicode="&#x10a;" horiz-adv-x="449" 
d="M450 855l-34 -120h-120l34 120h120zM136 -5c-52.667 0 -88.667 16.333 -108 49s-22 73.667 -8 123l109 383c16 55.333 38 95 66 119s65 36 111 36h55c52.667 0 88.667 -16.333 108 -49s22 -73.667 8 -123l-35 -123h-122l41 142c6.66699 24.667 -2.33301 37 -27 37h-40
c-11.333 0 -19.833 -3.16699 -25.5 -9.5s-10.5 -16.166 -14.5 -29.499l-115 -402c-6.66699 -24.667 2.33301 -37 27 -37h40c11.333 0 19.833 3.16699 25.5 9.5s10.5 16.166 14.5 29.499l37 130h123l-37 -130c-16 -55.333 -38 -95 -66 -119s-65 -36 -111 -36h-56z" />
    <glyph glyph-name="cdotaccent" unicode="&#x10b;" horiz-adv-x="410" 
d="M375 705l-34 -120h-120l34 120h120zM324 128c-13.333 -46 -32.334 -79.667 -57.001 -101s-57 -32 -97 -32h-64c-42.667 0 -73 13.5 -91 40.5s-20.667 62.167 -8 105.5l81 281c12.667 46 31.5 79.667 56.5 101s57.5 32 97.5 32h63c42.667 0 73 -13.5 91 -40.5
s20.667 -62.167 8 -105.5l-27 -94h-118l30 105c6 19.333 -1 29 -21 29h-30c-15.333 0 -25.666 -10 -30.999 -30l-83 -289c-6 -19.333 1 -29 21 -29h31c14.667 0 24.667 10 30 30l27 94h118z" />
    <glyph glyph-name="Ccaron" unicode="&#x10c;" horiz-adv-x="449" 
d="M314 735l-65 120h94l25 -61l59 61h105l-133 -120h-85zM361 705c52.667 0 88.667 -16.333 108 -49s22 -73.667 8 -123l-35 -123h-122l41 142c6.66699 24.667 -2.33301 37 -27 37h-40c-11.333 0 -19.833 -3.16699 -25.5 -9.5s-10.5 -16.166 -14.5 -29.499l-115 -402
c-6.66699 -24.667 2.33301 -37 27 -37h40c11.333 0 19.833 3.16699 25.5 9.5s10.5 16.166 14.5 29.499l37 130h123l-37 -130c-16 -55.333 -38 -95 -66 -119s-65 -36 -111 -36h-56c-52.667 0 -88.667 16.333 -108 49s-22 73.667 -8 123l109 383c16 55.333 38 95 66 119
s65 36 111 36h55z" />
    <glyph glyph-name="ccaron" unicode="&#x10d;" horiz-adv-x="410" 
d="M239 585l-65 120h94l25 -61l59 61h105l-133 -120h-85zM305 555c42.667 0 72.999 -13.5 90.999 -40.5s20.667 -62.167 8 -105.5l-27 -94h-118l30 105c6 19.333 -1 29 -21 29h-30c-15.333 0 -25.666 -10 -30.999 -30l-83 -289c-6 -19.333 1 -29 21 -29h31
c14.667 0 24.667 10 30 30l27 94h118l-27 -97c-13.333 -46 -32.333 -79.667 -57 -101s-57 -32 -97 -32h-64c-42.667 0 -73 13.5 -91 40.5s-20.667 62.167 -8 105.5l81 281c12.667 46 31.5 79.667 56.5 101s57.5 32 97.5 32h63z" />
    <glyph glyph-name="Dcaron" unicode="&#x10e;" horiz-adv-x="469" 
d="M287 735l-65 120h94l25 -61l59 61h105l-133 -120h-85zM376 700c52.667 0 88.667 -16.333 108 -49s22 -73.667 8 -123l-107 -373c-16 -55.333 -38 -95 -66 -119s-65 -36 -111 -36h-231l200 700h199zM373 547c6.66699 24.667 -2.33301 37.001 -27 37.001h-77l-134 -468h85
c11.333 0 19.833 3.16699 25.5 9.5s10.5 16.166 14.5 29.499z" />
    <glyph glyph-name="dcaron" unicode="&#x10f;" horiz-adv-x="527" 
d="M379 705h120l-201 -705h-88v60c-37.333 -43.333 -74.666 -65 -111.999 -65h-14c-34.667 0 -59.334 13.5 -74.001 40.5s-15.667 62.167 -3 105.5l82 281c24.667 88.667 72.667 133 144 133h4c37.333 0 65.333 -18 84 -54zM660 705l-84 -160h-72l45 160h111zM297 416
c6 19.333 -1 29 -21 29h-39c-14.667 0 -24.667 -10 -30 -30l-81 -281c-4.66699 -19.333 2.33301 -29 21 -29h38c15.333 0 26 10 32 30z" />
    <glyph glyph-name="Dcroat" unicode="&#x110;" horiz-adv-x="479" 
d="M386 700c52.667 0 88.667 -16.333 108 -49s22 -73.667 8 -123l-107 -373c-16 -55.333 -38 -95 -66 -119s-65 -36 -111 -36h-231l88 308h-55l24 84h55l88 308h199zM383 547c6.66699 24.667 -2.33301 37.001 -27 37.001h-77l-55 -192h59l-24 -84h-59l-55 -192h85
c11.333 0 19.833 3.16699 25.5 9.5s10.5 16.166 14.5 29.499z" />
    <glyph glyph-name="dcroat" unicode="&#x111;" horiz-adv-x="426" 
d="M510 568h-50l-162 -568h-88v60c-37.333 -43.333 -74.666 -65 -111.999 -65h-14c-34.667 0 -59.334 13.5 -74.001 40.5s-15.667 62.167 -3 105.5l76 261c25.333 88.667 73.333 133 144 133h4c37.333 0 65.333 -18 84 -54l25 87h-104l24 84h104l15 53h120l-15 -53h50z
M291 396c6 19.333 -1 29 -21 29h-39c-14.667 0 -24.667 -10 -30 -30l-75 -261c-4.66699 -19.333 2.33301 -29 21 -29h38c15.333 0 26 10 32 30z" />
    <glyph glyph-name="Emacron" unicode="&#x112;" horiz-adv-x="370" 
d="M427 750h-210l26 90h210zM414 584h-147l-50 -176h137l-34 -116h-137l-50 -176h147l-33 -116h-270l200 700h270z" />
    <glyph glyph-name="emacron" unicode="&#x113;" horiz-adv-x="410" 
d="M390 600h-210l26 90h210zM305 555c42.667 0 73 -13.5 91 -40.5s20.667 -62.167 8 -105.5l-49 -170h-203l-31 -109c-6 -19.333 1 -29 21 -29h31c14.667 0 24.667 10 30 30l16 54h118l-16 -57c-13.333 -46 -32.333 -79.667 -57 -101s-57 -32 -97 -32h-61
c-42.667 0 -73 13.5 -91 40.5s-20.667 62.167 -8 105.5l81 281c12.667 46 31.5 79.667 56.5 101s57.5 32 97.5 32h63zM179 332h84.999l25 88c6 19.333 -1 29 -21 29h-33c-15.333 0 -25.666 -10 -30.999 -30z" />
    <glyph glyph-name="Edotaccent" unicode="&#x116;" horiz-adv-x="370" 
d="M378 735h-120l34 120h120zM267 584l-50 -176h137l-34 -116h-137l-50 -176h147l-33 -116h-270l200 700h270l-33 -116h-147z" />
    <glyph glyph-name="edotaccent" unicode="&#x117;" horiz-adv-x="410" 
d="M341 585h-120l34 120h120zM305 555c42.667 0 73 -13.5 91 -40.5s20.667 -62.167 8 -105.5l-49 -170h-203l-31 -109c-6 -19.333 1 -29 21 -29h31c14.667 0 24.667 10 30 30l16 54h118l-16 -57c-13.333 -46 -32.333 -79.667 -57 -101s-57 -32 -97 -32h-61
c-42.667 0 -73 13.5 -91 40.5s-20.667 62.167 -8 105.5l81 281c12.667 46 31.5 79.667 56.5 101s57.5 32 97.5 32h63zM179 332h84.999l25 88c6 19.333 -1 29 -21 29h-33c-15.333 0 -25.666 -10 -30.999 -30z" />
    <glyph glyph-name="Eogonek" unicode="&#x118;" horiz-adv-x="370" 
d="M267 584l-50 -176h137l-34 -116h-137l-50 -176h147l-33 -116h-270l200 700h270l-33 -116h-147zM180 -35l36 -120h-104v120h68z" />
    <glyph glyph-name="eogonek" unicode="&#x119;" horiz-adv-x="410" 
d="M305 555c42.667 0 73 -13.5 91 -40.5s20.667 -62.167 8 -105.5l-49 -170h-203l-31 -109c-6 -19.333 1 -29 21 -29h31c14.667 0 24.667 10 30 30l16 54h118l-16 -57c-13.333 -46 -32.333 -79.667 -57 -101s-57 -32 -97 -32h-61c-42.667 0 -73 13.5 -91 40.5
s-20.667 62.167 -8 105.5l81 281c12.667 46 31.5 79.667 56.5 101s57.5 32 97.5 32h63zM179 332h84.999l25 88c6 19.333 -1 29 -21 29h-33c-15.333 0 -25.666 -10 -30.999 -30zM191.999 -35l36 -120h-104v120h68z" />
    <glyph glyph-name="Ecaron" unicode="&#x11a;" horiz-adv-x="370" 
d="M276 735l-65 120h94l25 -61l59 61h105l-133 -120h-85zM414 584h-147l-50 -176h137l-34 -116h-137l-50 -176h147l-33 -116h-270l200 700h270z" />
    <glyph glyph-name="ecaron" unicode="&#x11b;" horiz-adv-x="410" 
d="M239 585l-65 120h94l25 -61l59 61h105l-133 -120h-85zM305 555c42.667 0 73 -13.5 91 -40.5s20.667 -62.167 8 -105.5l-49 -170h-203l-31 -109c-6 -19.333 1 -29 21 -29h31c14.667 0 24.667 10 30 30l16 54h118l-16 -57c-13.333 -46 -32.333 -79.667 -57 -101
s-57 -32 -97 -32h-61c-42.667 0 -73 13.5 -91 40.5s-20.667 62.167 -8 105.5l81 281c12.667 46 31.5 79.667 56.5 101s57.5 32 97.5 32h63zM179 332h84.999l25 88c6 19.333 -1 29 -21 29h-33c-15.333 0 -25.666 -10 -30.999 -30z" />
    <glyph glyph-name="Gbreve" unicode="&#x11e;" horiz-adv-x="465" 
d="M327 745c-30.667 0 -51.667 9.5 -63 28.5s-12.666 43.167 -3.99902 72.5l2 9h83l-5 -20c-2.66699 -8 -2.83398 -13.667 -0.500977 -17s7.5 -5 15.5 -5h25c11.333 0 19 7.66699 23 23l5 19h83l-5 -19c-15.333 -60.667 -50 -91 -104 -91h-55zM136 -5
c-52.667 0 -88.666 16.332 -107.999 48.999s-22 73.667 -8 123l109 383c16 55.333 38 95 66 119s65 36 111 36h55c52.667 0 88.667 -16.333 108 -49s22 -73.667 8 -123l-24 -85h-120l31 104c6.66699 24.667 -2.33301 37 -27 37h-43c-11.333 0 -19.833 -3.16699 -25.5 -9.5
s-10.5 -16.166 -14.5 -29.499l-115 -402c-6.66699 -24.667 2.33301 -37 27 -37h43c25.333 0 41.666 13 48.999 39l28 97h-58l32 113h175l-103 -360h-80l1 67c-32.667 -48 -71 -72 -115 -72h-2z" />
    <glyph glyph-name="gbreve" unicode="&#x11f;" horiz-adv-x="427" 
d="M274 595c-30.667 0 -51.667 9.5 -63 28.5s-12.666 43.167 -3.99902 72.5l2 9h83l-5 -20c-2.66699 -8 -2.83398 -13.667 -0.500977 -17s7.5 -5 15.5 -5h25c11.333 0 19 7.66699 23 23l5 19h83l-5 -19c-15.333 -60.667 -50 -91 -104 -91h-55zM455 550l-162.998 -572
c-13.333 -46 -32.333 -79.667 -57 -101s-57 -32 -97 -32h-68c-42 0 -72 13.333 -90 40s-21 62 -9 106l5 16h114l-8 -27c-4.66699 -19.333 2.33301 -29 21 -29h39c14.667 0 25 10 31 30l35 123c-33.333 -39.333 -66 -59 -98 -59h-12c-34.667 0 -58.834 13.5 -72.501 40.5
s-14.834 62.167 -3.50098 105.5l66 231c10.667 41.333 28 73.833 52 97.5s54.333 35.5 91 35.5h4c42.667 0 74.667 -21.667 96 -65l37 60h87zM297.002 416c6 19.333 -1.00098 29 -21.001 29h-39c-15.333 0 -25.666 -10 -30.999 -30l-66 -231c-6 -19.333 0.666992 -29 20 -29
h40c14.667 0 25 10 31 30z" />
    <glyph glyph-name="Gdotaccent" unicode="&#x120;" horiz-adv-x="465" 
d="M402 735h-120l34 120h120zM361 705c52.667 0 88.668 -16.334 108.001 -49.001s22 -73.667 8 -123l-24 -85h-120l31 104c6.66699 24.667 -2.33301 37 -27 37h-43c-11.333 0 -19.833 -3.16699 -25.5 -9.5s-10.5 -16.166 -14.5 -29.499l-115 -402
c-6.66699 -24.667 2.33301 -37 27 -37h43c25.333 0 41.666 13 48.999 39l28 97h-58l32 113h175l-103 -360h-80l1 67c-32.667 -48 -71 -72 -115 -72h-2c-52.667 0 -88.667 16.333 -108 49s-22 73.667 -8 123l109 383c16 55.333 38 95 66 119s65 36 111 36h55z" />
    <glyph glyph-name="gdotaccent" unicode="&#x121;" horiz-adv-x="427" 
d="M349 585h-120l34 120h120zM455 550l-162.998 -572c-13.333 -46 -32.333 -79.667 -57 -101s-57 -32 -97 -32h-68c-42 0 -72 13.333 -90 40s-21 62 -9 106l5 16h114l-8 -27c-4.66699 -19.333 2.33301 -29 21 -29h39c14.667 0 25 10 31 30l35 123
c-33.333 -39.333 -66 -59 -98 -59h-12c-34.667 0 -58.834 13.5 -72.501 40.5s-14.834 62.167 -3.50098 105.5l66 231c10.667 41.333 28 73.833 52 97.5s54.333 35.5 91 35.5h4c42.667 0 74.667 -21.667 96 -65l37 60h87zM297.002 416c6 19.333 -1.00098 29 -21.001 29h-39
c-15.333 0 -25.666 -10 -30.999 -30l-66 -231c-6 -19.333 0.666992 -29 20 -29h40c14.667 0 25 10 31 30z" />
    <glyph glyph-name="uni0122" unicode="&#x122;" horiz-adv-x="465" 
d="M361 705c52.667 0 88.668 -16.334 108.001 -49.001s22 -73.667 8 -123l-24 -85h-120l31 104c6.66699 24.667 -2.33301 37 -27 37h-43c-11.333 0 -19.833 -3.16699 -25.5 -9.5s-10.5 -16.166 -14.5 -29.499l-115 -402c-6.66699 -24.667 2.33301 -37 27 -37h43
c25.333 0 41.666 13 48.999 39l28 97h-58l32 113h175l-103 -360h-80l1 67c-32.667 -48 -71 -72 -115 -72h-2c-52.667 0 -88.667 16.333 -108 49s-22 73.667 -8 123l109 383c16 55.333 38 95 66 119s65 36 111 36h55zM91.001 -35.001h104l-36 -120h-68v120z" />
    <glyph glyph-name="uni0123" unicode="&#x123;" horiz-adv-x="427" 
d="M367 586h-104l70 120h68zM455 550l-162.998 -572c-13.333 -46 -32.333 -79.667 -57 -101s-57 -32 -97 -32h-68c-42 0 -72 13.333 -90 40s-21 62 -9 106l5 16h114l-8 -27c-4.66699 -19.333 2.33301 -29 21 -29h39c14.667 0 25 10 31 30l35 123
c-33.333 -39.333 -66 -59 -98 -59h-12c-34.667 0 -58.834 13.5 -72.501 40.5s-14.834 62.167 -3.50098 105.5l66 231c10.667 41.333 28 73.833 52 97.5s54.333 35.5 91 35.5h4c42.667 0 74.667 -21.667 96 -65l37 60h87zM297.002 416c6 19.333 -1.00098 29 -21.001 29h-39
c-15.333 0 -25.666 -10 -30.999 -30l-66 -231c-6 -19.333 0.666992 -29 20 -29h40c14.667 0 25 10 31 30z" />
    <glyph glyph-name="Hbar" unicode="&#x126;" horiz-adv-x="490" 
d="M550 518h-55l-148 -518h-125l83 292h-110l-83 -292h-125l148 518h-55l24 84h55l28 98h125l-28 -98h110l28 98h125l-28 -98h55zM370 518h-110l-31 -110h110z" />
    <glyph glyph-name="hbar" unicode="&#x127;" horiz-adv-x="425" 
d="M336 535c34.667 0 59.168 -13.5 73.501 -40.5s15.166 -62.167 2.49902 -105.5l-110 -389h-120l112 396c6 19.333 -1 29 -21 29h-39c-15.333 0 -25.666 -10 -30.999 -30l-111 -395h-120l162 568h-50l24 84h50l15 53h120l-15 -53h104l-24 -84h-105l-27 -91
c33.333 38.667 65.666 58 96.999 58h13z" />
    <glyph glyph-name="Imacron" unicode="&#x12a;" horiz-adv-x="235" 
d="M385 840l-26 -90h-210l26 90h210zM302 700l-200 -700h-125l200 700h125z" />
    <glyph glyph-name="imacron" unicode="&#x12b;" horiz-adv-x="220" 
d="M334 690l-26 -90h-210l26 90h210zM249 550l-157 -550h-120l157 550h120z" />
    <glyph glyph-name="Iogonek" unicode="&#x12e;" horiz-adv-x="235" 
d="M302 700l-200 -700h-125l200 700h125zM-23 -155v120h68l36 -120h-104z" />
    <glyph glyph-name="iogonek" unicode="&#x12f;" horiz-adv-x="211" 
d="M293 705l-34 -120h-120l34 120h120zM249 550l-157 -550h-120l157 550h120zM-27 -155v120h68l36 -120h-104z" />
    <glyph glyph-name="Idotaccent" unicode="&#x130;" horiz-adv-x="235" 
d="M344 855l-34 -120h-120l34 120h120zM302 700l-200 -700h-125l200 700h125z" />
    <glyph glyph-name="dotlessi" unicode="&#x131;" horiz-adv-x="220" 
d="M249 550l-157 -550h-120l157 550h120z" />
    <glyph glyph-name="uni0136" unicode="&#x136;" horiz-adv-x="448" 
d="M339 360l10 -360h-125l-1 292h-38l-83 -292h-125l200 700h125l-83 -292h23l170 292h128zM93 -35h104l-36 -120h-68v120z" />
    <glyph glyph-name="uni0137" unicode="&#x137;" horiz-adv-x="408" 
d="M298 276l7 -276h-118v220h-32l-63 -220h-120l202 705h120l-107 -375h24l131 220h118zM65 -35h104l-36 -120h-68v120z" />
    <glyph glyph-name="Lacute" unicode="&#x139;" horiz-adv-x="355" 
d="M296 735h-91l76 120h120zM302 700l-167 -584h155l-33 -116h-280l200 700h125z" />
    <glyph glyph-name="lacute" unicode="&#x13a;" horiz-adv-x="221" 
d="M269 860h120l-105 -120h-91zM293 705l-201 -705h-120l201 705h120z" />
    <glyph glyph-name="uni013B" unicode="&#x13b;" horiz-adv-x="355" 
d="M135 116h155l-33 -116h-280l200 700h125zM59 -35h104l-36 -120h-68v120z" />
    <glyph glyph-name="uni013C" unicode="&#x13c;" horiz-adv-x="221" 
d="M293 705l-201 -705h-120l201 705h120zM28 -155h-68v120h104z" />
    <glyph glyph-name="Lcaron" unicode="&#x13d;" horiz-adv-x="355" 
d="M302 700l-167 -584h155l-33 -116h-280l200 700h125zM463 700l-84 -160h-72l45 160h111z" />
    <glyph glyph-name="lcaron" unicode="&#x13e;" horiz-adv-x="321" 
d="M294 705l-201 -705h-120l201 705h120zM371 545h-72l45 160h111z" />
    <glyph glyph-name="Lslash" unicode="&#x141;" horiz-adv-x="355" 
d="M189 305l-54 -189h155l-33 -116h-280l66 232l-63 -32l28 102l65 32l104 366h125l-84 -293l130 65l-28 -102z" />
    <glyph glyph-name="lslash" unicode="&#x142;" horiz-adv-x="240" 
d="M297 438l-81 -36l-114 -402h-120l97 339l-69 -31l24 84l69 31l80 282h120l-63 -220l81 37z" />
    <glyph glyph-name="Nacute" unicode="&#x143;" horiz-adv-x="485" 
d="M393 855h120l-105 -120h-91zM182 700h115l20 -397h5l46 187l60 210h119l-200 -700h-115l-20 397h-5l-46 -187l-60 -210h-119z" />
    <glyph glyph-name="nacute" unicode="&#x144;" horiz-adv-x="425" 
d="M332 585h-91l76 120h120zM342 555c34.667 0 59.332 -13.5 73.999 -40.5s15.667 -62.167 3 -105.5l-117 -409h-120l119 416c6 19.333 -1 29 -21 29h-38c-15.333 0 -25.666 -10 -30.999 -30l-119 -415h-120l157 550h86v-60c38 43.333 75.667 65 113 65h14z" />
    <glyph glyph-name="uni0145" unicode="&#x145;" horiz-adv-x="485" 
d="M182 700h115l20 -397h5l46 187l60 210h119l-200 -700h-115l-20 397h-5l-46 -187l-60 -210h-119zM174 -155h-68v120h104z" />
    <glyph glyph-name="uni0146" unicode="&#x146;" horiz-adv-x="425" 
d="M342 555c34.667 0 59.332 -13.5 73.999 -40.5s15.667 -62.167 3 -105.5l-117 -409h-120l119 416c6 19.333 -1 29 -21 29h-38c-15.333 0 -25.666 -10 -30.999 -30l-119 -415h-120l157 550h86v-60c38 43.333 75.667 65 113 65h14zM64.998 -35h104l-36 -120h-68v120z" />
    <glyph glyph-name="Ncaron" unicode="&#x147;" horiz-adv-x="485" 
d="M325 735l-65 120h94l25 -61l59 61h105l-133 -120h-85zM547 700l-200 -700h-115l-20 397h-5l-46 -187l-60 -210h-119l200 700h115l20 -397h5l46 187l60 210h119z" />
    <glyph glyph-name="ncaron" unicode="&#x148;" horiz-adv-x="425" 
d="M249 585l-65 120h94l25 -61l59 61h105l-133 -120h-85zM342 555c34.667 0 59.332 -13.5 73.999 -40.5s15.667 -62.167 3 -105.5l-117 -409h-120l119 416c6 19.333 -1 29 -21 29h-38c-15.333 0 -25.666 -10 -30.999 -30l-119 -415h-120l157 550h86v-60
c38 43.333 75.667 65 113 65h14z" />
    <glyph glyph-name="Eng" unicode="&#x14a;" horiz-adv-x="485" 
d="M182 700h115l20 -397h5l46 187l60 210h119l-206 -722c-13.333 -46 -32.333 -79.667 -57 -101s-57 -32 -97 -32h-69l31 110h43c14.667 0 25 10 31 30l8 30l-19 382h-5l-46 -187l-60 -210h-119z" />
    <glyph glyph-name="eng" unicode="&#x14b;" horiz-adv-x="425" 
d="M129 550h85.998v-60c37.333 43.333 75 65 113 65h14c34.667 0 59.334 -13.5 74.001 -40.5s15.667 -62.167 3 -105.5l-123 -431c-13.333 -46 -32.333 -79.667 -57 -101s-57 -32 -97 -32h-69l31 110h43c14.667 0 25 10 31 30l123 431c6 19.333 -1 29 -21 29h-38
c-15.333 0 -25.666 -10 -30.999 -30l-119 -415h-120z" />
    <glyph glyph-name="Omacron" unicode="&#x14c;" horiz-adv-x="466" 
d="M500 840l-26 -90h-210l26 90h210zM381 150c-16 -55.333 -38 -95 -66 -119s-65 -36 -111 -36h-68c-52.667 0 -88.667 16.333 -108 49s-22 73.667 -8 123l109 383c16 55.333 38 95 66 119s65 36 111 36h68c52.667 0 88.667 -16.333 108 -49s22 -73.667 8 -123zM371 552
c6.66699 24.667 -2.33301 37 -27 37h-50c-11.333 0 -19.833 -3.16699 -25.5 -9.5s-10.5 -16.166 -14.5 -29.499l-115 -402c-6.66699 -24.667 2.33301 -37 27 -37h50c11.333 0 19.833 3.16699 25.5 9.5s10.5 16.166 14.5 29.499z" />
    <glyph glyph-name="omacron" unicode="&#x14d;" horiz-adv-x="415" 
d="M434 690l-26 -90h-210l26 90h210zM106 -5c-42.667 0 -73 13.5 -91 40.5s-20.667 62.167 -8 105.5l81 281c12.667 46 31.5 79.667 56.5 101s57.5 32 97.5 32h73c42.667 0 73 -13.5 91 -40.5s20.667 -62.167 8 -105.5l-80 -281c-13.333 -46 -32.333 -79.667 -57 -101
s-57 -32 -97 -32h-74zM184 101c14.667 0 24.666 10 29.999 30l83 289c6 19.333 -1 29 -21 29h-38c-15.333 0 -25.666 -10 -30.999 -30l-83 -289c-6 -19.333 1 -29 21 -29h39z" />
    <glyph glyph-name="Ohungarumlaut" unicode="&#x150;" horiz-adv-x="466" 
d="M310 855h120l-105 -120h-91zM450 855h120l-105 -120h-91zM381 150c-16 -55.333 -38 -95 -66 -119s-65 -36 -111 -36h-68c-52.667 0 -88.667 16.333 -108 49s-22 73.667 -8 123l109 383c16 55.333 38 95 66 119s65 36 111 36h68c52.667 0 88.667 -16.333 108 -49
s22 -73.667 8 -123zM371 552c6.66699 24.667 -2.33301 37 -27 37h-50c-11.333 0 -19.833 -3.16699 -25.5 -9.5s-10.5 -16.166 -14.5 -29.499l-115 -402c-6.66699 -24.667 2.33301 -37 27 -37h50c11.333 0 19.833 3.16699 25.5 9.5s10.5 16.166 14.5 29.499z" />
    <glyph glyph-name="ohungarumlaut" unicode="&#x151;" horiz-adv-x="415" 
d="M244 705h120l-105 -120h-91zM384 705h120l-105 -120h-91zM106 -5c-42.667 0 -73 13.5 -91 40.5s-20.667 62.167 -8 105.5l81 281c12.667 46 31.5 79.667 56.5 101s57.5 32 97.5 32h73c42.667 0 73 -13.5 91 -40.5s20.667 -62.167 8 -105.5l-80 -281
c-13.333 -46 -32.333 -79.667 -57 -101s-57 -32 -97 -32h-74zM184 101c14.667 0 24.666 10 29.999 30l83 289c6 19.333 -1 29 -21 29h-38c-15.333 0 -25.666 -10 -30.999 -30l-83 -289c-6 -19.333 1 -29 21 -29h39z" />
    <glyph glyph-name="OE" unicode="&#x152;" horiz-adv-x="585" 
d="M492 584l-50 -176h127l-34 -116h-127l-50 -176h137l-33 -116h-325c-52.667 -0 -88.667 16.333 -108 49s-22 73.667 -8 123l107 373c16 55.333 38 95 66 119s65 36 111 36h357l-33 -116h-137zM235 116l134 467.999h-76c-11.333 0 -19.833 -3.16699 -25.5 -9.5
s-10.5 -16.166 -14.5 -29.499l-113 -392c-6.66699 -24.667 2.33301 -37 27 -37h68z" />
    <glyph glyph-name="oe" unicode="&#x153;" horiz-adv-x="620" 
d="M106 -5c-42.667 0 -73.001 13.5 -91.001 40.5s-20.667 62.167 -8 105.5l81 281c12.667 46 31.5 79.667 56.5 101s57.5 32 97.5 32h53c36 0 57.333 -19.667 64 -59c26.667 39.333 65 59 115 59h41c42.667 0 73 -13.5 91 -40.5s20.667 -62.167 8 -105.5l-49 -170h-203
l-31 -109c-6 -19.333 1 -29 21 -29h31c14.667 0 24.667 10 30 30l16 54h118l-16 -57c-13.333 -46 -32.333 -79.667 -57 -101s-57 -32 -97 -32h-41c-49.333 0 -80.333 20 -93 60c-21.333 -40 -51.666 -60 -90.999 -60h-46zM144.999 101h38.999c14.667 0 24.667 10 30 30
l83 289c6 19.333 -1 29 -21 29h-38c-15.333 0 -25.666 -10 -30.999 -30l-83 -289c-6 -19.333 1 -29 21 -29zM388.998 332h84.999l25 88c6 19.333 -1 29 -21 29h-33c-15.333 0 -25.666 -10 -30.999 -30z" />
    <glyph glyph-name="Racute" unicode="&#x154;" horiz-adv-x="445" 
d="M265 735l76 120h120l-105 -120h-91zM-23 0l200 700h181c52 0 87.833 -16.5 107.5 -49.5s22.5 -73.833 8.5 -122.5l-28 -97c-22 -75.333 -58.667 -123 -110 -143l6 -288h-122l-2 276h-37l-79 -276h-125zM213 388l67 0.000976562c11.333 0 19.833 3.16699 25.5 9.5
s10.5 16.166 14.5 29.499l36 124c6.66699 24.667 -2.33301 37 -27 37h-59z" />
    <glyph glyph-name="racute" unicode="&#x155;" horiz-adv-x="378" 
d="M322 585h-91l76 120h120zM332 555c32.667 0 55 -12.167 67 -36.5s11.333 -60.833 -2 -109.5l-30 -106h-116l32 113c6 19.333 -1 29 -21 29h-21c-14.667 0 -24.667 -10 -30 -30l-119 -415h-120l157 550h87v-60c37.333 43.333 74 65 110 65h6z" />
    <glyph glyph-name="uni0156" unicode="&#x156;" horiz-adv-x="445" 
d="M-23 0l200 700h181c52 0 87.833 -16.5 107.5 -49.5s22.5 -73.833 8.5 -122.5l-28 -97c-22 -75.333 -58.667 -123 -110 -143l6 -288h-122l-2 276h-37l-79 -276h-125zM213 388l67 0.000976562c11.333 0 19.833 3.16699 25.5 9.5s10.5 16.166 14.5 29.499l36 124
c6.66699 24.667 -2.33301 37 -27 37h-59zM96 -154.999v120h104l-36 -120h-68z" />
    <glyph glyph-name="uni0157" unicode="&#x157;" horiz-adv-x="378" 
d="M332 555c32.667 0 55 -12.167 67 -36.5s11.333 -60.833 -2 -109.5l-30 -106h-116l32 113c6 19.333 -1 29 -21 29h-21c-14.667 0 -24.667 -10 -30 -30l-119 -415h-120l157 550h87v-60c37.333 43.333 74 65 110 65h6zM-40 -35h104l-36 -120h-68v120z" />
    <glyph glyph-name="Rcaron" unicode="&#x158;" horiz-adv-x="445" 
d="M273 735l-65 120h94l25 -61l59 61h105l-133 -120h-85zM-23 0l200 700h181c52 0 87.833 -16.5 107.5 -49.5s22.5 -73.833 8.5 -122.5l-28 -97c-22 -75.333 -58.667 -123 -110 -143l6 -288h-122l-2 276h-37l-79 -276h-125zM213 388l67 0.000976562
c11.333 0 19.833 3.16699 25.5 9.5s10.5 16.166 14.5 29.499l36 124c6.66699 24.667 -2.33301 37 -27 37h-59z" />
    <glyph glyph-name="rcaron" unicode="&#x159;" horiz-adv-x="378" 
d="M239 585l-65 120h94l25 -61l59 61h105l-133 -120h-85zM332 555c32.667 0 55 -12.167 67 -36.5s11.333 -60.833 -2 -109.5l-30 -106h-116l32 113c6 19.333 -1 29 -21 29h-21c-14.667 0 -24.667 -10 -30 -30l-119 -415h-120l157 550h87v-60c37.333 43.333 74 65 110 65h6z
" />
    <glyph glyph-name="Sacute" unicode="&#x15a;" horiz-adv-x="423" 
d="M354 855h120l-105 -120h-91zM121 -5c-52.667 0 -88.668 16.333 -108.001 49s-22 73.667 -8 123l22 77h124l-28 -96c-6.66699 -24.667 2.33301 -37 27 -37h38c11.333 0 19.833 3.16699 25.5 9.5s10.5 16.166 14.5 29.499l8 30c0.666992 2 1.66699 5.66699 3 11
s2.16602 9 2.49902 11s1 5.33301 2 10s1.33301 8 1 10s-0.666016 5 -0.999023 9s-1.16602 7.33301 -2.49902 10s-3 5.83398 -5 9.50098s-4.33301 7.16699 -7 10.5l-92 111c-35.333 42 -46 89 -32 141l10 37c14.667 54 36.334 93.333 65.001 118s66 37 112 37h44
c52.667 0 88.667 -16.333 108 -49s22 -73.667 8 -123l-22 -78h-124l29 97c6.66699 24.667 -2.33301 37 -27 37h-28c-11.333 0 -19.833 -3.16699 -25.5 -9.5s-10.5 -16.166 -14.5 -29.499l-9 -30c-6.66699 -16.667 -9.66699 -31.334 -9 -44.001s6.66699 -25.667 18 -39
l90 -112c37.333 -46.667 47.666 -96 30.999 -148l-8 -27c-16 -55.333 -38 -95 -66 -119s-65 -36 -111 -36h-55z" />
    <glyph glyph-name="sacute" unicode="&#x15b;" horiz-adv-x="366" 
d="M300 705h120l-105 -120h-91zM86 -5c-41.333 0 -70.835 13.4971 -88.502 40.4971s-20.167 62.167 -7.5 105.5l17 59h113l-21 -74c-6 -19.333 1 -29 21 -29h24c14.667 0 24.667 10 30 30l6 19c4.66699 11.333 6.83398 22.833 6.50098 34.5s-4.83301 21.834 -13.5 30.501
l-77 82c-31.333 33.333 -40 74 -26 122l4 15c11.333 39.333 29.833 70 55.5 92s56.5 33 92.5 33h50c41.333 0 70.833 -13.5 88.5 -40.5s20.167 -62.167 7.5 -105.5l-17 -59h-113l21 75c6 19.333 -0.666992 29 -20 29h-21c-17.333 0 -28.666 -10 -33.999 -30l-7 -24
c-4 -13.333 -5 -23.666 -3 -30.999s8 -16.666 18 -27.999l75 -81c18.667 -20.667 29.667 -42.167 33 -64.5s0.333008 -48.5 -9 -78.5l-2 -9c-9.33301 -33.333 -26.833 -60.5 -52.5 -81.5s-57.5 -31.5 -95.5 -31.5h-55z" />
    <glyph glyph-name="Scedilla" unicode="&#x15e;" horiz-adv-x="423" 
d="M121 -5c-52.667 0 -88.668 16.333 -108.001 49s-22 73.667 -8 123l22 77h124l-28 -96c-6.66699 -24.667 2.33301 -37 27 -37h38c11.333 0 19.833 3.16699 25.5 9.5s10.5 16.166 14.5 29.499l8 30c0.666992 2 1.66699 5.66699 3 11s2.16602 9 2.49902 11s1 5.33301 2 10
s1.33301 8 1 10s-0.666016 5 -0.999023 9s-1.16602 7.33301 -2.49902 10s-3 5.83398 -5 9.50098s-4.33301 7.16699 -7 10.5l-92 111c-35.333 42 -46 89 -32 141l10 37c14.667 54 36.334 93.333 65.001 118s66 37 112 37h44c52.667 0 88.667 -16.333 108 -49
s22 -73.667 8 -123l-22 -78h-124l29 97c6.66699 24.667 -2.33301 37 -27 37h-28c-11.333 0 -19.833 -3.16699 -25.5 -9.5s-10.5 -16.166 -14.5 -29.499l-9 -30c-6.66699 -16.667 -9.66699 -31.334 -9 -44.001s6.66699 -25.667 18 -39l90 -112
c37.333 -46.667 47.666 -96 30.999 -148l-8 -27c-16 -55.333 -38 -95 -66 -119s-65 -36 -111 -36h-55zM104.999 -35h68v-120h-104z" />
    <glyph glyph-name="scedilla" unicode="&#x15f;" horiz-adv-x="366" 
d="M86 -5c-41.333 0 -70.835 13.4971 -88.502 40.4971s-20.167 62.167 -7.5 105.5l17 59h113l-21 -74c-6 -19.333 1 -29 21 -29h24c14.667 0 24.667 10 30 30l6 19c4.66699 11.333 6.83398 22.833 6.50098 34.5s-4.83301 21.834 -13.5 30.501l-77 82
c-31.333 33.333 -40 74 -26 122l4 15c11.333 39.333 29.833 70 55.5 92s56.5 33 92.5 33h50c41.333 0 70.833 -13.5 88.5 -40.5s20.167 -62.167 7.5 -105.5l-17 -59h-113l21 75c6 19.333 -0.666992 29 -20 29h-21c-17.333 0 -28.666 -10 -33.999 -30l-7 -24
c-4 -13.333 -5 -23.666 -3 -30.999s8 -16.666 18 -27.999l75 -81c18.667 -20.667 29.667 -42.167 33 -64.5s0.333008 -48.5 -9 -78.5l-2 -9c-9.33301 -33.333 -26.833 -60.5 -52.5 -81.5s-57.5 -31.5 -95.5 -31.5h-55zM71.998 -35.0029h68v-120h-104z" />
    <glyph glyph-name="Scaron" unicode="&#x160;" horiz-adv-x="423" 
d="M286 735l-65 120h94l25 -61l59 61h105l-133 -120h-85zM336 705c52.667 0 88.666 -16.333 107.999 -49s22 -73.667 8 -123l-22 -78h-124l29 97c6.66699 24.667 -2.33301 37 -27 37h-28c-11.333 0 -19.833 -3.16699 -25.5 -9.5s-10.5 -16.166 -14.5 -29.499l-9 -30
c-6.66699 -16.667 -9.66699 -31.334 -9 -44.001s6.66699 -25.667 18 -39l90 -112c37.333 -46.667 47.666 -96 30.999 -148l-8 -27c-16 -55.333 -38 -95 -66 -119s-65 -36 -111 -36h-55c-52.667 0 -88.667 16.333 -108 49s-22 73.667 -8 123l22 77h124l-28 -96
c-6.66699 -24.667 2.33301 -37 27 -37h38c11.333 0 19.833 3.16699 25.5 9.5s10.5 16.166 14.5 29.499l8 30c0.666992 2 1.66699 5.66699 3 11s2.16602 9 2.49902 11s1 5.33301 2 10s1.33301 8 1 10s-0.666016 5 -0.999023 9s-1.16602 7.33301 -2.49902 10
s-3 5.83398 -5 9.50098s-4.33301 7.16699 -7 10.5l-92 111c-35.333 42 -46 89 -32 141l10 37c14.667 54 36.334 93.333 65.001 118s66 37 112 37h44z" />
    <glyph glyph-name="scaron" unicode="&#x161;" horiz-adv-x="366" 
d="M232 585l-65 120h94l25 -61l59 61h105l-133 -120h-85zM272 555c41.333 0 70.8311 -13.5029 88.498 -40.5029s20.167 -62.167 7.5 -105.5l-17 -59h-113l21 75c6 19.333 -0.666992 29 -20 29h-21c-17.333 0 -28.666 -10 -33.999 -30l-7 -24
c-4 -13.333 -5 -23.666 -3 -30.999s8 -16.666 18 -27.999l75 -81c18.667 -20.667 29.667 -42.167 33 -64.5s0.333008 -48.5 -9 -78.5l-2 -9c-9.33301 -33.333 -26.833 -60.5 -52.5 -81.5s-57.5 -31.5 -95.5 -31.5h-55c-41.333 0 -70.833 13.5 -88.5 40.5
s-20.167 62.167 -7.5 105.5l17 59h113l-21 -74c-6 -19.333 1 -29 21 -29h24c14.667 0 24.667 10 30 30l6 19c4.66699 11.333 6.83398 22.833 6.50098 34.5s-4.83301 21.834 -13.5 30.501l-77 82c-31.333 33.333 -40 74 -26 122l4 15c11.333 39.333 29.833 70 55.5 92
s56.5 33 92.5 33h50z" />
    <glyph glyph-name="uni0162" unicode="&#x162;" horiz-adv-x="395" 
d="M464 584h-115l-167 -584h-125l167 584h-115l33 116h355zM48 -35h68v-120h-104z" />
    <glyph glyph-name="uni0163" unicode="&#x163;" horiz-adv-x="301" 
d="M162 139c-6 -19.333 1 -29 21 -29h56l-31 -110h-65c-42.667 0 -73 13.5 -91 40.5s-20.667 62.167 -8 105.5l84 294h-70l31 110h70l62 96h86l-27 -96h85l-31 -110h-86zM79 -35h68v-120h-104z" />
    <glyph glyph-name="Tcaron" unicode="&#x164;" horiz-adv-x="395" 
d="M288 735l-65 120h94l25 -61l59 61h105l-133 -120h-85zM464 584h-115l-167 -584h-125l167 584h-115l33 116h355z" />
    <glyph glyph-name="tcaron" unicode="&#x165;" horiz-adv-x="369" 
d="M418 545h-54l-30 -105h-86l-86 -301c-6 -19.333 1 -29 21 -29h56l-31 -110h-65c-42.667 0 -73 13.5 -91 40.5s-20.667 62.167 -8 105.5l84 294h-70l31 110h70l62 96h86l-27 -96h67l44 155h111z" />
    <glyph glyph-name="Tbar" unicode="&#x166;" horiz-adv-x="395" 
d="M349 584l-55 -192h85l-24 -84h-85l-88 -308h-125l88 308h-85l24 84h85l55 192h-115l33 116h355l-33 -116h-115z" />
    <glyph glyph-name="tbar" unicode="&#x167;" horiz-adv-x="306" 
d="M248 440l-35 -123h90l-24 -84h-90l-27 -94c-6 -19.333 1 -29 21 -29h56l-31 -110h-65c-42.667 0 -73 13.5 -91 40.5s-20.667 62.167 -8 105.5l25 87h-70l24 84h70l35 123h-70l31 110h70l62 96h86l-27 -96h85l-31 -110h-86z" />
    <glyph glyph-name="Umacron" unicode="&#x16a;" horiz-adv-x="472" 
d="M503 840l-26 -90h-210l26 90h210zM382 150c-16 -56 -37.8301 -95.833 -65.4971 -119.5s-64.5 -35.5 -110.5 -35.5h-64c-52.667 0 -88.834 16.333 -108.501 49s-22.167 73.667 -7.5 123l151 533h125l-158 -552c-6.66699 -24.667 2.66602 -37 27.999 -37h46
c11.333 0 19.666 3 24.999 9s10 16 14 30l158 550h124z" />
    <glyph glyph-name="umacron" unicode="&#x16b;" horiz-adv-x="425" 
d="M407 600h-210l26 90h210zM454 550l-157.001 -550h-86v60c-37.333 -43.333 -74.666 -65 -111.999 -65h-14c-34.667 0 -59.5 13.5 -74.5 40.5s-16.167 62.167 -3.5 105.5l117 409h120l-119 -416c-4.66699 -19.333 2.33301 -29 21 -29h38c15.333 0 26 10 32 30l118 415h120z
" />
    <glyph glyph-name="Uring" unicode="&#x16e;" horiz-adv-x="472" 
d="M365 726c-24.667 0 -45.167 8.16699 -61.5 24.5s-24.5 36.833 -24.5 61.5c0 24 8.16699 44.167 24.5 60.5s36.833 24.5 61.5 24.5c23.333 0 43.166 -8.16699 59.499 -24.5s24.5 -36.5 24.5 -60.5c0 -24.667 -8.16699 -45.167 -24.5 -61.5s-36.166 -24.5 -59.499 -24.5z
M365 776c10 0 18.333 3.5 25 10.5s10 15.5 10 25.5s-3.33301 18.5 -10 25.5s-15 10.5 -25 10.5c-10.667 0 -19.5 -3.5 -26.5 -10.5s-10.5 -15.5 -10.5 -25.5s3.5 -18.5 10.5 -25.5s15.833 -10.5 26.5 -10.5zM382 150c-16 -56 -37.8301 -95.833 -65.4971 -119.5
s-64.5 -35.5 -110.5 -35.5h-64c-52.667 0 -88.834 16.333 -108.501 49s-22.167 73.667 -7.5 123l151 533h125l-158 -552c-6.66699 -24.667 2.66602 -37 27.999 -37h46c11.333 0 19.666 3 24.999 9s10 16 14 30l158 550h124z" />
    <glyph glyph-name="uring" unicode="&#x16f;" horiz-adv-x="425" 
d="M295 576c-24.667 0 -45.167 8.16699 -61.5 24.5s-24.5 36.833 -24.5 61.5c0 24 8.16699 44.167 24.5 60.5s36.833 24.5 61.5 24.5c23.333 0 43.166 -8.16699 59.499 -24.5s24.5 -36.5 24.5 -60.5c0 -24.667 -8.16699 -45.167 -24.5 -61.5s-36.166 -24.5 -59.499 -24.5z
M295 698c-10.667 0 -19.5 -3.5 -26.5 -10.5s-10.5 -15.5 -10.5 -25.5s3.5 -18.5 10.5 -25.5s15.833 -10.5 26.5 -10.5c10 0 18.333 3.5 25 10.5s10 15.5 10 25.5s-3.33301 18.5 -10 25.5s-15 10.5 -25 10.5zM454 550l-157.001 -550h-86v60
c-37.333 -43.333 -74.666 -65 -111.999 -65h-14c-34.667 0 -59.5 13.5 -74.5 40.5s-16.167 62.167 -3.5 105.5l117 409h120l-119 -416c-4.66699 -19.333 2.33301 -29 21 -29h38c15.333 0 26 10 32 30l118 415h120z" />
    <glyph glyph-name="Uhungarumlaut" unicode="&#x170;" horiz-adv-x="472" 
d="M313 855h120l-105 -120h-91zM453 855h120l-105 -120h-91zM382 150c-16 -56 -37.8301 -95.833 -65.4971 -119.5s-64.5 -35.5 -110.5 -35.5h-64c-52.667 0 -88.834 16.333 -108.501 49s-22.167 73.667 -7.5 123l151 533h125l-158 -552
c-6.66699 -24.667 2.66602 -37 27.999 -37h46c11.333 0 19.666 3 24.999 9s10 16 14 30l158 550h124z" />
    <glyph glyph-name="uhungarumlaut" unicode="&#x171;" horiz-adv-x="425" 
d="M258 585h-91l76 120h120zM307 585l76 120h120l-105 -120h-91zM334 550h119.999l-157 -550h-86v60c-37.333 -43.333 -74.666 -65 -111.999 -65h-14c-34.667 0 -59.5 13.5 -74.5 40.5s-16.167 62.167 -3.5 105.5l117 409h120l-119 -416
c-4.66699 -19.333 2.33301 -29 21 -29h38c15.333 0 26 10 32 30z" />
    <glyph glyph-name="Uogonek" unicode="&#x172;" horiz-adv-x="472" 
d="M382 150c-16 -56 -37.8301 -95.833 -65.4971 -119.5s-64.5 -35.5 -110.5 -35.5h-64c-52.667 0 -88.834 16.333 -108.501 49s-22.167 73.667 -7.5 123l151 533h125l-158 -552c-6.66699 -24.667 2.66602 -37 27.999 -37h46c11.333 0 19.666 3 24.999 9s10 16 14 30l158 550
h124zM148.003 -155v120h68l36 -120h-104z" />
    <glyph glyph-name="uogonek" unicode="&#x173;" horiz-adv-x="425" 
d="M211 0l-0.000976562 60c-37.333 -43.333 -74.666 -65 -111.999 -65h-14c-34.667 0 -59.5 13.5 -74.5 40.5s-16.167 62.167 -3.5 105.5l117 409h120l-119 -416c-4.66699 -19.333 2.33301 -29 21 -29h38c15.333 0 26 10 32 30l118 415h120l-157 -550h-86zM281.999 -35
l36 -120h-104v120h68z" />
    <glyph glyph-name="Wcircumflex" unicode="&#x174;" horiz-adv-x="650" 
d="M421 735h-105l133 120h85l65 -120h-94l-25 61zM742 700l-303 -700h-123l24 330h-4l-149 -330h-132l97 700h122l-46 -292l-33 -173h4l175 373h78l-28 -373h4l69 181l117 284h128z" />
    <glyph glyph-name="wcircumflex" unicode="&#x175;" horiz-adv-x="572" 
d="M340 585h-105l133 120h85l65 -120h-94l-25 61zM631 550l-239 -550h-121l6 237h-5l-117 -237h-119l63 550h114l-35 -229l-25 -136h5l148 293h71l-17 -293h5l50 129l100 236h116z" />
    <glyph glyph-name="Ycircumflex" unicode="&#x176;" horiz-adv-x="422" 
d="M307 735h-105l133 120h85l65 -120h-94l-25 61zM265 242l-69 -242h-125l67 237l-6 463h124l-7 -156l-13 -165h5l159 321h134z" />
    <glyph glyph-name="ycircumflex" unicode="&#x177;" horiz-adv-x="380" 
d="M246 585h-105l133 120h85l65 -120h-94l-25 61zM446 550l-263 -572c-42 -88.667 -100.333 -133 -175 -133h-83l31 110h45c19.333 0 33 5.66699 41 17l54 578h115l-30 -231l-39 -209h4l175 440h125z" />
    <glyph glyph-name="Ydieresis" unicode="&#x178;" horiz-adv-x="422" 
d="M326 735h-108l34 120h108zM360 735l34 120h108l-34 -120h-108zM265 242l-69 -242h-125l67 237l-6 463h124l-7 -156l-13 -165h5l159 321h134z" />
    <glyph glyph-name="Zacute" unicode="&#x179;" horiz-adv-x="405" 
d="M275 735l76 120h120l-105 -120h-91zM-48 0l27 96l329 488h-181l33 116h322l-27 -96l-329 -488h199l-33 -116h-340z" />
    <glyph glyph-name="zacute" unicode="&#x17a;" horiz-adv-x="347" 
d="M302 585h-91l76 120h120zM107 550h290l-26 -92l-266 -348h175l-31 -110h-306l25 91l267 349h-159z" />
    <glyph glyph-name="Zdotaccent" unicode="&#x17b;" horiz-adv-x="405" 
d="M385 735h-120l34 120h120zM455 604l-329 -488h199l-33 -116h-340l27 96l329 488h-181l33 116h322z" />
    <glyph glyph-name="zdotaccent" unicode="&#x17c;" horiz-adv-x="347" 
d="M321 585h-120l34 120h120zM371 458l-266 -348h175l-31 -110h-306l25 91l267 349h-159l31 110h290z" />
    <glyph glyph-name="Zcaron" unicode="&#x17d;" horiz-adv-x="405" 
d="M283 735l-65 120h94l25 -61l59 61h105l-133 -120h-85zM160 700h322l-27 -96l-329 -488h199l-33 -116h-340l27 96l329 488h-181z" />
    <glyph glyph-name="zcaron" unicode="&#x17e;" horiz-adv-x="347" 
d="M219 585l-65 120h94l25 -61l59 61h105l-133 -120h-85zM107 550h290l-26 -92l-266 -348h175l-31 -110h-306l25 91l267 349h-159z" />
    <glyph glyph-name="uni0218" unicode="&#x218;" horiz-adv-x="423" 
d="M121 -5c-52.667 0 -88.668 16.333 -108.001 49s-22 73.667 -8 123l22 77h124l-28 -96c-6.66699 -24.667 2.33301 -37 27 -37h38c11.333 0 19.833 3.16699 25.5 9.5s10.5 16.166 14.5 29.499l8 30c0.666992 2 1.66699 5.66699 3 11s2.16602 9 2.49902 11s1 5.33301 2 10
s1.33301 8 1 10s-0.666016 5 -0.999023 9s-1.16602 7.33301 -2.49902 10s-3 5.83398 -5 9.50098s-4.33301 7.16699 -7 10.5l-92 111c-35.333 42 -46 89 -32 141l10 37c14.667 54 36.334 93.333 65.001 118s66 37 112 37h44c52.667 0 88.667 -16.333 108 -49
s22 -73.667 8 -123l-22 -78h-124l29 97c6.66699 24.667 -2.33301 37 -27 37h-28c-11.333 0 -19.833 -3.16699 -25.5 -9.5s-10.5 -16.166 -14.5 -29.499l-9 -30c-6.66699 -16.667 -9.66699 -31.334 -9 -44.001s6.66699 -25.667 18 -39l90 -112
c37.333 -46.667 47.666 -96 30.999 -148l-8 -27c-16 -55.333 -38 -95 -66 -119s-65 -36 -111 -36h-55zM148.999 -155h-68v120h104z" />
    <glyph glyph-name="uni0219" unicode="&#x219;" horiz-adv-x="366" 
d="M86 -5c-41.333 0 -70.835 13.4971 -88.502 40.4971s-20.167 62.167 -7.5 105.5l17 59h113l-21 -74c-6 -19.333 1 -29 21 -29h24c14.667 0 24.667 10 30 30l6 19c4.66699 11.333 6.83398 22.833 6.50098 34.5s-4.83301 21.834 -13.5 30.501l-77 82
c-31.333 33.333 -40 74 -26 122l4 15c11.333 39.333 29.833 70 55.5 92s56.5 33 92.5 33h50c41.333 0 70.833 -13.5 88.5 -40.5s20.167 -62.167 7.5 -105.5l-17 -59h-113l21 75c6 19.333 -0.666992 29 -20 29h-21c-17.333 0 -28.666 -10 -33.999 -30l-7 -24
c-4 -13.333 -5 -23.666 -3 -30.999s8 -16.666 18 -27.999l75 -81c18.667 -20.667 29.667 -42.167 33 -64.5s0.333008 -48.5 -9 -78.5l-2 -9c-9.33301 -33.333 -26.833 -60.5 -52.5 -81.5s-57.5 -31.5 -95.5 -31.5h-55zM115.998 -155.003h-68v120h104z" />
    <glyph glyph-name="uni021A" unicode="&#x21a;" horiz-adv-x="395" 
d="M464 584h-115l-167 -584h-125l167 584h-115l33 116h355zM40 -35h104l-36 -120h-68v120z" />
    <glyph glyph-name="uni021B" unicode="&#x21b;" horiz-adv-x="301" 
d="M162 139c-6 -19.333 1 -29 21 -29h56l-31 -110h-65c-42.667 0 -73 13.5 -91 40.5s-20.667 62.167 -8 105.5l84 294h-70l31 110h70l62 96h86l-27 -96h85l-31 -110h-86zM55 -35h104l-36 -120h-68v120z" />
    <glyph glyph-name="uni02BC" unicode="&#x2bc;" horiz-adv-x="230" 
d="M206 475h-100l66 230h130z" />
    <glyph glyph-name="circumflex" unicode="&#x2c6;" horiz-adv-x="420" 
d="M347 585l-25 61l-59 -61h-105l133 120h85l65 -120h-94z" />
    <glyph glyph-name="caron" unicode="&#x2c7;" horiz-adv-x="420" 
d="M475 705l-133 -120h-85l-65 120h94l25 -61l59 61h105z" />
    <glyph glyph-name="breve" unicode="&#x2d8;" horiz-adv-x="420" 
d="M443 686c-15.333 -60.667 -50 -91 -104 -91h-55c-30.667 0 -51.667 9.5 -63 28.5s-12.666 43.167 -3.99902 72.5l2 9h83l-5 -20c-2.66699 -8 -2.83398 -13.667 -0.500977 -17s7.5 -5 15.5 -5h25c11.333 0 19 7.66699 23 23l5 19h83z" />
    <glyph glyph-name="dotaccent" unicode="&#x2d9;" horiz-adv-x="420" 
d="M393 705l-34 -120h-120l34 120h120z" />
    <glyph glyph-name="ring" unicode="&#x2da;" horiz-adv-x="420" 
d="M296 576c-24.667 0 -45.167 8.16699 -61.5 24.5s-24.5 36.833 -24.5 61.5c0 24 8.16699 44.167 24.5 60.5s36.833 24.5 61.5 24.5c23.333 0 43.166 -8.16699 59.499 -24.5s24.5 -36.5 24.5 -60.5c0 -24.667 -8.16699 -45.167 -24.5 -61.5s-36.166 -24.5 -59.499 -24.5z
M296 626c10 0 18.333 3.5 25 10.5s10 15.5 10 25.5s-3.33301 18.5 -10 25.5s-15 10.5 -25 10.5c-10.667 0 -19.5 -3.5 -26.5 -10.5s-10.5 -15.5 -10.5 -25.5s3.5 -18.5 10.5 -25.5s15.833 -10.5 26.5 -10.5z" />
    <glyph glyph-name="ogonek" unicode="&#x2db;" horiz-adv-x="420" 
d="M132 -155v120h68l36 -120h-104z" />
    <glyph glyph-name="tilde" unicode="&#x2dc;" horiz-adv-x="420" 
d="M266 720c11.333 0 28.001 -6 50.001 -18l28 -15c8 -4 12.667 -6 14 -6c4.66699 0 7 2.33301 7 7l10 32h78l-17 -60c-6.66699 -20.667 -14.334 -35.834 -23.001 -45.501s-21.334 -14.5 -38.001 -14.5c-11.333 0 -28 6 -50 18l-28 15c-6.66699 4 -11 6 -13 6
c-5.33301 0 -8 -2.33301 -8 -7l-10 -32h-78l18 60c6 20.667 13.333 35.834 22 45.501s21.334 14.5 38.001 14.5z" />
    <glyph glyph-name="hungarumlaut" unicode="&#x2dd;" horiz-adv-x="420" 
d="M244 705h120l-105 -120h-91zM384 705h120l-105 -120h-91z" />
    <glyph glyph-name="uni0326" unicode="&#x326;" horiz-adv-x="0" 
d="M-290 -155h-68v120h104z" />
    <glyph glyph-name="uni0401" unicode="&#x401;" horiz-adv-x="370" 
d="M301 735h-108l34 120h108zM335 735l34 120h108l-34 -120h-108zM414 584h-147l-50 -176h137l-34 -116h-137l-50 -176h147l-33 -116h-270l200 700h270z" />
    <glyph glyph-name="uni0404" unicode="&#x404;" horiz-adv-x="439" 
d="M361 705c52.667 0 88.667 -16.333 108 -49s22 -73.667 8 -123l-23 -83h-122l29 102c6.66699 24.667 -2.33301 37 -27 37h-40c-11.333 0 -19.833 -3.16699 -25.5 -9.5s-10.5 -16.166 -14.5 -29.499l-41 -142h101l-34 -116h-100l-41 -144
c-6.66699 -24.667 2.33301 -37 27 -37h40c11.333 0 19.833 3.16699 25.5 9.5s10.5 16.166 14.5 29.499l28 100h122l-27 -100c-15.333 -55.333 -37 -95 -65 -119s-65.333 -36 -112 -36h-56c-52.667 0 -88.667 16.333 -108 49s-22 73.667 -8 123l109 383
c16 55.333 38 95 66 119s65 36 111 36h55z" />
    <glyph glyph-name="uni0406" unicode="&#x406;" horiz-adv-x="235" 
d="M302 700l-200 -700h-125l200 700h125z" />
    <glyph glyph-name="uni0407" unicode="&#x407;" horiz-adv-x="235" 
d="M267 855l-34 -120h-108l34 120h108zM409 855l-34 -120h-108l34 120h108zM302 700l-200 -700h-125l200 700h125z" />
    <glyph glyph-name="uni040E" unicode="&#x40e;" horiz-adv-x="426" 
d="M330 745c-30.667 0 -51.667 9.5 -63 28.5s-12.666 43.167 -3.99902 72.5l2 9h83l-5 -20c-2.66699 -8 -2.83398 -13.667 -0.500977 -17s7.5 -5 15.5 -5h25c11.333 0 19 7.66699 23 23l5 19h83l-5 -19c-15.333 -60.667 -50 -91 -104 -91h-55zM533 700l-256.001 -508.001
c-19.333 -39.333 -35.166 -69.333 -47.499 -90s-26 -39.667 -41 -57s-30.5 -29.166 -46.5 -35.499s-35 -9.5 -57 -9.5h-74l33 116h39c10 0 18.333 3.66699 25 11s15 22 25 44l4 529h122l-13 -256l-15 -146h3l56 150l110 252h133z" />
    <glyph glyph-name="uni0410" unicode="&#x410;" horiz-adv-x="426" 
d="M441 700l-118 -700h-124l25 132h-100l-49 -132h-128l278 700h216zM246 248l64 337h-20l-124 -337h80z" />
    <glyph glyph-name="uni0411" unicode="&#x411;" horiz-adv-x="429" 
d="M269 584l-45 -156h54c52 0 87.833 -16.5 107.5 -49.5s22.5 -73.833 8.5 -122.5l-29 -101c-16 -55.333 -38 -95 -66 -119s-65 -36 -111 -36h-211l200 700h317l-33 -116h-192zM191 312l-56 -195.999h65c11.333 0 19.833 3.16699 25.5 9.5s10.5 16.166 14.5 29.499l35 120
c6.66699 24.667 -2.33301 37 -27 37h-57z" />
    <glyph glyph-name="uni0412" unicode="&#x412;" horiz-adv-x="444" 
d="M351 700c52.667 0 88.833 -16.168 108.5 -48.501s22.5 -73.5 8.5 -123.5l-20 -69c-16 -56.667 -43 -94 -81 -112c31.333 -27.333 39.333 -66.666 24 -117.999l-21 -74c-16 -55.333 -38 -95 -66 -119s-65 -36 -111 -36h-211l200 700h169zM272.999 589.999l-54 -187h59
c22 0 36.667 13 44 39l33 111c6.66699 24.667 -2.33301 37 -27 37h-55zM274.999 259.999c6.66699 24.667 -3 37.001 -29 37.001h-57l-53 -186h68c11.333 0 19.833 3.16699 25.5 9.5s10.5 16.166 14.5 29.499z" />
    <glyph glyph-name="uni0413" unicode="&#x413;" horiz-adv-x="355" 
d="M429 584h-160l-167 -584h-125l200 700h285z" />
    <glyph glyph-name="uni0414" unicode="&#x414;" horiz-adv-x="494" 
d="M373 116h61l-62 -216h-81v100h-238l-68 -100h-82l62 216h50c23.333 48.667 55.333 139.667 96 273l96 311h333zM382 584h-87.999l-60 -195c-36.667 -118.667 -72.334 -209.667 -107.001 -273h121z" />
    <glyph glyph-name="uni0415" unicode="&#x415;" horiz-adv-x="370" 
d="M267 584l-50 -176h137l-34 -116h-137l-50 -176h147l-33 -116h-270l200 700h270l-33 -116h-147z" />
    <glyph glyph-name="uni0416" unicode="&#x416;" horiz-adv-x="691" 
d="M758 700l-200 -700h-125l83 292h-103l-83 -292h-125l83 292h-103l-83 -292h-125l200 700h125l-83 -292h103l83 292h125l-83 -292h103l83 292h125z" />
    <glyph glyph-name="uni0417" unicode="&#x417;" horiz-adv-x="429" 
d="M344 705c52.667 0 88.667 -16.333 108 -49s22 -73.667 8 -123l-20 -72c-17.333 -59.333 -45.666 -96.666 -84.999 -111.999c29.333 -28.667 36.666 -68 21.999 -118l-23 -81c-16 -55.333 -38 -95 -66 -119s-65 -36 -111 -36h-56c-52.667 0 -88.667 16.333 -108 49
s-22 73.667 -8 123l23 83h123l-29 -102c-6.66699 -24.667 2.33301 -37 27 -37h40c11.333 0 19.833 3.16699 25.5 9.5s10.5 16.166 14.5 29.499l30 105c6.66699 24.667 -2.33301 37 -27 37h-63l34 116h70c11.333 0 19.833 3.16699 25.5 9.5s10.5 16.166 14.5 29.499l30 105
c6.66699 24.667 -2.33301 37 -27 37h-39c-11.333 0 -19.833 -3.16699 -25.5 -9.5s-10.5 -16.166 -14.5 -29.499l-28 -100h-118l27 100c15.333 55.333 37 95 65 119s65.333 36 112 36h49z" />
    <glyph glyph-name="uni0418" unicode="&#x418;" horiz-adv-x="485" 
d="M182 700h121l-56 -197l-60 -187h5l240 384h115l-200 -700h-121l56 197l60 187h-5l-240 -384h-115z" />
    <glyph glyph-name="uni0419" unicode="&#x419;" horiz-adv-x="485" 
d="M519 836c-15.333 -60.667 -50 -91 -104 -91h-55c-30.667 0 -51.667 9.5 -63 28.5s-12.666 43.167 -3.99902 72.5l2 9h83l-5 -20c-2.66699 -8 -2.83398 -13.667 -0.500977 -17s7.5 -5 15.5 -5h25c11.333 0 19 7.66699 23 23l5 19h83zM182 700h121l-56 -197l-60 -187h5
l240 384h115l-200 -700h-121l56 197l60 187h-5l-240 -384h-115z" />
    <glyph glyph-name="uni041A" unicode="&#x41a;" horiz-adv-x="448" 
d="M339 360l10 -360h-125l-1 292h-38l-83 -292h-125l200 700h125l-83 -292h23l170 292h128z" />
    <glyph glyph-name="uni041B" unicode="&#x41b;" horiz-adv-x="481" 
d="M348 0l-125 -0.000976562l167 584h-91l-81 -268l-21 -70c-10 -33.333 -18.5 -60.5 -25.5 -81.5s-14.5 -40.5 -22.5 -58.5c-16.667 -38 -38.167 -66.167 -64.5 -84.5s-63.5 -26.166 -111.5 -23.499l-36 2l33 116h27c20.667 0 36.667 12.667 48 38s34 94 68 206l102 340
h333z" />
    <glyph glyph-name="uni041C" unicode="&#x41c;" horiz-adv-x="600" 
d="M662 700l-200 -700h-119l60 210l60 187h-5l-172 -281h-56l-18 281h-5l-46 -187l-60 -210h-119l200 700h112l23 -355l215 355h130z" />
    <glyph glyph-name="uni041D" unicode="&#x41d;" horiz-adv-x="470" 
d="M537 700l-200 -700h-125l83 292h-110l-83 -292h-125l200 700h125l-83 -292h110l83 292h125z" />
    <glyph glyph-name="uni041E" unicode="&#x41e;" horiz-adv-x="466" 
d="M381 150c-16 -55.333 -38 -95 -66 -119s-65 -36 -111 -36h-68c-52.667 0 -88.667 16.333 -108 49s-22 73.667 -8 123l109 383c16 55.333 38 95 66 119s65 36 111 36h68c52.667 0 88.667 -16.333 108 -49s22 -73.667 8 -123zM371 552c6.66699 24.667 -2.33301 37 -27 37
h-50c-11.333 0 -19.833 -3.16699 -25.5 -9.5s-10.5 -16.166 -14.5 -29.499l-115 -402c-6.66699 -24.667 2.33301 -37 27 -37h50c11.333 0 19.833 3.16699 25.5 9.5s10.5 16.166 14.5 29.499z" />
    <glyph glyph-name="uni041F" unicode="&#x41f;" horiz-adv-x="470" 
d="M337 0h-125l167 584h-110l-167 -584h-125l200 700h360z" />
    <glyph glyph-name="uni0420" unicode="&#x420;" horiz-adv-x="445" 
d="M362 700c52 0 87.833 -16.5 107.5 -49.5s22.5 -73.833 8.5 -122.5l-29 -101c-16 -55.333 -38 -95 -66 -119s-65 -36 -111 -36h-92l-78 -272h-125l200 700h185zM359 547c6.66699 24.667 -2.33301 37.001 -27 37.001h-63l-56 -196h71c11.333 0 19.833 3.16699 25.5 9.5
s10.5 16.166 14.5 29.499z" />
    <glyph glyph-name="uni0421" unicode="&#x421;" horiz-adv-x="449" 
d="M136 -5c-52.667 0 -88.667 16.333 -108 49s-22 73.667 -8 123l109 383c16 55.333 38 95 66 119s65 36 111 36h55c52.667 0 88.667 -16.333 108 -49s22 -73.667 8 -123l-35 -123h-122l41 142c6.66699 24.667 -2.33301 37 -27 37h-40
c-11.333 0 -19.833 -3.16699 -25.5 -9.5s-10.5 -16.166 -14.5 -29.499l-115 -402c-6.66699 -24.667 2.33301 -37 27 -37h40c11.333 0 19.833 3.16699 25.5 9.5s10.5 16.166 14.5 29.499l37 130h123l-37 -130c-16 -55.333 -38 -95 -66 -119s-65 -36 -111 -36h-56z" />
    <glyph glyph-name="uni0422" unicode="&#x422;" horiz-adv-x="395" 
d="M464 584h-115l-167 -584h-125l167 584h-115l33 116h355z" />
    <glyph glyph-name="uni0423" unicode="&#x423;" horiz-adv-x="426" 
d="M533 700l-256.001 -508.001c-19.333 -39.333 -35.166 -69.333 -47.499 -90s-26 -39.667 -41 -57s-30.5 -29.166 -46.5 -35.499s-35 -9.5 -57 -9.5h-74l33 116h39c10 0 18.333 3.66699 25 11s15 22 25 44l4 529h122l-13 -256l-15 -146h3l56 150l110 252h133z" />
    <glyph glyph-name="uni0424" unicode="&#x424;" horiz-adv-x="665" 
d="M562 650c52.667 0 88.6689 -16 108.002 -48s22.333 -73.333 9 -124l-70 -243c-16 -56 -37.833 -95.833 -65.5 -119.5s-64.834 -35.5 -111.501 -35.5h-92l-26 -90h-125l26 90h-59c-52.667 0 -88.834 16 -108.501 48s-22.5 73.333 -8.5 124l69 243
c16 56 38 95.833 66 119.5s65 35.5 111 35.5h92l23 80h125l-23 -80h60zM248.002 196l95.999 338h-71c-11.333 0 -19.666 -3 -24.999 -9s-10.333 -16 -15 -30l-74 -262c-8 -24.667 1 -37 27 -37h62zM559.001 497c6.66699 24.667 -2.33301 37.001 -27 37.001h-63l-96 -338h71
c11.333 0 19.833 3.16699 25.5 9.5s10.5 16.166 14.5 29.499z" />
    <glyph glyph-name="uni0425" unicode="&#x425;" horiz-adv-x="446" 
d="M314 346l39 -346h-121l-18 218h-4l-133 -218h-140l244 379l-40 321h122l15 -219h4l126 219h134z" />
    <glyph glyph-name="uni0426" unicode="&#x426;" horiz-adv-x="488" 
d="M370 116h58l-62 -216h-81v100h-308l200 700h125l-167 -584h110l167 584h125z" />
    <glyph glyph-name="uni0427" unicode="&#x427;" horiz-adv-x="450" 
d="M517 700l-200 -700h-125l77 270h-75c-52 0 -86.5 12 -103.5 36s-18.167 62 -3.5 114l80 280h125l-81 -284c-6 -20 1 -30 21 -30h70l90 314h125z" />
    <glyph glyph-name="uni0428" unicode="&#x428;" horiz-adv-x="685" 
d="M752 700l-200 -700h-575l200 700h125l-167 -584h100l167 584h125l-167 -584h100l167 584h125z" />
    <glyph glyph-name="uni0429" unicode="&#x429;" horiz-adv-x="703" 
d="M585 116h58l-62 -216h-81v100h-523l200 700h125l-167 -584h100l167 584h125l-167 -584h100l167 584h125z" />
    <glyph glyph-name="uni042A" unicode="&#x42a;" horiz-adv-x="497" 
d="M336 428c52 0 87.833 -16.5 107.5 -49.5s22.5 -73.833 8.5 -122.5l-29 -101c-16 -55.333 -38 -95 -66 -119s-65 -36 -111 -36h-211l167 584h-98l33 116h223l-78 -272h54zM333 275c6.66699 24.667 -2.33301 37.001 -27 37.001h-57l-56 -196h65
c11.333 0 19.833 3.16699 25.5 9.5s10.5 16.166 14.5 29.499z" />
    <glyph glyph-name="uni042B" unicode="&#x42b;" horiz-adv-x="652" 
d="M278 428c52 0 87.833 -16.5 107.5 -49.5s22.5 -73.833 8.5 -122.5l-29 -101c-16 -55.333 -38 -95 -66 -119s-65 -36 -111 -36h-211l200 700h125l-78 -272h54zM719 700l-200 -700h-125l200 700h125zM275 275c6.66699 24.667 -2.33301 37.001 -27 37.001h-57l-56 -196h65
c11.333 0 19.833 3.16699 25.5 9.5s10.5 16.166 14.5 29.499z" />
    <glyph glyph-name="uni042C" unicode="&#x42c;" horiz-adv-x="439" 
d="M278 428c52 0 87.833 -16.5 107.5 -49.5s22.5 -73.833 8.5 -122.5l-29 -101c-16 -55.333 -38 -95 -66 -119s-65 -36 -111 -36h-211l200 700h125l-78 -272h54zM275 275c6.66699 24.667 -2.33301 37.001 -27 37.001h-57l-56 -196h65c11.333 0 19.833 3.16699 25.5 9.5
s10.5 16.166 14.5 29.499z" />
    <glyph glyph-name="uni042D" unicode="&#x42d;" horiz-adv-x="439" 
d="M347 705c52.667 0 88.667 -16.333 108 -49s22 -73.667 8 -123l-109 -383c-16 -55.333 -38 -95 -66 -119s-65 -36 -111 -36h-56c-52.667 0 -88.667 16.333 -108 49s-22 73.667 -8 123l23 83h123l-29 -102c-6.66699 -24.667 2.33301 -37 27 -37h40
c11.333 0 19.833 3.16699 25.5 9.5s10.5 16.166 14.5 29.499l41 142h-101l34 116h100l41 144c6.66699 24.667 -2.33301 37 -27 37h-40c-11.333 0 -19.833 -3.16699 -25.5 -9.5s-10.5 -16.166 -14.5 -29.499l-28 -100h-118l27 100c15.333 55.333 37 95 65 119
s65.333 36 112 36h52z" />
    <glyph glyph-name="uni042E" unicode="&#x42e;" horiz-adv-x="666" 
d="M574 705c52.667 0 88.667 -16.333 108 -49s22 -73.667 8 -123l-109 -383c-16 -55.333 -38 -95 -66 -119s-65 -36 -111 -36h-58c-52.667 0 -88.667 16.333 -108 49s-22 73.667 -8 123l36 125h-81l-83 -292h-125l200 700h125l-83 -292h80l40 142c16 55.333 38 95 66 119
s65 36 111 36h58zM571 552c6.66699 24.667 -2.33301 37 -27 37h-40c-11.333 0 -19.833 -3.16699 -25.5 -9.5s-10.5 -16.166 -14.5 -29.499l-115 -402c-6.66699 -24.667 2.33301 -37 27 -37h40c11.333 0 19.833 3.16699 25.5 9.5s10.5 16.166 14.5 29.499z" />
    <glyph glyph-name="uni042F" unicode="&#x42f;" horiz-adv-x="449" 
d="M316 0h-125l79 276h-25l-177 -276h-131l196 307c-42.667 28.667 -53.667 78.667 -33 150l25 88c30 103.333 89 155 177 155h214zM302 388l57 199.999h-68c-11.333 0 -19.833 -3.16699 -25.5 -9.5s-10.5 -16.166 -14.5 -29.499l-36 -124
c-6.66699 -24.667 2.33301 -37 27 -37h60z" />
    <glyph glyph-name="uni0430" unicode="&#x430;" horiz-adv-x="398" 
d="M70 -5c-36.667 0 -61.6689 13.333 -75.002 40s-13.666 62 -0.999023 106l8 27c12.667 44 28.5 75 47.5 93s47.167 33.333 84.5 46l93 34c13.333 4.66699 22 13.667 26 27l17 58c4.66699 19.333 -1.66602 29 -18.999 29h-30c-15.333 0 -26 -10 -32 -30l-16 -56h-107l16 53
c12.667 46 31.5 79.667 56.5 101s57.5 32 97.5 32h47c42.667 0 73 -13.333 91 -40s20.667 -62 8 -106l-117 -409h-86v56c-33.333 -40.667 -66.333 -61 -99 -61h-10zM125.998 102h29c14.667 0 25 10 31 30l33 117l-66 -29c-16 -6.66699 -27.333 -21 -34 -43l-14 -46
c-4.66699 -19.333 2.33301 -29 21 -29z" />
    <glyph glyph-name="uni0431" unicode="&#x431;" horiz-adv-x="419" 
d="M496 705l-2.99902 -11c-11.333 -40 -29 -69.167 -53 -87.5s-56 -27.5 -96 -27.5h-73c-14.667 0 -24.667 -10 -30 -30l-22 -76c31.333 29.333 62.333 44 93 44h14c34.667 0 59.167 -13.5 73.5 -40.5s15.166 -62.167 2.49902 -105.5l-69 -243
c-13.333 -46 -32.333 -79.667 -57 -101s-57 -32 -97 -32h-72c-42.667 0 -73 13.5 -91 40.5s-20.667 62.167 -8 105.5l116 407c12.667 46 31.5 79.667 56.5 101s57.5 32 97.5 32h70c13.333 0 22.333 6 27 18l1 6h120zM226.001 407c-15.333 0 -25.667 -10 -31 -30l-69 -243
c-4.66699 -19.333 2.33301 -29 21 -29h37c14.667 0 25 10 31 30l69 243c6 19.333 -1 29 -21 29h-37z" />
    <glyph glyph-name="uni0432" unicode="&#x432;" horiz-adv-x="396" 
d="M290 550c42.667 0 73 -13.5 91 -40.5s20.667 -62.167 8 -105.5l-9 -33c-13.333 -49.333 -35 -85.333 -65 -108c21.333 -24.667 26 -57.667 14 -99l-9 -31c-12.667 -46 -31.5 -79.667 -56.5 -101s-57.5 -32 -97.5 -32h-194l157 550h161zM209 450l-38 -134h57
c14.667 0 25 10 31 30l21 75c6 19.333 -1 29 -21 29h-50zM222 202c4.66699 19.333 -2.66699 29 -22 29h-53l-37 -131h61c14.667 0 24.667 10 30 30z" />
    <glyph glyph-name="uni0433" unicode="&#x433;" horiz-adv-x="320" 
d="M353 440h-135l-126 -440h-120l157 550h255z" />
    <glyph glyph-name="uni0434" unicode="&#x434;" horiz-adv-x="444" 
d="M336 110h46l-57 -200h-81v90h-202l-55 -78h-77l53 188h40c27.333 52 54 121.667 80 209l70 231h309zM215 105l97 339.999h-72l-44 -141c-23.333 -75.333 -52 -141.666 -86 -198.999h105z" />
    <glyph glyph-name="uni0435" unicode="&#x435;" horiz-adv-x="410" 
d="M305 555c42.667 0 73 -13.5 91 -40.5s20.667 -62.167 8 -105.5l-49 -170h-203l-31 -109c-6 -19.333 1 -29 21 -29h31c14.667 0 24.667 10 30 30l16 54h118l-16 -57c-13.333 -46 -32.333 -79.667 -57 -101s-57 -32 -97 -32h-61c-42.667 0 -73 13.5 -91 40.5
s-20.667 62.167 -8 105.5l81 281c12.667 46 31.5 79.667 56.5 101s57.5 32 97.5 32h63zM179 332h84.999l25 88c6 19.333 -1 29 -21 29h-33c-15.333 0 -25.666 -10 -30.999 -30z" />
    <glyph glyph-name="uni0436" unicode="&#x436;" horiz-adv-x="611" 
d="M641 550l-157 -550h-120l63 220h-76l-63 -220h-120l63 220h-76l-63 -220h-120l157 550h120l-63 -220h76l63 220h120l-63 -220h76l63 220h120z" />
    <glyph glyph-name="uni0437" unicode="&#x437;" horiz-adv-x="370" 
d="M279 555c42.667 0 73.834 -13.5 93.501 -40.5s23.167 -62.167 10.5 -105.5l-8 -29c-16.667 -54.667 -42.667 -91 -78 -109c26 -23.333 32.667 -56 20 -98l-12 -45c-13.333 -46 -32.333 -79.667 -57 -101s-57 -32 -97 -32h-64c-42.667 0 -73.167 13.5 -91.5 40.5
s-21.166 62.167 -8.49902 105.5l15 50h118l-18 -61c-6 -19.333 1 -29 21 -29h33c15.333 0 25.666 10 30.999 30l18 63c6 19.333 -1 29 -21 29h-62l30 104h69c15.333 0 25.666 10 30.999 30l18 63c6 19.333 -1 29 -21 29h-34c-14.667 0 -24.667 -10 -30 -30l-17 -60h-118
l18 63c12.667 46 31.5 79.667 56.5 101s57.5 32 97.5 32h57z" />
    <glyph glyph-name="uni0438" unicode="&#x438;" horiz-adv-x="436" 
d="M129 550h118l-43 -151l-46 -139h5l187 290h115l-157 -550h-118l43 151l46 139h-5l-187 -290h-115z" />
    <glyph glyph-name="uni0439" unicode="&#x439;" horiz-adv-x="436" 
d="M451 686c-15.333 -60.667 -50 -91 -104 -91h-55c-30.667 0 -51.667 9.5 -63 28.5s-12.666 43.167 -3.99902 72.5l2 9h83l-5 -20c-2.66699 -8 -2.83398 -13.667 -0.500977 -17s7.5 -5 15.5 -5h25c11.333 0 19 7.66699 23 23l5 19h83zM129 550h118l-43 -151l-46 -139h5
l187 290h115l-157 -550h-118l43 151l46 139h-5l-187 -290h-115z" />
    <glyph glyph-name="uni043A" unicode="&#x43a;" horiz-adv-x="408" 
d="M298 276l7 -276h-118v220h-32l-63 -220h-120l158 550h120l-63 -220h24l131 220h118z" />
    <glyph glyph-name="uni043B" unicode="&#x43b;" horiz-adv-x="448" 
d="M320 0l-120.001 -0.000976562l126 440h-82l-42 -137c-36.667 -114 -57.667 -177.333 -63 -190c-18.667 -42.667 -40.667 -73.167 -66 -91.5s-60.666 -26.166 -105.999 -23.499l-31 2l31 110h22c19.333 0 34.333 11.667 45 35s33 90.333 67 201l62 204h314z" />
    <glyph glyph-name="uni043C" unicode="&#x43c;" horiz-adv-x="535" 
d="M559 550l-157 -550h-118l47 164l50 159h-4l-129 -232h-64l1 232h-4l-39 -159l-47 -164h-118l157 550h121l13 -264l153 264h138z" />
    <glyph glyph-name="uni043D" unicode="&#x43d;" horiz-adv-x="427" 
d="M456 550l-157 -550h-120l63 220h-87l-63 -220h-120l157 550h120l-63 -220h87l63 220h120z" />
    <glyph glyph-name="uni043E" unicode="&#x43e;" horiz-adv-x="415" 
d="M106 -5c-42.667 0 -73 13.5 -91 40.5s-20.667 62.167 -8 105.5l81 281c12.667 46 31.5 79.667 56.5 101s57.5 32 97.5 32h73c42.667 0 73 -13.5 91 -40.5s20.667 -62.167 8 -105.5l-80 -281c-13.333 -46 -32.333 -79.667 -57 -101s-57 -32 -97 -32h-74zM184 101
c14.667 0 24.666 10 29.999 30l83 289c6 19.333 -1 29 -21 29h-38c-15.333 0 -25.666 -10 -30.999 -30l-83 -289c-6 -19.333 1 -29 21 -29h39z" />
    <glyph glyph-name="uni043F" unicode="&#x43f;" horiz-adv-x="427" 
d="M299 0h-120l126 440h-87l-126 -440h-120l157 550h327z" />
    <glyph glyph-name="uni0440" unicode="&#x440;" horiz-adv-x="426" 
d="M344 555c34.667 0 59.168 -13.5 73.501 -40.5s15.166 -62.167 2.49902 -105.5l-81 -281c-25.333 -88.667 -73.333 -133 -144 -133h-4c-38 0 -66.333 18.333 -85 55l-58 -205h-120l201 705h88v-60c38 43.333 75.667 65 113 65h14zM301.001 416
c6 19.333 -1.00098 29 -21.001 29h-38c-15.333 0 -25.666 -10 -30.999 -30l-81 -281c-4.66699 -19.333 2.33301 -29 21 -29h39c14.667 0 25 10 31 30z" />
    <glyph glyph-name="uni0441" unicode="&#x441;" horiz-adv-x="410" 
d="M324 128c-13.333 -46 -32.334 -79.667 -57.001 -101s-57 -32 -97 -32h-64c-42.667 0 -73 13.5 -91 40.5s-20.667 62.167 -8 105.5l81 281c12.667 46 31.5 79.667 56.5 101s57.5 32 97.5 32h63c42.667 0 73 -13.5 91 -40.5s20.667 -62.167 8 -105.5l-27 -94h-118l30 105
c6 19.333 -1 29 -21 29h-30c-15.333 0 -25.666 -10 -30.999 -30l-83 -289c-6 -19.333 1 -29 21 -29h31c14.667 0 24.667 10 30 30l27 94h118z" />
    <glyph glyph-name="uni0442" unicode="&#x442;" horiz-adv-x="349" 
d="M383 440h-100l-126 -440h-120l126 440h-100l31 110h320z" />
    <glyph glyph-name="uni0443" unicode="&#x443;" horiz-adv-x="380" 
d="M446 550l-263 -572c-42 -88.667 -100.333 -133 -175 -133h-83l31 110h45c19.333 0 33 5.66699 41 17l54 578h115l-30 -231l-39 -209h4l175 440h125z" />
    <glyph glyph-name="uni0444" unicode="&#x444;" horiz-adv-x="612" 
d="M535 555c33.333 0 56.498 -13.5 69.498 -40.5s13.5 -62.167 1.5 -105.5l-80 -281c-25.333 -88.667 -71.333 -133 -138 -133h-4c-37.333 0 -64.666 18.333 -81.999 55l-58 -205h-120l58 206c-31.333 -37.333 -61.666 -56 -90.999 -56h-12
c-33.333 0 -56.833 13.5 -70.5 40.5s-14.167 62.167 -1.5 105.5l81 281c24.667 88.667 70.667 133 138 133h4c36.667 0 63.667 -18.333 81 -55l58 205h120l-58 -206c32 37.333 62.667 56 92 56h12zM286.998 416c6 19.333 -1 29 -21 29h-30c-14.667 0 -24.667 -10 -30 -30
l-81 -281c-4.66699 -19.333 2.33301 -29 21 -29h29c15.333 0 26 10 32 30zM487.998 416c6 19.333 -1.00098 29 -21.001 29h-29c-15.333 0 -25.666 -10 -30.999 -30l-81 -281c-4.66699 -19.333 2.33301 -29 21 -29h30c14.667 0 25 10 31 30z" />
    <glyph glyph-name="uni0445" unicode="&#x445;" horiz-adv-x="385" 
d="M260 276l32 -276h-109l-16 171h-5l-101 -171h-124l197 296l-37 254h112l14 -164h4l99 164h120z" />
    <glyph glyph-name="uni0446" unicode="&#x446;" horiz-adv-x="439" 
d="M331 110h46l-57 -200h-81v90h-266l157 550h120l-126 -440h87l126 440h120z" />
    <glyph glyph-name="uni0447" unicode="&#x447;" horiz-adv-x="402" 
d="M430 550l-156 -550h-120l57 202h-51c-42.667 0 -73 13.5 -91 40.5s-20.667 62.167 -8 105.5l58 202h120l-60 -209c-6 -19.333 1 -29 21 -29h42l68 238h120z" />
    <glyph glyph-name="uni0448" unicode="&#x448;" horiz-adv-x="611" 
d="M640 550l-157 -550h-511l157 550h120l-126 -440h76l126 440h119l-126 -440h76l126 440h120z" />
    <glyph glyph-name="uni0449" unicode="&#x449;" horiz-adv-x="623" 
d="M514 110h47l-57 -200h-81v90h-451l157 550h120l-126 -440h76l126 440h119l-126 -440h76l126 440h120z" />
    <glyph glyph-name="uni044A" unicode="&#x44a;" horiz-adv-x="447" 
d="M295 340c42.667 0 73 -13.5 91 -40.5s20.667 -62.167 8 -105.5l-17 -61c-12.667 -46 -31.5 -79.667 -56.5 -101s-57.5 -32 -97.5 -32h-198l126 440h-88l31 110h208l-60 -210h53zM278 208c6 19.333 -0.999023 29 -20.999 29h-44l-39 -134h52c15.333 0 25.666 10 30.999 30
z" />
    <glyph glyph-name="uni044B" unicode="&#x44b;" horiz-adv-x="584" 
d="M-28 0l157 550h120l-60 -210h53c42.667 0 73 -13.5 91 -40.5s20.667 -62.167 8 -105.5l-17 -61c-12.667 -46 -31.5 -79.667 -56.5 -101s-57.5 -32 -97.5 -32h-198zM336 0l157 550h120l-157 -550h-120zM121 103h52.001c15.333 0 25.666 10 30.999 30l21 75
c6 19.333 -1 29 -21 29h-44z" />
    <glyph glyph-name="uni044C" unicode="&#x44c;" horiz-adv-x="394" 
d="M242 340c42.667 0 73 -13.5 91 -40.5s20.667 -62.167 8 -105.5l-17 -61c-12.667 -46 -31.5 -79.667 -56.5 -101s-57.5 -32 -97.5 -32h-198l157 550h120l-60 -210h53zM225 208c6 19.333 -0.999023 29 -20.999 29h-44l-39 -134h52c15.333 0 25.666 10 30.999 30z" />
    <glyph glyph-name="uni044D" unicode="&#x44d;" horiz-adv-x="398" 
d="M286 555c42 0 72 -13.333 90 -40s20.667 -62 8 -106l-80 -281c-13.333 -46 -32.333 -79.667 -57 -101s-57 -32 -97 -32h-63c-42.667 0 -73.167 13.5 -91.5 40.5s-21.166 62.167 -8.49902 105.5l15 50h118l-18 -61c-6 -19.333 1 -29 21 -29h36
c15.333 0 25.666 10 30.999 30l26 92h-94l30 104h94l27 93c6 19.333 -1 29 -21 29h-37c-14.667 0 -24.667 -10 -30 -30l-17 -60h-115l18 63c12.667 46 31.5 79.667 56.5 101s57.5 32 97.5 32h61z" />
    <glyph glyph-name="uni044E" unicode="&#x44e;" horiz-adv-x="608" 
d="M503 555c42.667 0 73 -13.5 91 -40.5s20.667 -62.167 8 -105.5l-80 -281c-12.667 -46 -31.5 -79.667 -56.5 -101s-57.5 -32 -97.5 -32h-61c-42.667 0 -73 13.5 -91 40.5s-20.667 62.167 -8 105.5l22 79h-75l-63 -220h-120l157 550h120l-63 -220h76l26 92
c12.667 46 31.5 79.667 56.5 101s57.5 32 97.5 32h61zM484 416c6 19.333 -1 29 -21 29h-30c-15.333 0 -25.666 -10 -30.999 -30l-80 -281c-6 -19.333 1 -29 21 -29h30c15.333 0 25.666 10 30.999 30z" />
    <glyph glyph-name="uni044F" unicode="&#x44f;" horiz-adv-x="406" 
d="M-68 0l159 240c-31.333 26 -39.333 66.667 -24 122l16 55c12.667 46 31.5 79.667 56.5 101s57.5 32 97.5 32h198l-157 -550h-120l60 210h-29l-134 -210h-123zM200 302h44l42 146h-52c-14.667 0 -25 -10 -31 -30l-24 -87c-6 -19.333 1 -29 21 -29z" />
    <glyph glyph-name="uni0451" unicode="&#x451;" horiz-adv-x="410" 
d="M264 585h-108l34 120h108zM298 585l34 120h108l-34 -120h-108zM305 555c42.667 0 73 -13.5 91 -40.5s20.667 -62.167 8 -105.5l-49 -170h-203l-31 -109c-6 -19.333 1 -29 21 -29h31c14.667 0 24.667 10 30 30l16 54h118l-16 -57c-13.333 -46 -32.333 -79.667 -57 -101
s-57 -32 -97 -32h-61c-42.667 0 -73 13.5 -91 40.5s-20.667 62.167 -8 105.5l81 281c12.667 46 31.5 79.667 56.5 101s57.5 32 97.5 32h63zM179 332h84.999l25 88c6 19.333 -1 29 -21 29h-33c-15.333 0 -25.666 -10 -30.999 -30z" />
    <glyph glyph-name="uni0454" unicode="&#x454;" horiz-adv-x="393" 
d="M305 555c42.667 0 72.999 -13.5 90.999 -40.5s20.667 -62.167 8 -105.5l-14 -50h-118l17 61c6 19.333 -1 29 -21 29h-36c-15.333 0 -25.666 -10 -30.999 -30l-26 -92h94l-30 -104h-94l-27 -93c-6 -19.333 1 -29 21 -29h37c14.667 0 24.667 10 30 30l18 60h118l-18 -63
c-13.333 -46 -32.333 -79.667 -57 -101s-57 -32 -97 -32h-64c-42.667 0 -73 13.5 -91 40.5s-20.667 62.167 -8 105.5l81 281c12.667 46 31.5 79.667 56.5 101s57.5 32 97.5 32h63z" />
    <glyph glyph-name="uni0456" unicode="&#x456;" horiz-adv-x="211" 
d="M293 705l-34 -120h-120l34 120h120zM249 550l-157 -550h-120l157 550h120z" />
    <glyph glyph-name="uni0457" unicode="&#x457;" horiz-adv-x="220" 
d="M216 705l-34 -120h-108l34 120h108zM358 705l-34 -120h-108l34 120h108zM249 550l-157 -550h-120l157 550h120z" />
    <glyph glyph-name="uni045E" unicode="&#x45e;" horiz-adv-x="380" 
d="M267 595c-30.667 0 -51.667 9.5 -63 28.5s-12.666 43.167 -3.99902 72.5l2 9h83l-5 -20c-2.66699 -8 -2.83398 -13.667 -0.500977 -17s7.5 -5 15.5 -5h25c11.333 0 19 7.66699 23 23l5 19h83l-5 -19c-15.333 -60.667 -50 -91 -104 -91h-55zM446 550l-263 -572
c-42 -88.667 -100.333 -133 -175 -133h-83l31 110h45c19.333 0 33 5.66699 41 17l54 578h115l-30 -231l-39 -209h4l175 440h125z" />
    <glyph glyph-name="uni0490" unicode="&#x490;" horiz-adv-x="361" 
d="M-23 0l200 700h176l56 100h82l-62 -216h-160l-167 -584h-125z" />
    <glyph glyph-name="uni0491" unicode="&#x491;" horiz-adv-x="320" 
d="M384 550l-31 -110h-135l-126 -440h-120l157 550h143l62 90h75z" />
    <glyph glyph-name="Wgrave" unicode="&#x1e80;" horiz-adv-x="650" 
d="M429 855l58 -120h-97l-76 120h115zM274 700l-46 -292l-33 -173h4l175 373h78l-28 -373h4l69 181l117 284h128l-303 -700h-123l24 330h-4l-149 -330h-132l97 700h122z" />
    <glyph glyph-name="wgrave" unicode="&#x1e81;" horiz-adv-x="572" 
d="M348 705l58 -120h-97l-76 120h115zM213 550l-35 -229l-25 -136h5l148 293h71l-17 -293h5l50 129l100 236h116l-239 -550h-121l6 237h-5l-117 -237h-119l63 550h114z" />
    <glyph glyph-name="Wacute" unicode="&#x1e82;" horiz-adv-x="650" 
d="M483 855h120l-105 -120h-91zM274 700l-46 -292l-33 -173h4l175 373h78l-28 -373h4l69 181l117 284h128l-303 -700h-123l24 330h-4l-149 -330h-132l97 700h122z" />
    <glyph glyph-name="wacute" unicode="&#x1e83;" horiz-adv-x="572" 
d="M402 705h120l-105 -120h-91zM213 550l-35 -229l-25 -136h5l148 293h71l-17 -293h5l50 129l100 236h116l-239 -550h-121l6 237h-5l-117 -237h-119l63 550h114z" />
    <glyph glyph-name="Wdieresis" unicode="&#x1e84;" horiz-adv-x="650" 
d="M474 855l-34 -120h-108l34 120h108zM616 855l-34 -120h-108l34 120h108zM274 700l-46 -292l-33 -173h4l175 373h78l-28 -373h4l69 181l117 284h128l-303 -700h-123l24 330h-4l-149 -330h-132l97 700h122z" />
    <glyph glyph-name="wdieresis" unicode="&#x1e85;" horiz-adv-x="572" 
d="M393 705l-34 -120h-108l34 120h108zM535 705l-34 -120h-108l34 120h108zM213 550l-35 -229l-25 -136h5l148 293h71l-17 -293h5l50 129l100 236h116l-239 -550h-121l6 237h-5l-117 -237h-119l63 550h114z" />
    <glyph glyph-name="uni1E9E" unicode="&#x1e9e;" horiz-adv-x="560" 
d="M593 604l-173 -182c48 -1.33301 80.333 -16 97 -44s18.667 -63.667 6 -107l-34 -121c-16 -55.333 -37.667 -95 -65 -119s-63.333 -36 -108 -36h-14c-52.667 0 -88.667 16.333 -108 49s-22 73.667 -8 123l16 57h114l-23 -76c-6.66699 -24.667 2.33301 -37 27 -37h8
c11.333 0 19.833 3.16699 25.5 9.5s10.5 16.166 14.5 29.499l38 133c6.66699 24.667 -2.33301 37 -27 37h-128l25 86l171 178h-156c-11.333 0 -19.833 -3.16699 -25.5 -9.5s-10.5 -16.166 -14.5 -29.499l-156 -545h-118l156 545c16 55.333 38 95 66 119s65 36 111 36h310z
" />
    <glyph glyph-name="Ygrave" unicode="&#x1ef2;" horiz-adv-x="422" 
d="M276 735l-76 120h115l58 -120h-97zM265 242l-69 -242h-125l67 237l-6 463h124l-7 -156l-13 -165h5l159 321h134z" />
    <glyph glyph-name="ygrave" unicode="&#x1ef3;" horiz-adv-x="380" 
d="M215 585l-76 120h115l58 -120h-97zM446 550l-263 -572c-42 -88.667 -100.333 -133 -175 -133h-83l31 110h45c19.333 0 33 5.66699 41 17l54 578h115l-30 -231l-39 -209h4l175 440h125z" />
    <glyph glyph-name="endash" unicode="&#x2013;" horiz-adv-x="430" 
d="M385 255h-350l31 110h350z" />
    <glyph glyph-name="emdash" unicode="&#x2014;" horiz-adv-x="620" 
d="M575 255h-540l31 110h540z" />
    <glyph glyph-name="quoteleft" unicode="&#x2018;" horiz-adv-x="230" 
d="M192 705h100l-66 -230h-130z" />
    <glyph glyph-name="quoteright" unicode="&#x2019;" horiz-adv-x="230" 
d="M206 475h-100l66 230h130z" />
    <glyph glyph-name="quotesinglbase" unicode="&#x201a;" horiz-adv-x="230" 
d="M46 -90h-100l66 230h130z" />
    <glyph glyph-name="quotedblleft" unicode="&#x201c;" horiz-adv-x="420" 
d="M192 705h100l-66 -230h-130zM382 705h100l-66 -230h-130z" />
    <glyph glyph-name="quotedblright" unicode="&#x201d;" horiz-adv-x="420" 
d="M206 475h-100l66 230h130zM396 475h-100l66 230h130z" />
    <glyph glyph-name="quotedblbase" unicode="&#x201e;" horiz-adv-x="420" 
d="M46 -90h-100l66 230h130zM236 -90h-100l66 230h130z" />
    <glyph glyph-name="dagger" unicode="&#x2020;" 
d="M454 444h-135l-127 -444h-100l127 444h-135l30 106h135l43 150h100l-43 -150h135z" />
    <glyph glyph-name="daggerdbl" unicode="&#x2021;" 
d="M319 444l-54 -188h135l-30 -106h-135l-43 -150h-100l43 150h-135l30 106h135l54 188h-135l30 106h135l43 150h100l-43 -150h135l-30 -106h-135z" />
    <glyph glyph-name="bullet" unicode="&#x2022;" horiz-adv-x="430" 
d="M217 195c-33.333 0 -60.833 10.833 -82.5 32.5s-32.5 49.167 -32.5 82.5s10.833 60.833 32.5 82.5s49.167 32.5 82.5 32.5s60.833 -10.833 82.5 -32.5s32.5 -49.167 32.5 -82.5s-10.833 -60.833 -32.5 -82.5s-49.167 -32.5 -82.5 -32.5z" />
    <glyph glyph-name="ellipsis" unicode="&#x2026;" horiz-adv-x="650" 
d="M102 0h-130l40 140h130zM312 0h-130l40 140h130zM522 0h-130l40 140h130z" />
    <glyph glyph-name="perthousand" unicode="&#x2030;" horiz-adv-x="806" 
d="M129 619c16.667 57.333 50.0029 86 100.003 86h46c27.333 0 47.166 -8.66699 59.499 -26s14.166 -40.333 5.49902 -69l-33 -117c-16.667 -57.333 -50.334 -86 -101.001 -86h-47c-27.333 0 -46.833 8.83301 -58.5 26.5s-13.5 40.5 -5.5 68.5zM618.003 700l-575 -700h-81
l575 700h81zM171.003 494c-4 -12 0.333008 -18 13 -18h26c10 0 16.333 6.33301 19 19l35 122c4 12.667 0 19 -12 19h-25c-10 0 -17 -6.66699 -21 -20zM273.003 207c16.667 57.333 50.333 86 101 86h46c27.333 0 47 -8.66699 59 -26s14 -40.333 6 -69l-34 -117
c-16.667 -57.333 -50 -86 -100 -86h-47c-27.333 0 -46.833 8.83301 -58.5 26.5s-13.5 40.5 -5.5 68.5zM543.002 207c16.667 57.333 50.333 86 101 86h46c27.333 0 47 -8.66699 59 -26s14 -40.333 6 -69l-34 -117c-16.667 -57.333 -50 -86 -100 -86h-47
c-27.333 0 -46.833 8.83301 -58.5 26.5s-13.5 40.5 -5.5 68.5zM315.001 82c-2.66699 -12 1.66602 -18 12.999 -18h26c9.33301 0 16 6.33301 20 19l35 122c2.66699 12.667 -1.66602 19 -12.999 19h-25c-10 0 -17 -6.66699 -21 -20zM585.001 82
c-2.66699 -12 1.66602 -18 12.999 -18h26c9.33301 0 16 6.33301 20 19l35 122c2.66699 12.667 -1.66602 19 -12.999 19h-25c-10 0 -17 -6.66699 -21 -20z" />
    <glyph glyph-name="guilsinglleft" unicode="&#x2039;" horiz-adv-x="250" 
d="M145 305l32 -149h-90l-34 127l17 60l94 121h101z" />
    <glyph glyph-name="guilsinglright" unicode="&#x203a;" horiz-adv-x="250" 
d="M228 337l-17 -60l-93 -121h-101l119 159l-31 149h90z" />
    <glyph glyph-name="Euro" unicode="&#x20ac;" 
d="M365 705c52.667 0 88.667 -16.333 108 -49s22 -73.667 8 -123l-12 -43h-119l19 62c6.66699 24.667 -2.33301 37 -27 37h-22c-11.333 0 -19.833 -3.16699 -25.5 -9.5s-10.5 -16.166 -14.5 -29.499l-30 -105h140l-20 -70h-140l-14 -50h140l-20 -70h-140l-31 -107
c-6.66699 -24.667 2.33301 -37 27 -37h22c11.333 0 19.833 3.16699 25.5 9.5s10.5 16.166 14.5 29.499l17 60h117l-16 -60c-16 -55.333 -38 -95 -66 -119s-65 -36 -111 -36h-23c-52.667 0 -88.667 16.333 -108 49s-22 73.667 -8 123l25 88h-69l20 70h69l14 50h-69l20 70h69
l30 105c16 55.333 38 95 66 119s65 36 111 36h23z" />
    <glyph glyph-name="uni20B4" unicode="&#x20b4;" 
d="M346 705c52 0 88.667 -13.667 110 -41s26.333 -60.333 15 -99l-1 -6c-6.66699 -20.667 -34.667 -58.667 -84 -114h73l-20 -70h-115l-44 -50h145l-20 -70h-187l-42 -48c-21.333 -23.333 -34.333 -43.333 -39 -60l-3 -9c-5.33301 -18 4.66699 -27 30 -27h26
c11.333 0 19.833 3.16699 25.5 9.5s10.5 16.166 14.5 29.499l17 60h119l-17 -60c-16 -55.333 -38 -95 -66 -119s-65 -36 -111 -36h-38c-52 0 -88.667 13.667 -110 41s-26.333 60.333 -15 99l1 6c6.66699 20.667 34.667 58.667 84 114h-69l20 70h111l44 50h-141l20 70h183
l42 48c21.333 23.333 34.333 43.333 39 60l3 9c5.33301 18 -4.66699 27 -30 27h-26c-11.333 0 -19.833 -3.16699 -25.5 -9.5s-10.5 -16.166 -14.5 -29.499l-17 -60h-119l17 60c16 55.333 38 95 66 119s65 36 111 36h38z" />
    <glyph glyph-name="uni20BD" unicode="&#x20bd;" horiz-adv-x="481" 
d="M373 700c52 0 87.833 -16.333 107.5 -49s22.5 -73.667 8.5 -123l-29 -101c-16 -55.333 -38 -95 -66 -119s-65 -36 -111 -36h-82l-14 -47h141l-20 -70l-141 -1l-44 -154h-115l44 153l-69 -1l21 73h68l14 47h-68l20 70h68l102 358h165zM380 547
c6.66699 24.667 -2.33301 37.001 -27 37.001h-63l-56 -196h71c11.333 0 19.833 3.16699 25.5 9.5s10.5 16.166 14.5 29.499z" />
    <glyph glyph-name="uni2116" unicode="&#x2116;" horiz-adv-x="722" 
d="M581 629c14.667 50.667 43.332 76 85.999 76h52c24 0 41.333 -7.66699 52 -23s12.334 -35.333 5.00098 -60l-46 -159c-14.667 -50.667 -43.667 -76 -87 -76h-52c-24 0 -41.167 7.66699 -51.5 23s-11.833 35.333 -4.5 60zM178.998 700h109l13 -397h5l47 187l60 210h113
l-200 -700h-110l-12 397h-5l-47 -187l-60 -210h-113zM604.998 470c-2.66699 -11.333 1 -17 11 -17h28c8.66699 0 14.667 5.66699 18 17l44 152c3.33301 11.333 -0.666992 17 -12 17h-27c-8.66699 0 -14.667 -5.66699 -18 -17zM683.998 335l-21 -74h-177l21 74h177z" />
    <glyph glyph-name="trademark" unicode="&#x2122;" horiz-adv-x="475" 
d="M235 646l-62 -216h-59l62 216h-49l15 54h157l-15 -54h-49zM537 700l-77 -270h-58l23 80l25 78h-2l-63 -113h-32l1 113h-2l-19 -78l-23 -80h-58l77 270h59l6 -130l76 130h67z" />
    <glyph glyph-name="minus" unicode="&#x2212;" 
d="M386 260h-340l29 100h340z" />
    <glyph glyph-name="approxequal" unicode="&#x2248;" 
d="M89 410c10.667 34.667 22.9971 60.167 36.9971 76.5s34.333 24.5 61 24.5c16 0 28.833 -2.5 38.5 -7.5s20.834 -13.833 33.501 -26.5l36 -36l10.5 -10.5c5 -5 8.66699 -8.33301 11 -10s4.83301 -2.5 7.5 -2.5c5.33301 0 9.33301 4.33301 12 13l23 80h99l-29 -101
c-10 -34.667 -22.167 -60.167 -36.5 -76.5s-34.833 -24.5 -61.5 -24.5c-16 0 -28.667 2.33301 -38 7s-20.666 13.667 -33.999 27l-36 36c-15.333 15.333 -24.666 23 -27.999 23c-6 0 -10.333 -4.33301 -13 -13l-23 -80h-99zM19.9971 170
c10.667 34.667 22.9971 60.167 36.9971 76.5s34.333 24.5 61 24.5c16 0 28.833 -2.5 38.5 -7.5s20.834 -13.833 33.501 -26.5l36 -36l10.5 -10.5c5 -5 8.66699 -8.33301 11 -10s4.83301 -2.5 7.5 -2.5c5.33301 0 9.33301 4.33301 12 13l23 80h99l-29 -101
c-10 -34.667 -22.167 -60.167 -36.5 -76.5s-34.833 -24.5 -61.5 -24.5c-16 0 -28.667 2.33301 -38 7s-20.666 13.667 -33.999 27l-36 36c-15.333 15.333 -24.666 23 -27.999 23c-6 0 -10.333 -4.33301 -13 -13l-23 -80h-99z" />
    <glyph glyph-name="notequal" unicode="&#x2260;" 
d="M7 90l61 80h-47l28 100h95l61 80h-133l29 100h180l61 80h112l-61 -80h48l-29 -100h-95l-61 -80h133l-28 -100h-181l-61 -80h-112z" />
    <glyph glyph-name="lessequal" unicode="&#x2264;" 
d="M439 444l-200 -71l160 -71l-29 -101l-283 130l28 100l358 130zM38 160h320l-29 -100h-320z" />
    <glyph glyph-name="greaterequal" unicode="&#x2265;" 
d="M435 431l-28 -100l-358 -130l34 117l200 71l-160 71l29 101zM38 160h320l-29 -100h-320z" />
    <glyph glyph-name=".null" horiz-adv-x="0" 
 />
    <glyph glyph-name="nonmarkingreturn" horiz-adv-x="333" 
 />
    <glyph glyph-name="i.loclTRK" horiz-adv-x="220" 
d="M293 705l-34 -120h-120l34 120h120zM249 550l-157 -550h-120l157 550h120z" />
    <glyph glyph-name="a.ss01" horiz-adv-x="420" 
d="M454 550l-157.001 -550h-87v60c-38 -43.333 -76.333 -65 -115 -65h-12c-34.667 0 -59.167 13.5 -73.5 40.5s-15.166 62.167 -2.49902 105.5l81 281c24.667 88.667 72.667 133 144 133h4c42.667 0 74 -21.333 94 -64l37 59h87zM295.999 416
c6 19.333 -1.00098 29 -21.001 29h-38c-15.333 0 -25.666 -10 -30.999 -30l-81 -281c-4.66699 -19.333 2.33301 -29 21 -29h39c14.667 0 25 10 31 30z" />
    <glyph glyph-name="zero.osf" 
d="M360 150c-16 -55.333 -38 -95 -66 -119s-65 -36 -111 -36h-52c-52.667 0 -88.667 16.333 -108 49s-22 73.667 -8 123l66 233c16 55.333 38.167 95 66.5 119s65.5 36 111.5 36h52c52 0 87.667 -16.333 107 -49s22 -73.667 8 -123zM309 402
c6.66699 24.667 -2.33301 37 -27 37h-38c-11.333 0 -19.833 -3.16699 -25.5 -9.5s-10.5 -16.166 -14.5 -29.499l-72 -252c-6.66699 -24.667 2.33301 -37 27 -37h38c11.333 0 19.833 3.16699 25.5 9.5s10.5 16.166 14.5 29.499z" />
    <glyph glyph-name="one.osf" horiz-adv-x="288" 
d="M145 0h-123l126 440h-85l31 110h208z" />
    <glyph glyph-name="two.osf" 
d="M-26 0l16.998 61.002c9.33301 31.333 19.833 57.666 31.5 78.999s28.5 39.666 50.5 54.999l203 142c12.667 8.66699 22 23 28 43l6 22c6.66699 24.667 -2.33301 37 -27 37h-32c-11.333 0 -19.833 -3.16699 -25.5 -9.5s-10.5 -16.166 -14.5 -29.499l-17 -61h-123l17 61
c16 55.333 38.167 95 66.5 119s65.5 36 111.5 36h46c52.667 0 88.834 -15.333 108.501 -46s22.834 -69.334 9.50098 -116.001l-4 -15c-14 -50 -44.333 -91.333 -91 -124l-194 -134h211l-34 -120h-344z" />
    <glyph glyph-name="three.osf" horiz-adv-x="420" 
d="M287 555c52 0 87.833 -16.332 107.5 -48.999s22.5 -73.667 8.5 -123l-22 -82c-8 -31.333 -18.167 -54.833 -30.5 -70.5s-28.5 -27.5 -48.5 -35.5c27.333 -25.333 35 -60 23 -104l-26 -91c-16 -55.333 -38 -95 -66 -119s-65 -36 -111 -36h-45
c-52.667 0 -88.667 16.333 -108 49s-22 73.667 -8 123l22 78h119l-28 -97c-6.66699 -24.667 2.33301 -37 27 -37h35c11.333 0 19.833 3.16699 25.5 9.5s10.5 16.166 14.5 29.499l30 105c6.66699 24.667 -2.33301 37 -27 37h-61l34 116h64c11.333 0 19.833 3.16699 25.5 9.5
s10.5 16.166 14.5 29.499l30 105c6.66699 24.667 -2.33301 37 -27 37h-30c-11.333 0 -19.833 -3.16699 -25.5 -9.5s-10.5 -16.166 -14.5 -29.499l-22 -79h-119l22 79c16 55.333 38 95 66 119s65 36 111 36h40z" />
    <glyph glyph-name="four.osf" horiz-adv-x="422" 
d="M290 98h66l-32 -113h-66l-39 -135h-117l38 135h-215l29 103l327 462h77l-2 -3l3 3h60zM173 98l34 121l43 122h-5l-167 -243h95z" />
    <glyph glyph-name="five.osf" horiz-adv-x="421" 
d="M204 430l-43 -131.999c34 30.667 67 46 99 46h13c36.667 0 63.334 -13.5 80.001 -40.5s18.667 -62.167 6 -105.5l-56 -198c-16 -55.333 -38 -95 -66 -119s-65 -36 -111 -36h-48c-52.667 0 -88.667 16.333 -108 49s-22 73.667 -8 123l22 78h119l-28 -97
c-6.66699 -24.667 2.33301 -37 27 -37h38c11.333 0 19.833 3.16699 25.5 9.5s10.5 16.166 14.5 29.499l58 202c6.66699 24.667 -2.33301 37 -27 37h-33c-7.33301 0 -13.833 -1.83301 -19.5 -5.5s-9.83398 -7.5 -12.501 -11.5s-6.66699 -11.333 -12 -22h-116l113 350h308
l-34 -120h-201z" />
    <glyph glyph-name="six.osf" horiz-adv-x="428" 
d="M347 705c52.667 0 88.666 -16.334 107.999 -49.001s22 -73.667 8 -123l-9 -32h-120l15 51c6.66699 24.667 -2.33301 37 -27 37h-34c-11.333 0 -19.833 -3.16699 -25.5 -9.5s-10.5 -16.166 -14.5 -29.499l-40 -141c28.667 25.333 57.334 38 86.001 38h21
c37.333 0 63.833 -13.5 79.5 -40.5s17.167 -62.167 4.5 -105.5l-43 -151c-16 -55.333 -38 -95 -66 -119s-65 -36 -111 -36h-45c-52.667 0 -88.667 16.333 -108 49s-22 73.667 -8 123l109 383c16 55.333 38 95 66 119s65 36 111 36h43zM217.999 342.999
c-11.333 0 -19.833 -3.16699 -25.5 -9.5s-10.5 -16.166 -14.5 -29.499l-45 -156c-6.66699 -24.667 2.33301 -37 27 -37h34c11.333 0 19.833 3.16699 25.5 9.5s10.5 16.166 14.5 29.499l44 156c8 24.667 -1 37 -27 37h-33z" />
    <glyph glyph-name="seven.osf" horiz-adv-x="381" 
d="M429 550l-25 -90l-348 -610h-127l343 580h-207l34 120h330z" />
    <glyph glyph-name="eight.osf" 
d="M348 705c52.667 0 88.667 -16.3359 108 -49.0029s22 -73.667 8 -123l-22 -78c-8 -30.667 -18 -54 -30 -70s-28 -28 -48 -36c28 -26 35.667 -60.667 23 -104l-27 -95c-16 -55.333 -38 -95 -66 -119s-65 -36 -111 -36h-52c-52.667 0 -88.667 16.167 -108 48.5
s-22 73.5 -8 123.5l22 78c8.66699 32.667 19.5 56.834 32.5 72.501s30.5 27.834 52.5 36.501c-25.333 24.667 -32 58.334 -20 101.001l27 95c16 56 38 95.833 66 119.5s65 35.5 111 35.5h42zM280 400.997c11.333 0 19.833 3.16699 25.5 9.5s10.5 16.166 14.5 29.499l35 122
c6.66699 24.667 -2.33301 37 -27 37h-38c-11.333 0 -19.833 -3.16699 -25.5 -9.5s-10.5 -16.166 -14.5 -29.499l-35 -122c-6.66699 -24.667 2.33301 -37 27 -37h38zM269 261.997c6.66699 24.667 -2.33301 37 -27 37h-38c-11.333 0 -19.833 -3.16699 -25.5 -9.5
s-10.5 -16.166 -14.5 -29.499l-32 -112c-6.66699 -24.667 2.33301 -37 27 -37h38c11.333 0 19.833 3.16699 25.5 9.5s10.5 16.166 14.5 29.499z" />
    <glyph glyph-name="nine.osf" horiz-adv-x="428" 
d="M295 555c52.667 0 88.668 -16.332 108.001 -48.999s22 -73.667 8 -123l-109 -383c-16 -55.333 -38 -95 -66 -119s-65 -36 -111 -36h-43c-52.667 0 -88.667 16.333 -108 49s-22 73.667 -8 123l9 32h120l-15 -51c-6.66699 -24.667 2.33301 -37 27 -37h34
c11.333 0 19.833 3.16699 25.5 9.5s10.5 16.166 14.5 29.499l40 141c-28.667 -25.333 -57.334 -38 -86.001 -38h-21c-37.333 0 -63.833 13.5 -79.5 40.5s-17.167 62.167 -4.5 105.5l43 151c16 55.333 38 95 66 119s65 36 111 36h45zM296.001 402.001
c6.66699 24.667 -2.33301 37 -27 37h-34c-11.333 0 -19.833 -3.16699 -25.5 -9.5s-10.5 -16.166 -14.5 -29.499l-44 -156c-8 -24.667 1 -37 27 -37h33c11.333 0 19.833 3.16699 25.5 9.5s10.5 16.166 14.5 29.499z" />
    <glyph glyph-name="zero.tf" 
d="M360 150c-16 -55.333 -38 -95 -66 -119s-65 -36 -111 -36h-52c-52.667 0 -88.667 16.333 -108 49s-22 73.667 -8 123l109 383c16 55.333 38 95 66 119s65 36 111 36h52c52.667 0 88.667 -16.333 108 -49s22 -73.667 8 -123zM352 552c6.66699 24.667 -2.33301 37 -27 37
h-38c-11.333 0 -19.833 -3.16699 -25.5 -9.5s-10.5 -16.166 -14.5 -29.499l-115 -402c-6.66699 -24.667 2.33301 -37 27 -37h38c11.333 0 19.833 3.16699 25.5 9.5s10.5 16.166 14.5 29.499z" />
    <glyph glyph-name="one.tf" 
d="M237 110h111l-31 -110h-340l31 110h106l138 480h-106l31 110h229z" />
    <glyph glyph-name="two.tf" 
d="M6 111c15.333 52 42.333 96.6641 81 133.997l225 218c14.667 14.667 24 29 28 43l13 46c6.66699 24.667 -2.33301 37 -27 37h-32c-11.333 0 -19.833 -3.16699 -25.5 -9.5s-10.5 -16.166 -14.5 -29.499l-17 -60h-123l17 60c16 55.333 38 95 66 119s65 36 111 36h46
c52.667 0 88.667 -16.333 108 -49s22 -73.667 8 -123l-7 -25c-11.333 -39.333 -33 -74.666 -65 -105.999l-236 -227c-13.333 -13.333 -22.333 -27.666 -27 -42.999l-4 -12h221l-34 -120h-344z" />
    <glyph glyph-name="three.tf" 
d="M335 705c52 0 87.833 -16.332 107.5 -48.999s22.5 -73.667 8.5 -123l-22 -82c-8 -31.333 -18.167 -54.833 -30.5 -70.5s-28.5 -27.5 -48.5 -35.5c27.333 -25.333 35 -60 23 -104l-26 -91c-16 -55.333 -38 -95 -66 -119s-65 -36 -111 -36h-45
c-52.667 0 -88.667 16.333 -108 49s-22 73.667 -8 123l22 78h119l-28 -97c-6.66699 -24.667 2.33301 -37 27 -37h35c11.333 0 19.833 3.16699 25.5 9.5s10.5 16.166 14.5 29.499l30 105c6.66699 24.667 -2.33301 37 -27 37h-61l34 116h64c11.333 0 19.833 3.16699 25.5 9.5
s10.5 16.166 14.5 29.499l30 105c6.66699 24.667 -2.33301 37 -27 37h-30c-11.333 0 -19.833 -3.16699 -25.5 -9.5s-10.5 -16.166 -14.5 -29.499l-22 -79h-119l22 79c16 55.333 38 95 66 119s65 36 111 36h40z" />
    <glyph glyph-name="four.tf" 
d="M351 248h66l-32 -113h-66l-39 -135h-117l38 135h-225l29 103l337 462h77l-2 -3l3 3h60zM234 248l34 121l43 122h-5l-177 -243h105z" />
    <glyph glyph-name="five.tf" 
d="M261 580l-43 -131.999c34 30.667 67 46 99 46h13c36.667 0 63.334 -13.5 80.001 -40.5s18.667 -62.167 6 -105.5l-56 -198c-16 -55.333 -38 -95 -66 -119s-65 -36 -111 -36h-48c-52.667 0 -88.667 16.333 -108 49s-22 73.667 -8 123l22 78h119l-28 -97
c-6.66699 -24.667 2.33301 -37 27 -37h38c11.333 0 19.833 3.16699 25.5 9.5s10.5 16.166 14.5 29.499l58 202c6.66699 24.667 -2.33301 37 -27 37h-33c-7.33301 0 -13.833 -1.83301 -19.5 -5.5s-9.83398 -7.5 -12.501 -11.5s-6.66699 -11.333 -12 -22h-116l113 350h308
l-34 -120h-201z" />
    <glyph glyph-name="six.tf" 
d="M350 705c52.667 0 88.666 -16.334 107.999 -49.001s22 -73.667 8 -123l-9 -32h-120l15 51c6.66699 24.667 -2.33301 37 -27 37h-34c-11.333 0 -19.833 -3.16699 -25.5 -9.5s-10.5 -16.166 -14.5 -29.499l-40 -141c28.667 25.333 57.334 38 86.001 38h21
c37.333 0 63.833 -13.5 79.5 -40.5s17.167 -62.167 4.5 -105.5l-43 -151c-16 -55.333 -38 -95 -66 -119s-65 -36 -111 -36h-45c-52.667 0 -88.667 16.333 -108 49s-22 73.667 -8 123l109 383c16 55.333 38 95 66 119s65 36 111 36h43zM220.999 342.999
c-11.333 0 -19.833 -3.16699 -25.5 -9.5s-10.5 -16.166 -14.5 -29.499l-45 -156c-6.66699 -24.667 2.33301 -37 27 -37h34c11.333 0 19.833 3.16699 25.5 9.5s10.5 16.166 14.5 29.499l44 156c8 24.667 -1 37 -27 37h-33z" />
    <glyph glyph-name="seven.tf" 
d="M534 700l-26 -90l-373 -610h-137l368 580h-244l34 120h378z" />
    <glyph glyph-name="eight.tf" 
d="M348 705c52.667 0 88.667 -16.3359 108 -49.0029s22 -73.667 8 -123l-22 -78c-8 -30.667 -18 -54 -30 -70s-28 -28 -48 -36c28 -26 35.667 -60.667 23 -104l-27 -95c-16 -55.333 -38 -95 -66 -119s-65 -36 -111 -36h-52c-52.667 0 -88.667 16.167 -108 48.5
s-22 73.5 -8 123.5l22 78c8.66699 32.667 19.5 56.834 32.5 72.501s30.5 27.834 52.5 36.501c-25.333 24.667 -32 58.334 -20 101.001l27 95c16 56 38 95.833 66 119.5s65 35.5 111 35.5h42zM280 400.997c11.333 0 19.833 3.16699 25.5 9.5s10.5 16.166 14.5 29.499l35 122
c6.66699 24.667 -2.33301 37 -27 37h-38c-11.333 0 -19.833 -3.16699 -25.5 -9.5s-10.5 -16.166 -14.5 -29.499l-35 -122c-6.66699 -24.667 2.33301 -37 27 -37h38zM269 261.997c6.66699 24.667 -2.33301 37 -27 37h-38c-11.333 0 -19.833 -3.16699 -25.5 -9.5
s-10.5 -16.166 -14.5 -29.499l-32 -112c-6.66699 -24.667 2.33301 -37 27 -37h38c11.333 0 19.833 3.16699 25.5 9.5s10.5 16.166 14.5 29.499z" />
    <glyph glyph-name="nine.tf" 
d="M347 705c52.667 0 88.668 -16.332 108.001 -48.999s22 -73.667 8 -123l-109 -383c-16 -55.333 -38 -95 -66 -119s-65 -36 -111 -36h-43c-52.667 0 -88.667 16.333 -108 49s-22 73.667 -8 123l9 32h120l-15 -51c-6.66699 -24.667 2.33301 -37 27 -37h34
c11.333 0 19.833 3.16699 25.5 9.5s10.5 16.166 14.5 29.499l40 141c-28.667 -25.333 -57.334 -38 -86.001 -38h-21c-37.333 0 -63.833 13.5 -79.5 40.5s-17.167 62.167 -4.5 105.5l43 151c16 55.333 38 95 66 119s65 36 111 36h45zM348.001 552.001
c6.66699 24.667 -2.33301 37 -27 37h-34c-11.333 0 -19.833 -3.16699 -25.5 -9.5s-10.5 -16.166 -14.5 -29.499l-44 -156c-8 -24.667 1 -37 27 -37h33c11.333 0 19.833 3.16699 25.5 9.5s10.5 16.166 14.5 29.499z" />
    <glyph glyph-name="zero.tosf" 
d="M360 150c-16 -55.333 -38 -95 -66 -119s-65 -36 -111 -36h-52c-52.667 0 -88.667 16.333 -108 49s-22 73.667 -8 123l66 233c16 55.333 38.167 95 66.5 119s65.5 36 111.5 36h52c52 0 87.667 -16.333 107 -49s22 -73.667 8 -123zM309 402
c6.66699 24.667 -2.33301 37 -27 37h-38c-11.333 0 -19.833 -3.16699 -25.5 -9.5s-10.5 -16.166 -14.5 -29.499l-72 -252c-6.66699 -24.667 2.33301 -37 27 -37h38c11.333 0 19.833 3.16699 25.5 9.5s10.5 16.166 14.5 29.499z" />
    <glyph glyph-name="one.tosf" 
d="M237 110h111l-31 -110h-340l31 110h106l95 330h-106l31 110h229z" />
    <glyph glyph-name="two.tosf" 
d="M-26 0l16.998 61.002c9.33301 31.333 19.833 57.666 31.5 78.999s28.5 39.666 50.5 54.999l203 142c12.667 8.66699 22 23 28 43l6 22c6.66699 24.667 -2.33301 37 -27 37h-32c-11.333 0 -19.833 -3.16699 -25.5 -9.5s-10.5 -16.166 -14.5 -29.499l-17 -61h-123l17 61
c16 55.333 38.167 95 66.5 119s65.5 36 111.5 36h46c52.667 0 88.834 -15.333 108.501 -46s22.834 -69.334 9.50098 -116.001l-4 -15c-14 -50 -44.333 -91.333 -91 -124l-194 -134h211l-34 -120h-344z" />
    <glyph glyph-name="three.tosf" 
d="M292 555c52 0 87.833 -16.332 107.5 -48.999s22.5 -73.667 8.5 -123l-22 -82c-8 -31.333 -18.167 -54.833 -30.5 -70.5s-28.5 -27.5 -48.5 -35.5c27.333 -25.333 35 -60 23 -104l-26 -91c-16 -55.333 -38 -95 -66 -119s-65 -36 -111 -36h-45
c-52.667 0 -88.667 16.333 -108 49s-22 73.667 -8 123l22 78h119l-28 -97c-6.66699 -24.667 2.33301 -37 27 -37h35c11.333 0 19.833 3.16699 25.5 9.5s10.5 16.166 14.5 29.499l30 105c6.66699 24.667 -2.33301 37 -27 37h-61l34 116h64c11.333 0 19.833 3.16699 25.5 9.5
s10.5 16.166 14.5 29.499l30 105c6.66699 24.667 -2.33301 37 -27 37h-30c-11.333 0 -19.833 -3.16699 -25.5 -9.5s-10.5 -16.166 -14.5 -29.499l-22 -79h-119l22 79c16 55.333 38 95 66 119s65 36 111 36h40z" />
    <glyph glyph-name="four.tosf" 
d="M308 98h66l-32 -113h-66l-39 -135h-117l38 135h-225l29 103l337 462h77l-2 -3l3 3h60zM191 98l34 121l43 122h-5l-177 -243h105z" />
    <glyph glyph-name="five.tosf" 
d="M218 430l-43 -131.999c34 30.667 67 46 99 46h13c36.667 0 63.334 -13.5 80.001 -40.5s18.667 -62.167 6 -105.5l-56 -198c-16 -55.333 -38 -95 -66 -119s-65 -36 -111 -36h-48c-52.667 0 -88.667 16.333 -108 49s-22 73.667 -8 123l22 78h119l-28 -97
c-6.66699 -24.667 2.33301 -37 27 -37h38c11.333 0 19.833 3.16699 25.5 9.5s10.5 16.166 14.5 29.499l58 202c6.66699 24.667 -2.33301 37 -27 37h-33c-7.33301 0 -13.833 -1.83301 -19.5 -5.5s-9.83398 -7.5 -12.501 -11.5s-6.66699 -11.333 -12 -22h-116l113 350h308
l-34 -120h-201z" />
    <glyph glyph-name="six.tosf" 
d="M350 705c52.667 0 88.666 -16.334 107.999 -49.001s22 -73.667 8 -123l-9 -32h-120l15 51c6.66699 24.667 -2.33301 37 -27 37h-34c-11.333 0 -19.833 -3.16699 -25.5 -9.5s-10.5 -16.166 -14.5 -29.499l-40 -141c28.667 25.333 57.334 38 86.001 38h21
c37.333 0 63.833 -13.5 79.5 -40.5s17.167 -62.167 4.5 -105.5l-43 -151c-16 -55.333 -38 -95 -66 -119s-65 -36 -111 -36h-45c-52.667 0 -88.667 16.333 -108 49s-22 73.667 -8 123l109 383c16 55.333 38 95 66 119s65 36 111 36h43zM220.999 342.999
c-11.333 0 -19.833 -3.16699 -25.5 -9.5s-10.5 -16.166 -14.5 -29.499l-45 -156c-6.66699 -24.667 2.33301 -37 27 -37h34c11.333 0 19.833 3.16699 25.5 9.5s10.5 16.166 14.5 29.499l44 156c8 24.667 -1 37 -27 37h-33z" />
    <glyph glyph-name="seven.tosf" 
d="M491 550l-26 -90l-373 -610h-137l368 580h-244l34 120h378z" />
    <glyph glyph-name="eight.tosf" 
d="M348 705c52.667 0 88.667 -16.3359 108 -49.0029s22 -73.667 8 -123l-22 -78c-8 -30.667 -18 -54 -30 -70s-28 -28 -48 -36c28 -26 35.667 -60.667 23 -104l-27 -95c-16 -55.333 -38 -95 -66 -119s-65 -36 -111 -36h-52c-52.667 0 -88.667 16.167 -108 48.5
s-22 73.5 -8 123.5l22 78c8.66699 32.667 19.5 56.834 32.5 72.501s30.5 27.834 52.5 36.501c-25.333 24.667 -32 58.334 -20 101.001l27 95c16 56 38 95.833 66 119.5s65 35.5 111 35.5h42zM280 400.997c11.333 0 19.833 3.16699 25.5 9.5s10.5 16.166 14.5 29.499l35 122
c6.66699 24.667 -2.33301 37 -27 37h-38c-11.333 0 -19.833 -3.16699 -25.5 -9.5s-10.5 -16.166 -14.5 -29.499l-35 -122c-6.66699 -24.667 2.33301 -37 27 -37h38zM269 261.997c6.66699 24.667 -2.33301 37 -27 37h-38c-11.333 0 -19.833 -3.16699 -25.5 -9.5
s-10.5 -16.166 -14.5 -29.499l-32 -112c-6.66699 -24.667 2.33301 -37 27 -37h38c11.333 0 19.833 3.16699 25.5 9.5s10.5 16.166 14.5 29.499z" />
    <glyph glyph-name="nine.tosf" 
d="M309 555c52.667 0 88.668 -16.332 108.001 -48.999s22 -73.667 8 -123l-109 -383c-16 -55.333 -38 -95 -66 -119s-65 -36 -111 -36h-43c-52.667 0 -88.667 16.333 -108 49s-22 73.667 -8 123l9 32h120l-15 -51c-6.66699 -24.667 2.33301 -37 27 -37h34
c11.333 0 19.833 3.16699 25.5 9.5s10.5 16.166 14.5 29.499l40 141c-28.667 -25.333 -57.334 -38 -86.001 -38h-21c-37.333 0 -63.833 13.5 -79.5 40.5s-17.167 62.167 -4.5 105.5l43 151c16 55.333 38 95 66 119s65 36 111 36h45zM310.001 402.001
c6.66699 24.667 -2.33301 37 -27 37h-34c-11.333 0 -19.833 -3.16699 -25.5 -9.5s-10.5 -16.166 -14.5 -29.499l-44 -156c-8 -24.667 1 -37 27 -37h33c11.333 0 19.833 3.16699 25.5 9.5s10.5 16.166 14.5 29.499z" />
    <glyph glyph-name="at.case" horiz-adv-x="650" 
d="M136 -5c-52.667 0 -88.665 16.332 -107.998 48.999s-22 73.667 -8 123l109 383c16 55.333 38 95 66 119s65 36 111 36h252c52.667 0 88.667 -16.333 108 -49s22 -73.667 8 -123l-77 -269c-16 -55.333 -38 -95 -66 -119s-65 -36 -111 -36h-92v49
c-28 -35.333 -57 -53 -87 -53h-8c-32.667 0 -54.667 11.5 -66 34.5s-11.333 53.833 0 92.5l7 23c10.667 38 24.167 64.833 40.5 80.5s40.833 29.167 73.5 40.5l82 30c11.333 4 18.666 11.667 21.999 23l15 51c4.66699 16.667 -1 25 -17 25h-26
c-12.667 0 -21.667 -8.66699 -27 -26l-14 -49h-93l13 46c11.333 40 27.833 69.333 49.5 88s49.834 28 84.501 28h41c37.333 0 63.666 -11.5 78.999 -34.5s17.666 -53.833 6.99902 -92.5l-83 -291h18c18 0 34.5 8.33301 49.5 25s26.167 38.334 33.5 65.001l77 269
c10 34.667 10 61.167 0 79.5s-29.667 27.5 -59 27.5h-252c-38 0 -66 -30 -84 -90l-109 -383c-10 -34.667 -10 -61.167 0 -79.5s29.667 -27.5 59 -27.5h235l-18 -65h-235zM282.002 197.999l25 -0.000976562c12.667 0 21.667 8.66699 27 26l29 102l-58 -26
c-14.667 -5.33301 -24.667 -17.666 -30 -36.999l-11 -40c-4.66699 -16.667 1.33301 -25 18 -25z" />
    <glyph glyph-name="brevecombcy.n" horiz-adv-x="0" 
d="M23 686c-15.333 -60.667 -50 -91 -104 -91h-55c-30.667 0 -51.667 9.5 -63 28.5s-12.666 43.167 -3.99902 72.5l2 9h83l-5 -20c-2.66699 -8 -2.83398 -13.667 -0.500977 -17s7.5 -5 15.5 -5h25c11.333 0 19 7.66699 23 23l5 19h83z" />
    <glyph glyph-name="PariMatch" horiz-adv-x="2506" 
d="M255 700h497c38.667 0 66 -10.833 82 -32.5s18.667 -51.167 8 -88.5l-9 -32c-16.667 -57.333 -55 -86 -115 -86h-115l-25 -88h-416zM959 700h164v-327h-94v55h-123l-31 -55h-109zM1231 700h178.001c38.667 0 66.167 -10.667 82.5 -32s19.166 -51 8.49902 -89l-9 -29
c-12 -43.333 -35.333 -70.333 -70 -81l29 -96h-101l-27 90h-61l-26 -90h-98zM1570 700h98l-93 -327h-98zM732.001 541l19 71h-105l-20 -71h106zM1389 541l20 71h-105l-21 -71h106zM1029 507v104h-19l-59 -104h78zM468.001 327h417l45 -131l111 131h127l-93 -327h-98l54 187
l-92 -107h-63l-34 100l-51 -180h-416zM1289 327h164v-327h-94v55h-123l-31 -55h-109zM1500 327h297l-27 -94h-92l-66 -233h-98l66 233h-107zM1792 240c16.667 58 54.999 87 114.999 87h158l-27 -94h-148l-41 -140h149l-27 -93h-123c-38.667 0 -66.167 10.667 -82.5 32
s-19.166 51 -8.49902 89zM2092 327h98l-33 -117h112l33 117h98l-93 -327h-98l33 117h-112l-33 -117h-98zM1359 134v104h-19l-59 -104h78z" />
    <glyph glyph-name="NULL" horiz-adv-x="0" 
 />
    </font>
</defs>
</svg>
